<svg width="548" height="318" viewBox="0 0 548 318" fill="none" xmlns="http://www.w3.org/2000/svg">
<rect y="0.137695" width="548" height="317.695" rx="14" fill="#8A5D3B"/>
<path d="M203.799 162.893C203.731 163.513 204.047 164.258 203.862 164.834C203.678 165.41 203.216 165.981 202.915 166.509C202.614 167.036 202.342 167.704 201.935 168.159C201.527 168.614 200.493 168.411 199.997 168.779C199.502 169.147 199.381 170.158 198.822 170.415C198.264 170.671 197.545 170.642 196.933 170.778C196.365 170.908 195.831 171.296 195.239 171.412C194.647 171.528 193.972 171.039 193.379 171.141C192.787 171.242 192.301 171.881 191.709 171.968C191.117 172.056 190.48 171.717 189.883 171.794C189.286 171.872 188.674 171.615 188.082 171.678C187.49 171.741 186.999 172.796 186.407 172.849C185.814 172.903 185.13 172.225 184.533 172.264C183.935 172.302 183.357 172.264 182.76 172.302C182.163 172.341 181.595 172.607 181.003 172.636C180.41 172.665 179.842 172.912 179.25 172.927C178.657 172.941 178.06 172.98 177.463 172.99C176.866 172.999 176.268 173.043 175.676 173.043C175.084 173.043 174.418 173.261 173.802 173.241C173.185 173.222 172.564 172.883 171.947 172.844C171.33 172.806 170.694 172.815 170.083 172.753C169.471 172.69 168.81 172.801 168.203 172.719C167.597 172.636 167.048 172.012 166.441 171.91C165.834 171.809 165.174 171.91 164.572 171.78C163.969 171.649 163.392 171.349 162.799 171.194C162.207 171.039 161.775 170.294 161.187 170.115C160.6 169.936 159.682 170.729 159.099 170.521C158.517 170.313 158.07 169.713 157.497 169.481C156.924 169.248 156.657 168.348 156.099 168.087C155.54 167.825 154.943 167.695 154.394 167.409C153.846 167.124 153.404 166.702 152.875 166.388C152.345 166.073 151.248 166.669 150.729 166.33C150.209 165.991 149.597 165.744 149.097 165.381C148.597 165.018 148.427 164.205 147.946 163.818C147.47 163.426 146.825 163.208 146.373 162.787C145.922 162.366 145.247 162.133 144.819 161.688C144.392 161.243 144.023 160.701 143.625 160.231C143.227 159.762 143.246 158.939 142.872 158.445C142.498 157.952 141.896 157.618 141.552 157.105C141.207 156.592 141.076 155.938 140.765 155.406C140.454 154.873 140.119 154.351 139.838 153.804C139.556 153.257 139.522 152.594 139.274 152.032C139.027 151.471 138.59 150.987 138.371 150.411C138.153 149.835 138.109 149.201 137.925 148.615C137.74 148.03 136.905 147.618 136.75 147.018C136.594 146.418 137.73 145.537 137.609 144.932C137.488 144.327 137.201 143.79 137.109 143.18C137.017 142.57 136.575 142.028 136.516 141.413C136.458 140.799 135.628 140.237 135.599 139.618C135.57 138.998 136.196 138.359 136.196 137.744C136.196 137.13 135.691 136.462 135.72 135.837C135.749 135.213 135.851 134.56 135.905 133.94C135.958 133.321 136.07 132.672 136.157 132.053C136.245 131.433 136.919 130.896 137.036 130.281C137.153 129.666 136.638 128.897 136.784 128.292C136.929 127.687 137.522 127.169 137.701 126.574C137.881 125.978 138.24 125.422 138.449 124.836C138.658 124.25 139.138 123.762 139.376 123.186C139.614 122.61 139.483 121.859 139.755 121.298C140.027 120.737 140.886 120.48 141.187 119.933C141.488 119.386 141.071 118.413 141.406 117.881C141.741 117.349 142.557 117.136 142.921 116.627C143.285 116.119 144.018 115.916 144.411 115.427C144.805 114.938 144.543 113.902 144.97 113.443C145.397 112.983 145.956 112.639 146.407 112.204C146.859 111.768 147.747 111.836 148.223 111.429C148.679 111.047 148.772 110.238 149.248 109.875C149.723 109.512 149.908 108.748 150.398 108.399C150.889 108.051 151.525 107.91 152.03 107.586C152.535 107.262 153.015 106.889 153.535 106.589C154.055 106.289 154.695 106.207 155.225 105.926C155.754 105.645 156.448 105.713 156.987 105.457C157.526 105.2 158.143 105.166 158.696 104.934C159.25 104.701 159.507 103.763 160.07 103.55C160.634 103.337 161.343 103.569 161.916 103.385C162.489 103.201 163.091 103.182 163.668 103.017C164.246 102.853 164.78 102.596 165.363 102.456C165.946 102.315 166.553 102.373 167.145 102.257C167.737 102.141 168.305 102.059 168.898 101.967C169.49 101.875 170.044 101.657 170.641 101.589C171.238 101.522 171.84 101.807 172.442 101.759C173.044 101.71 173.569 100.621 174.171 100.597C174.773 100.573 175.38 100.573 175.982 100.573C176.584 100.573 177.172 101.633 177.769 101.643C178.366 101.652 178.983 100.728 179.58 100.742C180.177 100.757 180.799 100.452 181.396 100.481C181.993 100.51 182.532 101.764 183.129 101.797C183.726 101.831 184.363 101.275 184.955 101.318C185.547 101.362 186.174 101.188 186.766 101.241C187.358 101.294 187.985 101.168 188.577 101.236C189.17 101.304 189.708 101.947 190.296 102.025C190.884 102.102 191.563 101.672 192.151 101.764C192.738 101.856 193.19 102.862 193.768 102.964C194.345 103.066 194.952 103.114 195.53 103.23C196.108 103.346 196.909 103.061 197.482 103.196C198.055 103.332 198.832 103.041 199.303 103.39C200.056 103.942 199.716 104.672 200.206 105.064C200.696 105.457 201.201 105.824 201.507 106.386C201.813 106.947 202.08 107.954 202.143 108.603C202.207 109.251 202.44 109.217 202.493 109.842C202.546 110.466 202.168 110.858 202.216 111.487C202.265 112.116 202.512 112.707 202.556 113.346C202.6 113.985 202.818 114.565 202.867 115.209C202.911 115.814 203.085 116.434 203.134 117.077C203.182 117.682 203.794 118.258 203.853 118.907C203.906 119.507 202.857 119.744 202.595 120.19C202.313 120.674 202.532 121.564 202.037 121.792C201.541 122.019 200.789 122.455 200.235 122.353C199.725 122.261 199.385 121.419 198.963 120.983C198.541 120.548 198.308 119.948 197.875 119.512C197.443 119.076 197.137 118.544 196.705 118.113C196.273 117.682 195.831 117.271 195.399 116.845C194.967 116.419 194.472 116.051 194.04 115.635C193.607 115.219 193.161 114.774 192.729 114.372C192.272 113.946 191.942 113.394 191.505 113.007C191.029 112.586 190.636 112.087 190.199 111.72C189.689 111.289 189.189 110.882 188.713 110.495C188.198 110.074 187.664 109.687 187.184 109.314C186.659 108.903 185.377 109.561 184.877 109.208C184.333 108.825 184.183 107.939 183.654 107.625C183.086 107.286 182.556 106.923 181.993 106.667C181.43 106.41 180.847 106.028 180.24 105.844C179.633 105.66 178.983 105.553 178.337 105.452C177.725 105.355 177.07 105.442 176.404 105.423C175.797 105.403 175.161 105.5 174.491 105.544C173.884 105.573 173.229 105.524 172.617 105.723C172.049 105.907 171.544 106.328 170.976 106.647C170.456 106.942 169.869 107.189 169.359 107.596C168.888 107.969 168.082 108.06 167.626 108.515C167.203 108.946 167.436 110.006 167.033 110.505C166.65 110.974 166.538 111.618 166.179 112.145C165.819 112.673 165.149 112.915 164.829 113.467C164.508 114.019 163.751 114.294 163.469 114.866C163.212 115.393 162.765 115.872 162.527 116.429C162.289 116.986 162.756 117.794 162.552 118.365C162.348 118.936 161.503 119.27 161.323 119.846C161.144 120.422 161.804 121.211 161.653 121.797C161.503 122.382 160.527 122.75 160.401 123.34C160.274 123.931 160.872 124.642 160.765 125.238C160.658 125.833 161.027 126.457 160.944 127.058C160.862 127.658 160.643 128.19 160.575 128.79C160.507 129.391 159.551 129.884 159.502 130.484C159.454 131.085 159.954 131.699 159.925 132.304C159.896 132.909 159.701 133.48 159.687 134.085C159.672 134.69 159.949 135.271 159.949 135.876C159.949 136.515 159.342 137.154 159.362 137.774C159.381 138.393 159.701 139.032 159.74 139.651C159.779 140.271 159.891 140.91 159.954 141.529C160.017 142.149 160.6 142.72 160.682 143.335C160.765 143.949 160.668 144.603 160.779 145.213C160.891 145.823 160.114 146.64 160.245 147.245C160.376 147.85 160.76 148.446 160.92 149.046C161.08 149.646 161.1 150.333 161.284 150.924C161.469 151.514 162.187 151.969 162.401 152.55C162.615 153.131 163.382 153.509 163.625 154.08C163.867 154.651 163.596 155.469 163.872 156.025C164.149 156.582 164.892 156.906 165.193 157.453C165.494 158 165.144 158.944 165.475 159.471C165.805 159.994 165.946 160.648 166.281 161.122C166.64 161.63 167.14 162.042 167.504 162.496C167.893 162.98 168.524 163.256 168.927 163.677C169.354 164.123 170.083 164.215 170.524 164.592C170.995 164.989 171.597 165.086 172.093 165.405C172.588 165.725 172.525 167.138 173.069 167.38C173.612 167.622 174.331 167.67 174.914 167.83C175.496 167.99 176.137 168.106 176.749 168.184C177.327 168.261 178.007 167.172 178.628 167.177C179.201 167.211 179.755 167.821 180.352 167.753C180.949 167.685 181.576 167.946 182.158 167.806C182.741 167.666 183.294 167.467 183.858 167.264C184.421 167.061 184.732 166.349 185.275 166.102C185.819 165.855 186.717 166.364 187.242 166.078C187.766 165.793 187.96 164.975 188.465 164.665C188.97 164.355 189.621 164.292 190.107 163.953C190.592 163.615 190.782 162.898 191.248 162.54C191.733 162.177 192.704 162.429 193.18 162.051C193.656 161.674 193.831 160.914 194.297 160.527C194.763 160.139 195.574 160.13 196.03 159.728C196.487 159.326 196.404 158.329 196.846 157.913C197.288 157.497 198.113 157.472 198.545 157.042C198.978 156.611 199.002 155.788 199.419 155.348C199.837 154.907 200.774 154.936 201.182 154.481C201.624 153.988 201.731 153.228 202.284 153.228C202.877 153.228 203.809 153.276 204.217 153.702C204.6 154.104 204.853 155.019 204.799 155.677C204.751 156.267 204.197 156.834 204.149 157.453C204.1 158.073 203.853 158.639 203.794 159.249C203.736 159.859 204.455 160.531 204.396 161.132C204.338 161.732 203.862 162.313 203.799 162.903V162.893Z" fill="white"/>
<path d="M209.3 139.458C209.208 138.964 209.325 138.19 209.558 137.739C209.791 137.289 209.849 136.481 209.689 135.949C209.529 135.416 209.703 134.681 210.082 134.318C210.461 133.955 211.131 133.412 211.573 133.112C212.015 132.812 212.811 132.527 213.335 132.478C213.86 132.43 214.7 132.294 215.2 132.178C215.7 132.062 216.511 131.849 217.006 131.709C217.501 131.568 218.307 131.326 218.798 131.176C219.288 131.026 220.123 130.915 220.653 130.925C221.182 130.934 222.027 130.857 222.527 130.755C223.027 130.654 223.823 130.358 224.289 130.107C224.756 129.855 225.581 129.7 226.125 129.773C226.669 129.845 227.484 129.642 227.931 129.318C228.378 128.994 229.198 128.8 229.747 128.882C230.296 128.964 231.111 128.771 231.558 128.451C232.005 128.132 232.777 127.745 233.267 127.59C233.758 127.435 234.578 127.261 235.093 127.188C235.608 127.116 236.341 126.941 236.729 126.796C237.118 126.651 237.491 126.259 237.559 125.925C237.627 125.591 237.676 124.923 237.666 124.439C237.657 123.955 237.584 123.171 237.516 122.692C237.448 122.213 237.496 121.409 237.623 120.911C237.749 120.412 237.807 119.604 237.749 119.115C237.691 118.626 237.399 117.871 237.108 117.435C236.817 117 236.428 116.284 236.239 115.838C236.049 115.393 235.705 114.686 235.467 114.265C235.229 113.844 234.816 113.128 234.544 112.673C234.272 112.218 233.597 111.845 233.044 111.84C232.49 111.836 231.665 111.753 231.204 111.656C230.742 111.56 229.98 111.327 229.504 111.143C229.028 110.959 228.14 110.964 227.533 111.158C226.926 111.352 226.411 111.811 226.392 112.194C226.372 112.576 226.392 113.273 226.45 113.752C226.508 114.231 226.853 114.928 227.232 115.306C227.611 115.683 227.965 116.38 228.018 116.86C228.072 117.339 228.125 118.123 228.14 118.597C228.154 119.071 228.276 119.851 228.407 120.315C228.538 120.78 228.645 121.55 228.64 122.024C228.635 122.498 228.514 123.263 228.373 123.728C228.232 124.192 227.882 124.899 227.596 125.301C227.31 125.702 226.581 126.104 225.984 126.196C225.387 126.288 224.513 126.607 224.051 126.912C223.59 127.217 222.76 127.517 222.206 127.58C221.653 127.643 220.808 127.609 220.318 127.508C219.827 127.406 219.026 127.28 218.536 127.227C218.045 127.174 217.283 126.946 216.846 126.719C216.409 126.491 215.69 126.119 215.253 125.901C214.816 125.683 214.238 125.165 213.967 124.758C213.695 124.352 213.209 123.718 212.884 123.345C212.558 122.972 212.219 122.266 212.131 121.772C212.044 121.278 212.063 120.48 212.175 120.001C212.287 119.522 212.442 118.699 212.525 118.176C212.607 117.653 213.054 117.005 213.51 116.729C213.967 116.453 214.574 115.877 214.855 115.451C215.137 115.025 215.681 114.41 216.064 114.086C216.448 113.762 217.21 113.447 217.759 113.384C218.307 113.321 219.002 112.896 219.303 112.441C219.604 111.986 220.303 111.598 220.861 111.579C221.42 111.56 222.216 111.318 222.634 111.037C223.051 110.756 223.663 110.122 223.988 109.619C224.314 109.115 224.964 108.452 225.421 108.138C225.877 107.823 226.659 107.349 227.149 107.083C227.64 106.816 228.426 106.434 228.897 106.231C229.368 106.027 230.097 105.631 230.519 105.35C230.941 105.069 231.699 104.735 232.199 104.609C232.699 104.484 233.5 104.266 233.981 104.121C234.462 103.975 235.239 103.719 235.705 103.54C236.171 103.361 236.938 103.085 237.409 102.91C237.88 102.736 238.662 102.446 239.138 102.257C239.613 102.068 240.424 101.851 240.929 101.773C241.434 101.696 242.264 101.579 242.774 101.517C243.284 101.454 244.129 101.429 244.653 101.458C245.178 101.488 246.027 101.575 246.547 101.647C247.067 101.72 247.853 102.063 248.295 102.412C248.737 102.76 249.499 103.133 249.994 103.24C250.49 103.346 251.237 103.656 251.665 103.922C252.092 104.188 252.718 104.701 253.068 105.059C253.418 105.418 254.01 105.984 254.389 106.323C254.767 106.662 255.384 107.204 255.758 107.528C256.132 107.852 256.564 108.491 256.719 108.946C256.875 109.401 257.137 110.137 257.307 110.587C257.477 111.037 257.705 111.782 257.821 112.252C257.938 112.721 258.001 113.481 257.967 113.951C257.933 114.42 257.768 115.18 257.603 115.645C257.438 116.109 257.394 116.86 257.506 117.31C257.618 117.76 257.608 118.505 257.482 118.96C257.355 119.415 257.462 120.18 257.715 120.654C257.967 121.128 258.074 121.908 257.938 122.382C257.802 122.856 257.787 123.636 257.894 124.115C258.001 124.594 258.05 125.373 257.996 125.847C257.943 126.322 257.899 127.101 257.894 127.575C257.889 128.05 257.943 128.829 258.011 129.298C258.079 129.768 257.967 130.61 257.758 131.167C257.55 131.723 257.496 132.614 257.637 133.151C257.778 133.688 257.991 134.569 258.113 135.102C258.234 135.634 258.589 136.428 258.899 136.863C259.21 137.299 259.803 138.006 260.215 138.427C260.628 138.848 261.429 139.317 261.997 139.458C262.565 139.598 263.434 139.709 263.935 139.7C264.435 139.69 264.862 139.995 264.886 140.382C264.911 140.769 264.483 141.171 263.935 141.278C263.386 141.384 262.672 141.82 262.347 142.241C262.021 142.662 261.424 143.233 261.021 143.499C260.618 143.765 259.866 144.065 259.346 144.153C258.827 144.24 258.045 144.491 257.608 144.709C257.171 144.927 256.52 145.406 256.175 145.769C255.831 146.132 255.17 146.553 254.714 146.703C254.258 146.853 253.568 147.187 253.184 147.453C252.801 147.72 252.165 148.141 251.767 148.388C251.369 148.634 250.708 149.022 250.291 149.249C249.873 149.477 249.154 149.714 248.683 149.782C248.212 149.849 247.46 150.067 247.003 150.266C246.547 150.464 245.78 150.508 245.304 150.362C244.828 150.217 244.076 149.922 243.643 149.714C243.211 149.506 242.609 149.017 242.313 148.639C242.017 148.262 241.56 147.633 241.303 147.25C241.046 146.868 240.652 146.229 240.439 145.827C240.225 145.425 239.871 144.767 239.647 144.365C239.424 143.964 239.055 143.354 238.822 143.01C238.589 142.667 238.166 142.681 237.894 143.039C237.623 143.397 237.054 143.935 236.637 144.235C236.219 144.535 235.525 145.009 235.098 145.295C234.67 145.58 234.025 146.103 233.656 146.461C233.287 146.819 232.583 147.245 232.082 147.41C231.582 147.574 230.864 148 230.48 148.363C230.097 148.726 229.368 149.128 228.868 149.254C228.368 149.38 227.547 149.564 227.047 149.661C226.547 149.757 225.722 149.835 225.217 149.825C224.712 149.815 223.886 149.907 223.391 150.028C222.896 150.149 222.09 150.12 221.604 149.975C221.119 149.83 220.288 149.854 219.764 150.033C219.24 150.212 218.409 150.222 217.929 150.057C217.448 149.893 216.691 149.549 216.249 149.302C215.807 149.055 215.142 148.576 214.773 148.242C214.404 147.908 213.811 147.366 213.457 147.042C213.102 146.718 212.471 146.219 212.049 145.939C211.626 145.658 211.116 145.053 210.917 144.598C210.718 144.143 210.349 143.412 210.102 142.972C209.854 142.531 209.606 141.766 209.558 141.268C209.509 140.769 209.388 139.956 209.296 139.463L209.3 139.458ZM237.205 140.348C237.579 140.314 237.996 139.787 238.132 139.182C238.268 138.577 238.123 137.585 237.807 136.984C237.491 136.384 237.346 135.489 237.477 135C237.608 134.511 237.627 133.708 237.521 133.219C237.414 132.73 237.419 131.927 237.54 131.443C237.661 130.959 237.778 130.165 237.807 129.69C237.836 129.216 237.516 128.926 237.088 129.056C236.661 129.187 235.899 129.434 235.394 129.608C234.889 129.782 234.03 129.991 233.481 130.073C232.932 130.155 232.102 130.465 231.636 130.765C231.17 131.065 230.636 131.733 230.446 132.251C230.257 132.769 229.873 133.601 229.592 134.1C229.31 134.598 229.291 135.407 229.548 135.895C229.805 136.384 230.009 137.241 229.999 137.798C229.99 138.354 230.383 139.022 230.873 139.279C231.364 139.535 232.126 139.903 232.563 140.092C233 140.28 233.748 140.542 234.224 140.673C234.7 140.803 235.413 140.798 235.807 140.663C236.2 140.527 236.831 140.392 237.205 140.358V140.348Z" fill="white"/>
<path d="M276.51 150.595C276.005 150.348 275.486 149.709 275.36 149.177C275.233 148.644 274.689 147.971 274.151 147.686C273.612 147.4 273.131 146.723 273.087 146.185C273.043 145.648 272.796 144.821 272.543 144.351C272.291 143.882 272.121 143.059 272.165 142.531C272.208 142.004 272.233 141.152 272.213 140.639C272.194 140.126 272.145 139.293 272.111 138.78C272.077 138.267 272.019 137.435 271.985 136.926C271.951 136.418 272.053 135.586 272.213 135.082C272.373 134.579 272.519 133.746 272.543 133.238C272.568 132.73 272.461 131.898 272.305 131.385C272.15 130.871 272.213 130.039 272.446 129.536C272.679 129.032 272.679 128.2 272.446 127.687C272.213 127.174 272.223 126.341 272.471 125.833C272.718 125.325 272.728 124.502 272.49 124.008C272.252 123.515 272.038 122.697 272.004 122.198C271.97 121.7 272.004 120.886 272.077 120.388C272.15 119.889 272.116 119.076 272.004 118.578C271.893 118.079 271.873 117.266 271.956 116.768C272.038 116.269 272.111 115.485 272.111 115.025C272.111 114.565 271.757 114.251 271.325 114.323C270.892 114.396 270.145 114.294 269.664 114.101C269.183 113.907 268.397 113.738 267.916 113.733C267.435 113.728 266.605 113.873 266.066 114.057C265.527 114.241 265.008 114.081 264.911 113.699C264.813 113.317 265.144 112.808 265.644 112.566C266.144 112.324 266.984 112.063 267.508 111.99C268.033 111.918 268.683 111.448 268.955 110.95C269.227 110.451 269.785 109.827 270.188 109.551C270.591 109.275 271.334 108.946 271.834 108.815C272.335 108.685 272.985 108.225 273.277 107.789C273.568 107.354 274.214 106.884 274.719 106.734C275.224 106.584 276 106.274 276.452 106.047C276.904 105.819 277.423 105.195 277.608 104.658C277.792 104.121 278.278 103.462 278.695 103.191C279.113 102.92 279.783 102.475 280.196 102.199C280.608 101.923 281.157 101.342 281.414 100.916C281.672 100.491 282.143 99.8323 282.453 99.4548C282.764 99.0772 283.284 98.4771 283.614 98.1189C283.944 97.7607 284.478 97.1751 284.808 96.8169C285.139 96.4588 285.862 96.0328 286.416 95.8683C286.969 95.7037 287.571 95.1713 287.751 94.6825C287.93 94.1936 288.319 93.4773 288.615 93.0852C288.911 92.6932 289.45 92.1076 289.819 91.7736C290.188 91.4396 290.693 90.8153 290.946 90.3893C291.198 89.9634 291.718 89.7263 292.096 89.8666C292.475 90.007 292.786 90.4958 292.786 90.9556C292.786 91.4154 292.684 92.2044 292.563 92.7077C292.441 93.2111 292.446 94.0484 292.572 94.5615C292.699 95.0745 292.801 95.9118 292.796 96.42C292.791 96.9282 292.747 97.7607 292.689 98.2738C292.631 98.7868 292.718 99.6193 292.883 100.132C293.048 100.645 293.014 101.478 292.805 101.986C292.597 102.494 292.548 103.327 292.703 103.835C292.859 104.343 293 105.001 293.024 105.292C293.048 105.582 293.359 105.989 293.718 106.192C294.078 106.395 294.767 106.337 295.253 106.066C295.738 105.795 296.539 105.819 297.025 106.119C297.51 106.42 298.312 106.623 298.797 106.57C299.283 106.516 300.084 106.274 300.569 106.023C301.055 105.771 301.851 105.577 302.337 105.587C302.822 105.597 303.619 105.64 304.109 105.689C304.599 105.737 305.376 105.829 305.847 105.887C306.318 105.945 306.721 106.449 306.75 107.005C306.78 107.562 306.668 108.467 306.503 109.024C306.338 109.58 306.095 110.48 305.969 111.032C305.842 111.584 305.716 112.431 305.692 112.915C305.668 113.399 305.294 113.801 304.866 113.81C304.439 113.82 303.657 113.917 303.133 114.028C302.609 114.139 301.754 114.256 301.235 114.285C300.715 114.314 299.86 114.377 299.336 114.43C298.812 114.483 297.962 114.512 297.438 114.498C296.913 114.483 296.063 114.464 295.539 114.454C295.015 114.444 294.034 114.304 293.359 114.139C292.684 113.975 292.194 114.27 292.276 114.798C292.359 115.325 292.417 116.143 292.402 116.608C292.388 117.073 292.334 117.842 292.281 118.312C292.228 118.781 292.262 119.551 292.349 120.02C292.436 120.49 292.66 121.259 292.839 121.729C293.019 122.198 293.136 122.968 293.097 123.437C293.058 123.907 293.063 124.676 293.111 125.146C293.16 125.615 293.223 126.433 293.257 126.966C293.291 127.498 293.242 128.364 293.155 128.897C293.068 129.429 292.81 130.3 292.597 130.833C292.383 131.365 292.315 132.236 292.446 132.764C292.577 133.292 292.592 134.168 292.475 134.71C292.359 135.252 292.553 136.099 292.907 136.592C293.262 137.086 293.524 137.875 293.48 138.345C293.437 138.814 293.65 139.492 293.946 139.85C294.243 140.208 294.67 140.798 294.893 141.161C295.117 141.524 295.597 141.999 295.957 142.212C296.316 142.425 296.957 142.594 297.379 142.58C297.802 142.565 298.617 142.701 299.2 142.875C299.783 143.049 300.671 142.957 301.171 142.667C301.672 142.376 302.482 141.902 302.973 141.616C303.463 141.331 304.259 140.726 304.755 140.271C305.25 139.816 305.93 139.772 306.27 140.174C306.61 140.576 306.653 141.287 306.367 141.757C306.08 142.226 305.595 142.923 305.294 143.306C304.993 143.688 304.434 144.254 304.051 144.559C303.667 144.864 302.958 145.271 302.468 145.455C301.977 145.638 301.419 146.21 301.22 146.713C301.021 147.216 300.56 147.904 300.2 148.233C299.841 148.562 299.113 148.92 298.593 149.022C298.074 149.123 297.287 149.37 296.85 149.569C296.413 149.767 295.772 150.212 295.418 150.556C295.063 150.9 294.374 151.229 293.888 151.292C293.403 151.355 292.655 151.572 292.232 151.781C291.81 151.989 291.111 152.308 290.674 152.487C290.237 152.666 289.508 152.942 289.052 153.092C288.596 153.242 287.833 153.349 287.353 153.324C286.872 153.3 286.095 153.426 285.624 153.605C285.153 153.784 284.313 153.852 283.76 153.75C283.206 153.649 282.303 153.499 281.749 153.412C281.196 153.324 280.356 153.01 279.88 152.715C279.404 152.419 278.656 151.921 278.224 151.606C277.792 151.292 277.02 150.832 276.515 150.585L276.51 150.595Z" fill="white"/>
<path d="M316.821 162.216C316.316 161.969 315.796 161.33 315.67 160.798C315.544 160.265 315 159.592 314.461 159.307C313.922 159.021 313.442 158.344 313.398 157.806C313.354 157.269 313.107 156.442 312.854 155.972C312.602 155.503 312.432 154.68 312.475 154.152C312.519 153.625 312.543 152.773 312.524 152.26C312.504 151.747 312.456 150.914 312.422 150.401C312.388 149.888 312.33 149.056 312.296 148.547C312.262 148.039 312.364 147.207 312.524 146.703C312.684 146.2 312.83 145.368 312.854 144.859C312.878 144.351 312.771 143.519 312.616 143.006C312.461 142.493 312.524 141.66 312.757 141.157C312.99 140.653 312.99 139.821 312.757 139.308C312.524 138.795 312.534 137.962 312.781 137.454C313.029 136.946 313.039 136.123 312.801 135.629C312.563 135.136 312.349 134.318 312.315 133.819C312.281 133.321 312.315 132.508 312.388 132.009C312.461 131.511 312.427 130.697 312.315 130.199C312.203 129.7 312.184 128.887 312.266 128.389C312.349 127.89 312.422 127.106 312.422 126.646C312.422 126.186 312.072 125.872 311.635 125.944C311.198 126.017 310.455 125.915 309.975 125.722C309.494 125.528 308.707 125.359 308.227 125.354C307.746 125.349 306.916 125.494 306.377 125.678C305.838 125.862 305.318 125.702 305.221 125.32C305.124 124.938 305.454 124.43 305.954 124.188C306.454 123.946 307.294 123.684 307.819 123.612C308.343 123.539 308.994 123.069 309.266 122.571C309.538 122.072 310.096 121.448 310.499 121.172C310.902 120.896 311.645 120.567 312.145 120.436C312.645 120.306 313.296 119.846 313.587 119.41C313.879 118.975 314.524 118.505 315.029 118.355C315.534 118.205 316.311 117.895 316.763 117.668C317.214 117.441 317.734 116.816 317.918 116.279C318.103 115.742 318.588 115.083 319.006 114.812C319.424 114.541 320.094 114.096 320.506 113.82C320.919 113.544 321.468 112.963 321.725 112.538C321.982 112.112 322.453 111.453 322.764 111.076C323.075 110.698 323.594 110.098 323.925 109.74C324.255 109.382 324.789 108.796 325.119 108.438C325.449 108.08 326.173 107.654 326.726 107.489C327.28 107.325 327.882 106.792 328.061 106.304C328.241 105.815 328.63 105.098 328.926 104.706C329.222 104.314 329.761 103.729 330.13 103.395C330.499 103.061 331.004 102.436 331.256 102.01C331.509 101.585 332.028 101.347 332.407 101.488C332.786 101.628 333.097 102.117 333.097 102.577C333.097 103.037 332.995 103.825 332.873 104.329C332.752 104.832 332.757 105.67 332.883 106.183C333.009 106.696 333.111 107.533 333.106 108.041C333.101 108.549 333.058 109.382 332.999 109.895C332.941 110.408 333.029 111.24 333.194 111.753C333.359 112.266 333.325 113.099 333.116 113.607C332.907 114.115 332.859 114.948 333.014 115.456C333.169 115.964 333.31 116.623 333.335 116.913C333.359 117.203 333.67 117.61 334.029 117.813C334.388 118.016 335.078 117.958 335.563 117.687C336.049 117.416 336.85 117.441 337.335 117.741C337.821 118.041 338.622 118.244 339.108 118.191C339.593 118.137 340.394 117.895 340.88 117.644C341.366 117.392 342.162 117.199 342.647 117.208C343.133 117.218 343.929 117.261 344.42 117.31C344.91 117.358 345.687 117.45 346.158 117.508C346.629 117.566 347.032 118.07 347.061 118.626C347.09 119.183 346.978 120.088 346.813 120.645C346.648 121.201 346.406 122.101 346.279 122.653C346.153 123.205 346.027 124.052 346.003 124.536C345.978 125.02 345.604 125.422 345.177 125.431C344.75 125.441 343.968 125.538 343.444 125.649C342.919 125.761 342.065 125.877 341.545 125.906C341.026 125.935 340.171 125.998 339.647 126.051C339.122 126.104 338.273 126.133 337.748 126.119C337.224 126.104 336.374 126.085 335.85 126.075C335.325 126.065 334.344 125.925 333.67 125.761C332.995 125.596 332.504 125.891 332.587 126.419C332.669 126.946 332.728 127.764 332.713 128.229C332.698 128.694 332.645 129.463 332.592 129.933C332.538 130.402 332.572 131.172 332.66 131.641C332.747 132.111 332.97 132.88 333.15 133.35C333.33 133.819 333.446 134.589 333.407 135.058C333.369 135.528 333.373 136.297 333.422 136.767C333.47 137.236 333.534 138.054 333.568 138.587C333.602 139.119 333.553 139.985 333.466 140.518C333.378 141.05 333.121 141.921 332.907 142.454C332.694 142.986 332.626 143.857 332.757 144.385C332.888 144.913 332.902 145.789 332.786 146.331C332.669 146.873 332.864 147.72 333.218 148.214C333.572 148.707 333.835 149.496 333.791 149.966C333.747 150.435 333.961 151.113 334.257 151.471C334.553 151.829 334.981 152.42 335.204 152.783C335.427 153.146 335.908 153.62 336.267 153.833C336.627 154.046 337.267 154.215 337.69 154.201C338.112 154.186 338.928 154.322 339.511 154.496C340.093 154.67 340.982 154.578 341.482 154.288C341.982 153.997 342.793 153.523 343.283 153.237C343.774 152.952 344.575 152.347 345.065 151.892C345.556 151.437 346.24 151.393 346.58 151.795C346.92 152.197 346.964 152.908 346.677 153.378C346.391 153.847 345.905 154.544 345.604 154.927C345.303 155.309 344.745 155.875 344.361 156.18C343.978 156.485 343.269 156.892 342.778 157.076C342.288 157.26 341.73 157.831 341.531 158.334C341.332 158.837 340.87 159.525 340.511 159.854C340.152 160.183 339.423 160.541 338.904 160.643C338.384 160.744 337.598 160.991 337.161 161.19C336.724 161.388 336.083 161.833 335.728 162.177C335.374 162.521 334.684 162.85 334.199 162.913C333.713 162.976 332.966 163.193 332.543 163.402C332.121 163.61 331.421 163.929 330.984 164.108C330.547 164.287 329.819 164.563 329.363 164.713C328.906 164.863 328.144 164.97 327.663 164.946C327.183 164.921 326.406 165.047 325.935 165.226C325.464 165.405 324.624 165.473 324.07 165.371C323.517 165.27 322.614 165.12 322.06 165.033C321.507 164.946 320.667 164.631 320.191 164.336C319.715 164.04 318.967 163.542 318.535 163.227C318.103 162.913 317.331 162.453 316.826 162.206L316.821 162.216Z" fill="white"/>
<path d="M354.912 163.537C354.796 163.034 354.83 162.206 354.99 161.698C355.15 161.19 354.965 160.406 354.577 159.956C354.189 159.506 353.975 158.736 354.096 158.242C354.218 157.749 354.193 156.955 354.043 156.476C353.892 155.997 353.863 155.208 353.985 154.719C354.106 154.23 354.218 153.441 354.237 152.957C354.257 152.473 354.252 151.684 354.223 151.2C354.193 150.716 354.145 149.937 354.106 149.463C354.067 148.988 354.155 148.214 354.3 147.74C354.446 147.265 354.572 146.491 354.577 146.016C354.582 145.542 354.431 144.773 354.247 144.308C354.062 143.843 354.062 143.059 354.257 142.57C354.451 142.082 354.354 141.322 354.043 140.886C353.732 140.45 353.587 139.671 353.713 139.153C353.839 138.635 353.616 137.934 353.203 137.6C352.79 137.266 352.203 136.757 351.892 136.472C351.581 136.186 351.013 135.799 350.634 135.61C350.256 135.422 349.586 135.33 349.139 135.407C348.692 135.485 348.318 135.218 348.294 134.817C348.27 134.415 348.668 133.907 349.173 133.684C349.678 133.461 350.455 133.094 350.906 132.856C351.358 132.619 352.164 132.43 352.713 132.43C353.261 132.43 354.091 132.28 354.567 132.101C355.043 131.922 355.738 131.458 356.116 131.066C356.495 130.674 357.18 130.185 357.636 129.967C358.092 129.749 358.855 129.439 359.326 129.265C359.797 129.091 360.617 128.902 361.142 128.834C361.666 128.767 362.341 128.316 362.637 127.832C362.933 127.348 363.535 126.753 363.968 126.516C364.4 126.279 365.181 126.032 365.706 125.969C366.23 125.906 366.959 125.548 367.328 125.17C367.697 124.793 368.435 124.473 368.964 124.454C369.493 124.435 370.333 124.377 370.824 124.323C371.314 124.27 372.086 123.931 372.528 123.568C372.97 123.205 373.606 123.109 373.931 123.36C374.256 123.612 374.562 124.251 374.606 124.788C374.65 125.325 374.82 126.172 374.99 126.676C375.16 127.179 375.344 128.011 375.402 128.529C375.461 129.047 375.524 129.889 375.538 130.407C375.553 130.925 375.558 131.777 375.548 132.305C375.538 132.832 375.266 133.684 374.946 134.197C374.625 134.71 374.504 135.567 374.674 136.094C374.844 136.622 374.994 137.479 375.004 138.001C375.014 138.524 374.946 139.381 374.854 139.903C374.761 140.426 374.727 141.283 374.781 141.806C374.834 142.328 374.815 143.185 374.747 143.708C374.679 144.23 374.655 145.087 374.708 145.61C374.761 146.133 374.713 146.951 374.611 147.43C374.509 147.909 374.543 148.683 374.689 149.158C374.834 149.632 374.975 150.411 374.999 150.886C375.024 151.36 375.019 152.139 374.999 152.618C374.98 153.097 375.13 153.862 375.344 154.317C375.558 154.772 375.616 155.551 375.47 156.05C375.325 156.548 375.412 157.303 375.66 157.739C375.907 158.175 376.286 158.906 376.495 159.375C376.704 159.844 376.98 160.716 377.102 161.316C377.223 161.916 377.825 162.415 378.437 162.429C379.049 162.444 379.957 162.748 380.462 163.121C380.967 163.494 381.855 163.683 382.443 163.542C383.03 163.402 383.861 162.942 384.298 162.511C384.735 162.081 385.434 161.563 385.851 161.364C386.269 161.166 386.657 160.585 386.711 160.086C386.764 159.588 386.881 158.746 386.963 158.218C387.046 157.691 387.075 156.829 387.026 156.302C386.978 155.774 387.036 154.912 387.157 154.385C387.279 153.857 387.429 152.996 387.488 152.468C387.546 151.941 387.575 151.094 387.551 150.59C387.526 150.087 387.449 149.259 387.386 148.756C387.323 148.253 387.148 147.43 387.007 146.931C386.866 146.433 386.701 145.615 386.638 145.116C386.575 144.618 386.439 143.805 386.342 143.316C386.245 142.827 386.118 142.014 386.065 141.52C386.012 141.026 385.9 140.223 385.812 139.734C385.725 139.245 385.711 138.369 385.774 137.788C385.837 137.208 385.526 136.438 385.079 136.09C384.633 135.741 383.846 135.301 383.322 135.117C382.797 134.933 382.219 134.812 382.035 134.85C381.85 134.889 381.578 134.744 381.428 134.536C381.277 134.328 381.481 133.897 381.875 133.587C382.268 133.277 382.996 132.89 383.492 132.735C383.987 132.58 384.773 132.251 385.235 132.009C385.696 131.767 386.453 131.37 386.915 131.133C387.376 130.896 388.177 130.596 388.692 130.47C389.206 130.344 390.09 130.228 390.658 130.214C391.226 130.199 392.037 129.909 392.455 129.575C392.872 129.241 393.635 128.883 394.145 128.781C394.654 128.679 395.324 128.186 395.63 127.687C395.936 127.189 396.606 126.705 397.121 126.613C397.636 126.521 398.379 126.167 398.772 125.824C399.165 125.48 399.884 125.074 400.36 124.914C400.835 124.754 401.612 124.464 402.078 124.27C402.545 124.077 403.302 123.723 403.763 123.481C404.225 123.239 405.04 123.181 405.579 123.351C406.118 123.52 406.881 123.815 407.279 124.004C407.677 124.193 407.978 124.749 407.949 125.248C407.92 125.746 407.963 126.559 408.036 127.063C408.109 127.566 408.104 128.379 408.026 128.873C407.949 129.367 407.89 130.175 407.905 130.669C407.92 131.162 407.944 131.99 407.963 132.503C407.983 133.016 407.939 133.853 407.866 134.366C407.793 134.88 407.56 135.712 407.351 136.22C407.143 136.728 407.167 137.571 407.415 138.084C407.662 138.597 407.89 139.444 407.92 139.957C407.949 140.47 407.793 141.307 407.565 141.82C407.337 142.333 407.104 143.171 407.046 143.684C406.987 144.197 407.055 145.039 407.201 145.552C407.347 146.065 407.342 146.907 407.196 147.42C407.05 147.933 406.973 148.799 407.026 149.346C407.08 149.893 407.186 150.784 407.254 151.331C407.322 151.878 407.463 152.763 407.56 153.301C407.657 153.838 407.716 154.733 407.687 155.28C407.657 155.827 407.847 156.694 408.099 157.197C408.352 157.7 408.624 158.542 408.706 159.07C408.789 159.598 409.027 160.324 409.24 160.691C409.454 161.059 409.808 161.679 410.027 162.076C410.245 162.473 410.779 162.957 411.216 163.16C411.653 163.363 412.202 163.475 412.435 163.412C412.668 163.349 412.926 163.47 413.008 163.683C413.091 163.896 412.877 164.317 412.537 164.617C412.197 164.917 411.556 165.343 411.1 165.565C410.644 165.788 409.872 166.074 409.381 166.199C408.891 166.325 408.085 166.553 407.599 166.698C407.114 166.843 406.366 167.197 405.943 167.482C405.521 167.768 404.749 168.068 404.229 168.15C403.71 168.232 402.977 168.605 402.593 168.982C402.21 169.36 401.505 169.796 401.02 169.95C400.534 170.105 399.772 170.372 399.325 170.536C398.879 170.701 398.131 170.918 397.655 171.01C397.179 171.102 396.47 171.403 396.067 171.674C395.664 171.945 394.936 172.182 394.446 172.196C393.955 172.211 393.251 172.569 392.882 172.99C392.513 173.411 391.824 173.813 391.348 173.881C390.872 173.948 390.08 173.992 389.595 173.977C389.109 173.963 388.585 173.789 388.425 173.59C388.265 173.392 388.104 172.796 388.07 172.269C388.036 171.741 387.832 170.875 387.619 170.343C387.405 169.81 387.259 168.924 387.293 168.368C387.327 167.811 387.255 166.916 387.138 166.369C387.021 165.822 386.954 164.917 386.992 164.355C387.031 163.794 386.798 163.687 386.487 164.118C386.177 164.549 385.56 165.115 385.118 165.381C384.676 165.648 383.997 166.112 383.594 166.427C383.191 166.742 382.588 167.313 382.244 167.705C381.899 168.097 381.137 168.44 380.539 168.474C379.942 168.508 379.209 168.91 378.903 169.365C378.597 169.82 378.029 170.473 377.636 170.817C377.243 171.161 376.461 171.451 375.898 171.461C375.334 171.47 374.489 171.63 374.023 171.804C373.557 171.978 372.819 172.375 372.387 172.671C371.955 172.966 371.193 173.339 370.692 173.484C370.192 173.629 369.362 173.731 368.843 173.706C368.323 173.682 367.478 173.581 366.968 173.484C366.458 173.387 365.614 173.295 365.089 173.285C364.565 173.276 363.778 173.034 363.332 172.748C362.885 172.462 362.103 172.129 361.598 172.012C361.093 171.896 360.379 171.499 360.01 171.136C359.641 170.773 358.923 170.294 358.403 170.076C357.884 169.859 357.393 169.21 357.316 168.634C357.238 168.058 356.859 167.284 356.471 166.906C356.082 166.529 355.621 165.827 355.446 165.338C355.271 164.849 355.029 164.036 354.912 163.533V163.537Z" fill="white"/>
<path d="M161.153 229.642C160.653 229.807 159.828 229.783 159.313 229.594C158.798 229.405 157.939 229.434 157.405 229.662C156.871 229.889 156.016 229.928 155.511 229.754C155.006 229.579 154.156 229.439 153.618 229.444C153.079 229.449 152.248 229.27 151.768 229.042C151.287 228.815 150.491 228.481 150.005 228.297C149.519 228.113 148.723 227.803 148.238 227.614C147.752 227.426 146.97 227.082 146.499 226.854C146.028 226.627 145.339 226.133 144.97 225.751C144.601 225.369 143.979 224.783 143.586 224.454C143.193 224.125 142.489 223.645 142.027 223.389C141.566 223.132 141.017 222.513 140.809 222.014C140.6 221.516 140.061 220.862 139.609 220.558C139.158 220.253 138.701 219.57 138.604 219.033C138.507 218.496 138.109 217.75 137.721 217.368C137.332 216.986 136.847 216.289 136.643 215.809C136.439 215.33 136.191 214.522 136.099 214.009C136.007 213.496 135.778 212.678 135.589 212.189C135.4 211.7 135.239 210.873 135.235 210.35C135.23 209.827 135.186 208.98 135.142 208.467C135.099 207.954 135.016 207.112 134.963 206.599C134.909 206.086 135.011 205.248 135.191 204.74C135.371 204.232 135.574 203.409 135.647 202.911C135.72 202.412 135.73 201.565 135.672 201.038C135.613 200.51 135.672 199.663 135.798 199.165C135.924 198.666 136.201 197.867 136.405 197.388C136.609 196.909 137.055 196.193 137.395 195.786C137.735 195.38 138.056 194.596 138.104 194.039C138.153 193.482 138.425 192.669 138.706 192.229C138.988 191.788 139.561 191.164 139.988 190.84C140.415 190.515 140.964 189.867 141.217 189.392C141.469 188.918 142.061 188.332 142.542 188.09C143.023 187.848 143.785 187.447 144.237 187.205C144.688 186.963 145.31 186.372 145.611 185.903C145.912 185.433 146.558 184.886 147.043 184.688C147.529 184.489 148.325 184.199 148.82 184.039C149.316 183.88 150.083 183.526 150.529 183.255C150.976 182.984 151.738 182.607 152.224 182.423C152.71 182.239 153.52 181.978 154.021 181.847C154.521 181.716 155.356 181.532 155.866 181.44C156.375 181.348 157.24 181.411 157.779 181.585C158.318 181.76 159.167 181.755 159.667 181.576C160.168 181.397 160.993 181.232 161.508 181.208C162.022 181.184 162.838 181.218 163.319 181.29C163.8 181.363 164.591 181.402 165.072 181.377C165.552 181.353 166.339 181.411 166.815 181.498C167.291 181.585 168.077 181.677 168.558 181.692C169.039 181.706 169.811 181.852 170.272 182.007C170.733 182.161 171.515 182.287 172.005 182.282C172.496 182.278 173.282 182.374 173.753 182.5C174.224 182.626 174.962 182.887 175.404 183.091C175.846 183.294 176.608 183.526 177.104 183.609C177.599 183.691 178.279 184.073 178.618 184.451C178.958 184.828 179.604 185.298 180.065 185.491C180.527 185.685 181.197 186.116 181.566 186.45C181.935 186.784 182.294 187.481 182.372 187.999C182.449 188.516 182.804 189.247 183.168 189.625C183.532 190.002 183.678 190.714 183.498 191.207C183.319 191.701 183.173 192.495 183.168 192.96C183.163 193.424 183.202 194.237 183.246 194.76C183.289 195.283 183.139 196.072 182.901 196.522C182.663 196.972 182.187 197.635 181.843 197.998C181.498 198.361 180.876 198.889 180.464 199.16C180.051 199.431 179.376 199.876 178.968 200.147C178.56 200.418 177.827 200.689 177.337 200.747C176.846 200.805 176.065 200.854 175.594 200.859C175.123 200.863 174.317 200.834 173.797 200.8C173.277 200.767 172.452 200.621 171.957 200.476C171.461 200.331 170.675 199.992 170.209 199.716C169.743 199.44 169.087 198.86 168.757 198.419C168.427 197.979 167.936 197.228 167.664 196.749C167.393 196.27 167.033 195.452 166.858 194.934C166.684 194.416 166.426 193.565 166.281 193.037C166.135 192.509 166.057 191.604 166.111 191.019C166.164 190.433 166.004 189.547 165.761 189.049C165.518 188.55 165.149 187.723 164.95 187.205C164.751 186.687 164.377 185.854 164.13 185.351C163.882 184.848 163.256 184.17 162.751 183.855C162.246 183.541 161.639 183.681 161.406 184.17C161.173 184.659 160.77 185.419 160.507 185.85C160.245 186.28 159.91 187.031 159.765 187.519C159.619 188.008 159.405 188.812 159.289 189.31C159.172 189.809 158.934 190.607 158.755 191.091C158.575 191.575 158.221 192.369 157.963 192.853C157.706 193.337 157.521 194.165 157.55 194.692C157.58 195.22 157.468 196.067 157.308 196.575C157.147 197.083 157.177 197.93 157.381 198.463C157.584 198.995 157.643 199.847 157.512 200.36C157.381 200.873 157.361 201.715 157.463 202.233C157.565 202.751 157.633 203.583 157.614 204.082C157.594 204.581 157.623 205.394 157.672 205.887C157.72 206.381 157.886 207.175 158.036 207.654C158.187 208.133 158.245 208.956 158.177 209.488C158.109 210.021 158.25 210.824 158.492 211.274C158.735 211.724 159.119 212.455 159.342 212.905C159.566 213.356 160.036 214.014 160.381 214.377C160.726 214.74 161.26 215.345 161.561 215.722C161.862 216.1 162.435 216.627 162.838 216.898C163.241 217.169 163.926 217.552 164.358 217.755C164.79 217.958 165.513 218.283 165.955 218.486C166.397 218.689 167.135 219.052 167.597 219.294C168.058 219.536 168.844 219.604 169.354 219.439C169.864 219.275 170.655 219.101 171.122 219.047C171.588 218.994 172.374 219.028 172.874 219.115C173.375 219.202 174.171 219.207 174.652 219.115C175.132 219.023 175.861 218.718 176.264 218.438C176.667 218.157 177.395 217.818 177.876 217.692C178.356 217.566 179.06 217.213 179.444 216.913C179.828 216.613 180.43 216.095 180.779 215.761C181.129 215.427 181.677 214.861 181.993 214.498C182.309 214.135 182.852 213.598 183.202 213.297C183.552 212.997 184.154 212.867 184.547 213.007C184.94 213.147 185.028 213.685 184.746 214.207C184.465 214.73 184.028 215.514 183.775 215.955C183.523 216.395 183.022 217.053 182.658 217.416C182.294 217.779 181.721 218.384 181.381 218.752C181.041 219.12 180.478 219.72 180.133 220.078C179.789 220.437 179.23 221.042 178.905 221.414C178.58 221.787 178.08 222.464 177.803 222.905C177.526 223.345 176.982 223.984 176.599 224.318C176.215 224.652 175.526 225.122 175.074 225.364C174.622 225.606 173.875 225.978 173.413 226.191C172.952 226.404 172.229 226.816 171.806 227.101C171.384 227.387 170.621 227.692 170.112 227.779C169.602 227.866 168.83 228.171 168.388 228.461C167.946 228.752 167.179 229.037 166.669 229.1C166.159 229.163 165.334 229.265 164.834 229.318C164.334 229.371 163.503 229.391 162.998 229.366C162.493 229.342 161.668 229.449 161.173 229.613L161.153 229.642Z" fill="white"/>
<path d="M215.588 224.473C215.088 224.638 214.263 224.613 213.748 224.425C213.233 224.236 212.374 224.265 211.84 224.492C211.306 224.72 210.451 224.759 209.946 224.584C209.441 224.41 208.592 224.27 208.053 224.275C207.514 224.279 206.683 224.1 206.203 223.873C205.722 223.645 204.926 223.311 204.44 223.128C203.955 222.944 203.158 222.634 202.673 222.445C202.187 222.256 201.405 221.913 200.934 221.685C200.463 221.458 199.774 220.964 199.405 220.582C199.036 220.199 198.414 219.614 198.021 219.285C197.628 218.955 196.924 218.476 196.462 218.22C196.001 217.963 195.453 217.344 195.244 216.845C195.035 216.347 194.496 215.693 194.044 215.388C193.593 215.083 193.136 214.401 193.039 213.864C192.942 213.326 192.544 212.581 192.156 212.199C191.767 211.816 191.282 211.119 191.078 210.64C190.874 210.161 190.626 209.353 190.534 208.84C190.442 208.327 190.213 207.509 190.024 207.02C189.835 206.531 189.674 205.703 189.67 205.181C189.665 204.658 189.621 203.811 189.577 203.298C189.534 202.785 189.451 201.943 189.398 201.43C189.344 200.917 189.446 200.079 189.626 199.571C189.806 199.063 190.01 198.24 190.082 197.742C190.155 197.243 190.165 196.396 190.107 195.868C190.048 195.341 190.107 194.494 190.233 193.995C190.359 193.497 190.636 192.698 190.84 192.219C191.044 191.74 191.49 191.024 191.83 190.617C192.17 190.21 192.491 189.426 192.539 188.87C192.588 188.313 192.86 187.5 193.141 187.06C193.423 186.619 193.996 185.995 194.423 185.67C194.85 185.346 195.399 184.698 195.652 184.223C195.904 183.749 196.496 183.163 196.977 182.921C197.458 182.679 198.22 182.278 198.672 182.036C199.123 181.794 199.745 181.203 200.046 180.734C200.347 180.264 200.993 179.717 201.478 179.519C201.964 179.32 202.76 179.03 203.255 178.87C203.751 178.71 204.518 178.357 204.964 178.086C205.411 177.815 206.173 177.438 206.659 177.254C207.145 177.07 207.955 176.808 208.456 176.678C208.956 176.547 209.791 176.363 210.301 176.271C210.811 176.179 211.675 176.242 212.214 176.416C212.753 176.591 213.602 176.586 214.103 176.407C214.603 176.228 215.428 176.063 215.943 176.039C216.457 176.015 217.273 176.048 217.754 176.121C218.235 176.194 219.026 176.232 219.507 176.208C219.987 176.184 220.774 176.242 221.25 176.329C221.726 176.416 222.512 176.508 222.993 176.523C223.474 176.537 224.246 176.682 224.707 176.837C225.168 176.992 225.95 177.118 226.44 177.113C226.931 177.108 227.717 177.205 228.188 177.331C228.659 177.457 229.397 177.718 229.839 177.922C230.281 178.125 231.043 178.357 231.539 178.439C232.034 178.522 232.714 178.904 233.054 179.282C233.393 179.659 234.039 180.129 234.5 180.322C234.962 180.516 235.632 180.947 236.001 181.281C236.37 181.614 236.729 182.311 236.807 182.829C236.885 183.347 237.239 184.078 237.603 184.456C237.967 184.833 238.113 185.545 237.933 186.038C237.754 186.532 237.608 187.326 237.603 187.79C237.598 188.255 237.637 189.068 237.681 189.591C237.725 190.114 237.574 190.903 237.336 191.353C237.098 191.803 236.622 192.466 236.278 192.829C235.933 193.192 235.311 193.719 234.899 193.99C234.486 194.262 233.811 194.707 233.403 194.978C232.995 195.249 232.262 195.52 231.772 195.578C231.281 195.636 230.5 195.685 230.029 195.689C229.558 195.694 228.752 195.665 228.232 195.631C227.713 195.597 226.887 195.452 226.392 195.307C225.897 195.162 225.11 194.823 224.644 194.547C224.178 194.271 223.522 193.69 223.192 193.25C222.862 192.81 222.371 192.059 222.1 191.58C221.828 191.101 221.468 190.283 221.294 189.765C221.119 189.247 220.861 188.395 220.716 187.868C220.57 187.34 220.492 186.435 220.546 185.85C220.599 185.264 220.439 184.378 220.196 183.88C219.953 183.381 219.584 182.553 219.385 182.036C219.186 181.518 218.812 180.685 218.565 180.182C218.317 179.678 217.691 179.001 217.186 178.686C216.681 178.372 216.074 178.512 215.841 179.001C215.608 179.49 215.205 180.25 214.943 180.68C214.68 181.111 214.345 181.861 214.2 182.35C214.054 182.839 213.84 183.642 213.724 184.141C213.607 184.64 213.369 185.438 213.19 185.922C213.01 186.406 212.656 187.2 212.398 187.684C212.141 188.168 211.956 188.996 211.986 189.523C212.015 190.051 211.903 190.898 211.743 191.406C211.583 191.914 211.612 192.761 211.816 193.294C212.02 193.826 212.078 194.678 211.947 195.191C211.816 195.704 211.796 196.546 211.898 197.064C212 197.582 212.068 198.414 212.049 198.913C212.029 199.411 212.058 200.224 212.107 200.718C212.155 201.212 212.321 202.006 212.471 202.485C212.622 202.964 212.68 203.787 212.612 204.319C212.544 204.852 212.685 205.655 212.927 206.105C213.17 206.555 213.554 207.286 213.777 207.736C214.001 208.186 214.472 208.845 214.816 209.208C215.161 209.571 215.695 210.176 215.996 210.553C216.297 210.931 216.87 211.458 217.273 211.729C217.676 212 218.361 212.383 218.793 212.586C219.225 212.789 219.949 213.114 220.39 213.317C220.832 213.52 221.57 213.883 222.032 214.125C222.493 214.367 223.279 214.435 223.789 214.27C224.299 214.106 225.091 213.931 225.557 213.878C226.023 213.825 226.809 213.859 227.309 213.946C227.81 214.033 228.606 214.038 229.087 213.946C229.567 213.854 230.296 213.549 230.699 213.268C231.102 212.988 231.83 212.649 232.311 212.523C232.791 212.397 233.495 212.044 233.879 211.744C234.263 211.444 234.865 210.926 235.214 210.592C235.564 210.258 236.113 209.692 236.428 209.329C236.744 208.966 237.288 208.428 237.637 208.128C237.987 207.828 238.589 207.698 238.982 207.838C239.375 207.978 239.463 208.515 239.181 209.038C238.9 209.561 238.463 210.345 238.21 210.785C237.958 211.226 237.457 211.884 237.093 212.247C236.729 212.61 236.156 213.215 235.816 213.583C235.476 213.951 234.913 214.551 234.568 214.909C234.224 215.267 233.665 215.872 233.34 216.245C233.015 216.618 232.515 217.295 232.238 217.736C231.961 218.176 231.417 218.815 231.034 219.149C230.65 219.483 229.961 219.953 229.509 220.195C229.057 220.437 228.31 220.809 227.848 221.022C227.387 221.235 226.664 221.647 226.241 221.932C225.819 222.218 225.057 222.523 224.547 222.61C224.037 222.697 223.265 223.002 222.823 223.292C222.381 223.583 221.614 223.868 221.104 223.931C220.594 223.994 219.769 224.096 219.269 224.149C218.769 224.202 217.938 224.221 217.433 224.197C216.928 224.173 216.103 224.28 215.608 224.444L215.588 224.473Z" fill="white"/>
<path d="M246.513 224.885C246.586 224.275 246.994 223.428 247.416 222.997C247.839 222.566 247.96 221.724 247.683 221.124C247.406 220.524 247.372 219.623 247.605 219.125C247.839 218.626 247.941 217.775 247.824 217.237C247.707 216.7 247.756 215.829 247.931 215.311C248.106 214.793 248.271 213.927 248.31 213.399C248.348 212.872 248.358 212 248.339 211.463C248.319 210.926 248.266 210.06 248.222 209.527C248.178 208.995 248.285 208.143 248.45 207.635C248.615 207.126 248.766 206.294 248.771 205.786C248.776 205.278 248.611 204.45 248.397 203.951C248.183 203.453 248.198 202.616 248.426 202.093C248.654 201.57 248.577 200.747 248.246 200.268C247.916 199.789 247.819 198.952 248.028 198.405C248.237 197.858 248.096 197.059 247.717 196.624C247.338 196.188 246.858 195.481 246.644 195.06C246.43 194.639 246.052 193.962 245.799 193.56C245.547 193.158 244.969 192.814 244.517 192.8C244.066 192.785 243.435 192.689 243.109 192.587C242.784 192.485 242.444 192.113 242.342 191.764C242.24 191.416 242.556 190.898 243.041 190.612C243.527 190.327 244.367 190.128 244.916 190.167C245.464 190.206 246.294 190.094 246.765 189.925C247.236 189.756 247.911 189.286 248.276 188.875C248.64 188.463 249.3 187.96 249.752 187.752C250.203 187.544 250.951 187.239 251.427 187.079C251.903 186.919 252.728 186.764 253.267 186.745C253.806 186.726 254.491 186.285 254.787 185.767C255.083 185.249 255.675 184.625 256.103 184.378C256.53 184.131 257.326 183.885 257.86 183.831C258.394 183.778 259.128 183.405 259.482 182.994C259.836 182.583 260.575 182.239 261.118 182.224C261.662 182.21 262.522 182.128 263.022 182.05C263.522 181.973 264.231 181.513 264.585 181.034C264.94 180.555 265.673 180.153 266.212 180.143C266.751 180.133 267.46 180.414 267.79 180.763C268.12 181.111 268.552 181.798 268.751 182.282C268.95 182.766 269.178 183.584 269.266 184.093C269.353 184.601 269.446 185.433 269.48 185.942C269.513 186.45 269.547 187.287 269.552 187.795C269.557 188.303 269.276 189.136 268.926 189.649C268.576 190.162 268.45 190.966 268.659 191.45C268.868 191.934 269.043 192.718 269.062 193.202C269.081 193.686 269.009 194.47 268.907 194.949C268.805 195.428 268.775 196.217 268.834 196.696C268.892 197.175 268.877 197.964 268.8 198.448C268.722 198.932 268.698 199.716 268.756 200.2C268.814 200.684 268.756 201.473 268.635 201.952C268.513 202.432 268.542 203.303 268.703 203.884C268.863 204.464 269.004 205.413 269.013 205.989C269.023 206.565 268.984 207.518 268.926 208.099C268.868 208.68 268.984 209.542 269.188 210.016C269.392 210.49 269.368 211.27 269.14 211.749C268.911 212.228 268.882 213.002 269.081 213.472C269.28 213.941 269.494 214.706 269.567 215.175C269.64 215.645 269.46 216.439 269.174 216.942C268.887 217.445 268.955 218.21 269.329 218.641C269.703 219.072 269.8 219.861 269.543 220.393C269.285 220.925 269.242 221.758 269.436 222.242C269.63 222.726 270.164 223.408 270.621 223.757C271.077 224.105 271.655 224.715 271.907 225.117C272.16 225.519 272.606 226.148 272.912 226.52C273.218 226.893 273.772 227.435 274.155 227.726C274.539 228.016 274.869 228.505 274.893 228.81C274.918 229.115 274.495 229.255 273.951 229.124C273.408 228.994 272.543 228.824 272.029 228.747C271.514 228.669 270.669 228.616 270.15 228.626C269.63 228.636 268.785 228.694 268.266 228.747C267.746 228.8 266.896 228.945 266.372 229.071C265.848 229.197 264.998 229.323 264.483 229.347C263.969 229.371 263.114 229.439 262.594 229.492C262.075 229.546 261.225 229.57 260.71 229.546C260.196 229.521 259.346 229.492 258.831 229.483C258.317 229.473 257.472 229.202 256.952 228.892C256.433 228.582 255.593 228.418 255.078 228.534C254.563 228.65 253.723 228.737 253.209 228.728C252.694 228.718 251.849 228.674 251.334 228.626C250.82 228.578 249.975 228.636 249.465 228.752C248.955 228.868 248.115 229.144 247.61 229.366C247.105 229.589 246.265 229.744 245.746 229.715C245.226 229.686 244.265 229.628 243.595 229.589C242.925 229.55 242.328 229.173 242.264 228.752C242.201 228.331 242.633 227.731 243.226 227.421C243.818 227.111 244.78 226.666 245.353 226.429C245.925 226.191 246.455 225.499 246.528 224.889L246.513 224.885ZM247.013 168.566C247.076 168.062 247.372 167.283 247.673 166.833C247.974 166.383 247.999 165.56 247.732 165.004C247.465 164.447 247.523 163.663 247.868 163.266C248.212 162.869 248.591 162.129 248.713 161.62C248.834 161.112 249.285 160.459 249.713 160.168C250.14 159.878 250.8 159.379 251.174 159.07C251.548 158.76 252.175 158.266 252.558 157.971C252.942 157.676 253.607 157.226 254.029 156.969C254.452 156.713 255.214 156.509 255.729 156.519C256.243 156.529 257.04 156.475 257.506 156.403C257.972 156.33 258.734 156.093 259.205 155.87C259.676 155.648 260.439 155.711 260.905 156.006C261.371 156.301 262.196 156.417 262.735 156.267C263.274 156.117 263.988 156.364 264.313 156.824C264.639 157.284 265.357 157.714 265.906 157.782C266.455 157.85 267.207 158.213 267.576 158.581C267.945 158.949 268.382 159.65 268.552 160.139C268.722 160.628 269.076 161.403 269.339 161.862C269.601 162.322 269.766 163.126 269.708 163.643C269.649 164.161 269.572 165.037 269.528 165.579C269.484 166.122 269.373 167.017 269.276 167.564C269.178 168.111 268.717 168.851 268.246 169.205C267.775 169.558 267.105 170.144 266.746 170.507C266.387 170.87 265.872 171.581 265.6 172.089C265.328 172.598 264.731 173.251 264.27 173.546C263.808 173.841 263.022 174.243 262.522 174.446C262.021 174.65 261.123 174.853 260.526 174.901C259.929 174.95 259.152 175.429 258.797 175.961C258.443 176.494 257.749 177.147 257.258 177.404C256.768 177.66 255.889 177.936 255.306 178.009C254.724 178.081 253.869 178.531 253.413 178.996C252.956 179.461 252.383 179.63 252.136 179.369C251.888 179.107 251.553 178.522 251.383 178.076C251.213 177.631 250.635 177.065 250.101 176.818C249.567 176.571 249.018 175.976 248.882 175.492C248.747 175.008 248.567 174.204 248.484 173.716C248.402 173.227 248.11 172.472 247.848 172.036C247.586 171.6 247.261 170.85 247.13 170.361C246.999 169.873 246.945 169.069 247.008 168.566H247.013Z" fill="white"/>
<path d="M282.453 217.92C282.618 217.373 283.07 216.579 283.463 216.153C283.857 215.727 283.988 214.904 283.755 214.319C283.522 213.733 283.512 212.857 283.726 212.368C283.939 211.879 284.031 211.047 283.934 210.524C283.837 210.001 283.871 209.188 284.017 208.714C284.163 208.24 284.313 207.465 284.352 206.991C284.391 206.517 284.405 205.733 284.396 205.253C284.386 204.774 284.347 203.99 284.313 203.516C284.279 203.041 284.381 202.253 284.536 201.778C284.692 201.304 284.828 200.515 284.837 200.031C284.847 199.547 284.706 198.763 284.522 198.289C284.337 197.814 284.357 197.02 284.566 196.527C284.774 196.033 284.716 195.254 284.43 194.789C284.143 194.325 284.08 193.536 284.279 193.032C284.478 192.529 284.386 191.755 284.075 191.314C283.764 190.874 283.4 190.143 283.269 189.688C283.138 189.233 282.939 188.492 282.827 188.033C282.716 187.573 282.313 186.992 281.934 186.735C281.555 186.479 280.938 186.096 280.56 185.884C280.181 185.671 279.589 185.506 279.244 185.516C278.899 185.525 278.496 185.24 278.351 184.886C278.205 184.533 278.598 184.175 279.229 184.098C279.861 184.02 280.769 183.812 281.254 183.633C281.74 183.454 282.458 182.994 282.852 182.602C283.245 182.21 283.949 181.716 284.415 181.503C284.881 181.29 285.668 180.976 286.153 180.806C286.639 180.637 287.489 180.458 288.042 180.414C288.596 180.371 289.319 179.935 289.654 179.446C289.989 178.957 290.635 178.367 291.086 178.125C291.538 177.883 292.32 177.636 292.825 177.573C293.33 177.51 294.019 177.142 294.354 176.765C294.689 176.387 295.388 176.039 295.903 175.995C296.418 175.952 297.224 175.84 297.7 175.739C298.176 175.637 298.831 175.182 299.151 174.727C299.472 174.272 300.137 173.832 300.623 173.754C301.108 173.677 301.905 173.614 302.385 173.614C302.866 173.614 303.638 173.832 304.09 174.098C304.541 174.364 304.997 174.993 305.095 175.506C305.192 176.02 305.308 176.857 305.347 177.375C305.386 177.893 305.43 178.735 305.444 179.248C305.459 179.761 305.211 180.603 304.9 181.121C304.59 181.639 304.488 182.476 304.672 182.989C304.857 183.502 305.022 184.17 305.031 184.48C305.041 184.79 305.381 184.833 305.779 184.582C306.177 184.33 306.794 183.831 307.153 183.478C307.513 183.125 308.168 182.631 308.61 182.379C309.052 182.128 309.717 181.648 310.091 181.31C310.465 180.971 311.154 180.53 311.63 180.337C312.106 180.143 312.771 179.659 313.111 179.267C313.451 178.875 314.087 178.343 314.514 178.077C314.942 177.81 315.68 177.442 316.146 177.259C316.612 177.075 317.321 176.62 317.719 176.257C318.117 175.894 318.884 175.627 319.433 175.661C319.982 175.695 320.807 175.516 321.268 175.25C321.73 174.984 322.526 174.708 323.045 174.63C323.565 174.553 324.405 174.747 324.92 175.061C325.434 175.376 326.318 175.477 326.886 175.284C327.454 175.09 328.255 175.294 328.673 175.739C329.09 176.184 329.824 176.683 330.3 176.847C330.775 177.012 331.64 177.234 332.217 177.336C332.795 177.438 333.577 177.849 333.951 178.251C334.325 178.652 334.844 179.379 335.097 179.858C335.349 180.337 335.684 181.155 335.835 181.673C335.985 182.191 336.277 183.009 336.485 183.497C336.694 183.986 336.854 184.824 336.84 185.366C336.825 185.908 336.816 186.75 336.82 187.244C336.825 187.737 336.879 188.541 336.937 189.03C336.995 189.518 337.112 190.322 337.194 190.811C337.277 191.3 337.452 192.108 337.588 192.602C337.724 193.095 337.869 193.908 337.908 194.407C337.947 194.905 338.034 195.719 338.093 196.217C338.151 196.716 338.199 197.529 338.195 198.027C338.19 198.526 338.185 199.319 338.19 199.794C338.195 200.268 337.976 201.052 337.709 201.531C337.442 202.011 337.316 202.795 337.432 203.264C337.549 203.734 337.646 204.513 337.651 204.987C337.656 205.462 337.641 206.241 337.617 206.72C337.592 207.199 337.67 207.974 337.796 208.438C337.923 208.903 338.209 209.658 338.432 210.113C338.656 210.568 338.86 211.323 338.874 211.787C338.889 212.252 339.01 213.007 339.132 213.452C339.253 213.898 339.476 214.619 339.627 215.05C339.777 215.48 339.967 216.202 340.049 216.652C340.132 217.102 340.297 217.939 340.409 218.515C340.52 219.091 341.025 219.783 341.521 220.059C342.016 220.335 342.691 220.795 343.016 221.08C343.016 221.08 343.021 221.085 343.026 221.09C343.57 221.574 343.225 222.484 342.497 222.523C342.026 222.547 341.593 222.586 341.404 222.634C340.909 222.77 340.098 222.832 339.608 222.774C339.117 222.716 338.306 222.668 337.816 222.663C337.325 222.658 336.515 222.711 336.019 222.789C335.524 222.866 334.718 222.697 334.232 222.421C333.747 222.145 332.941 221.99 332.446 222.077C331.95 222.165 331.14 222.232 330.644 222.223C330.149 222.213 329.343 222.29 328.848 222.397C328.352 222.503 327.512 222.552 326.978 222.503C326.444 222.455 325.57 222.45 325.036 222.494C324.502 222.537 323.628 222.6 323.094 222.644C322.56 222.687 321.686 222.673 321.147 222.619C320.608 222.566 319.729 222.368 319.19 222.174C318.651 221.981 317.777 222.044 317.248 222.315C316.719 222.586 315.85 222.847 315.315 222.9C314.781 222.953 313.946 222.847 313.461 222.668C312.975 222.489 312.606 222.15 312.64 221.913C312.674 221.676 312.917 221.177 313.184 220.795C313.451 220.412 314.029 219.841 314.471 219.527C314.912 219.212 315.432 218.539 315.621 218.041C315.811 217.542 316.044 216.71 316.136 216.192C316.228 215.674 316.33 214.832 316.364 214.314C316.398 213.796 316.544 212.968 316.69 212.465C316.835 211.962 316.855 211.129 316.728 210.602C316.602 210.074 316.578 209.232 316.675 208.724C316.772 208.216 316.845 207.378 316.84 206.865C316.835 206.352 316.937 205.51 317.063 204.997C317.19 204.484 317.34 203.642 317.398 203.129C317.457 202.616 317.53 201.759 317.564 201.231C317.598 200.704 317.588 199.837 317.544 199.305C317.5 198.773 317.287 197.916 317.078 197.398C316.869 196.88 316.641 196.028 316.573 195.51C316.505 194.992 316.466 194.131 316.486 193.603C316.505 193.076 316.505 192.209 316.486 191.677C316.466 191.145 316.282 190.351 316.073 189.906C315.864 189.46 315.621 188.691 315.529 188.187C315.437 187.684 314.985 187.094 314.519 186.876C314.053 186.658 313.354 186.266 312.956 186.009C312.558 185.753 311.849 185.462 311.368 185.361C310.887 185.259 310.023 185.167 309.44 185.143C308.858 185.119 307.984 185.356 307.493 185.666C307.003 185.975 306.09 186.45 305.464 186.721C304.837 186.992 304.565 187.665 304.862 188.207C305.158 188.749 305.362 189.606 305.313 190.109C305.265 190.612 305.163 191.435 305.09 191.934C305.017 192.432 304.852 193.26 304.73 193.758C304.609 194.257 304.488 195.084 304.459 195.588C304.429 196.091 304.541 196.914 304.711 197.417C304.881 197.921 304.964 198.734 304.896 199.228C304.828 199.721 304.857 200.52 304.959 201.014C305.061 201.507 305.095 202.306 305.046 202.799C304.997 203.293 305.08 204.092 305.24 204.576C305.4 205.06 305.483 205.863 305.434 206.352C305.386 206.841 305.362 207.644 305.386 208.133C305.41 208.622 305.551 209.411 305.702 209.89C305.852 210.369 305.755 211.187 305.493 211.71C305.231 212.233 305.26 213.027 305.561 213.472C305.862 213.917 306.284 214.633 306.503 215.064C306.721 215.495 306.862 216.279 306.813 216.816C306.765 217.354 306.93 218.142 307.178 218.573C307.425 219.004 307.998 219.556 308.45 219.798C308.901 220.04 309.659 220.456 310.139 220.727C310.62 220.998 310.941 221.516 310.853 221.884C310.766 222.252 310.237 222.508 309.678 222.46C309.12 222.411 308.246 222.426 307.741 222.489C307.236 222.552 306.41 222.474 305.905 222.315C305.401 222.155 304.58 222.106 304.07 222.213C303.56 222.319 302.735 222.319 302.23 222.218C301.725 222.116 300.895 222.208 300.385 222.416C299.875 222.624 299.045 222.566 298.545 222.286C298.044 222.005 297.219 221.913 296.709 222.087C296.199 222.261 295.369 222.397 294.864 222.397C294.359 222.397 293.524 222.203 293.009 221.976C292.495 221.748 291.65 221.603 291.135 221.656C290.62 221.71 289.78 221.956 289.271 222.203C288.761 222.45 287.916 222.455 287.396 222.203C286.877 221.952 286.027 221.753 285.512 221.748C284.998 221.743 284.158 221.908 283.648 222.116C283.138 222.324 282.303 222.508 281.788 222.523C281.274 222.537 280.317 222.571 279.657 222.6C278.996 222.629 278.613 222.377 278.802 222.053C278.991 221.729 279.54 221.279 280.026 221.056C280.511 220.834 281.186 220.262 281.526 219.783C281.866 219.304 282.283 218.467 282.444 217.92H282.453Z" fill="white"/>
<path d="M360.608 185.041C361.079 184.814 361.904 184.615 362.438 184.601C362.972 184.586 363.696 184.18 364.036 183.705C364.375 183.231 365.084 182.815 365.599 182.786C366.114 182.757 366.905 182.525 367.352 182.268C367.799 182.011 368.585 181.803 369.095 181.803C369.605 181.803 370.43 181.745 370.921 181.668C371.411 181.59 372.212 181.455 372.703 181.358C373.193 181.261 373.989 181.111 374.485 181.024C374.98 180.937 375.791 180.947 376.296 181.053C376.801 181.16 377.616 181.247 378.107 181.247C378.597 181.247 379.437 181.135 379.971 180.99C380.505 180.845 381.355 180.937 381.865 181.189C382.375 181.44 383.244 181.518 383.793 181.363C384.341 181.208 385.186 181.339 385.667 181.658C386.147 181.978 386.997 182.162 387.56 182.07C388.124 181.978 389.012 182.002 389.532 182.123C390.051 182.244 390.872 182.544 391.348 182.786C391.824 183.028 392.654 183.318 393.183 183.434C393.712 183.551 394.509 183.899 394.951 184.214C395.392 184.528 396.13 184.998 396.597 185.259C397.063 185.521 397.82 185.946 398.291 186.208C398.762 186.469 399.384 187.069 399.675 187.548C399.966 188.028 400.5 188.72 400.865 189.088C401.229 189.455 401.928 189.973 402.413 190.24C402.899 190.506 403.569 191.067 403.894 191.488C404.22 191.909 404.681 192.645 404.924 193.119C405.166 193.594 405.424 194.426 405.497 194.968C405.57 195.51 405.987 196.28 406.424 196.672C406.861 197.064 407.347 197.809 407.507 198.322C407.667 198.835 407.745 199.707 407.682 200.258C407.619 200.81 407.754 201.677 407.983 202.185C408.211 202.693 408.264 203.545 408.109 204.082C407.954 204.619 407.725 205.447 407.604 205.931C407.483 206.415 407.551 207.238 407.754 207.761C407.958 208.283 407.978 209.101 407.793 209.576C407.609 210.05 407.279 210.805 407.055 211.255C406.832 211.705 406.579 212.484 406.497 212.983C406.414 213.481 406.181 214.275 405.987 214.74C405.793 215.205 405.419 215.94 405.162 216.371C404.904 216.802 404.448 217.489 404.147 217.896C403.846 218.302 403.156 218.786 402.617 218.975C402.078 219.164 401.452 219.696 401.229 220.161C401.005 220.625 400.525 221.284 400.165 221.622C399.806 221.961 399.151 222.436 398.709 222.678C398.267 222.92 397.602 223.375 397.223 223.699C396.844 224.023 396.16 224.444 395.703 224.643C395.247 224.841 394.533 225.223 394.115 225.49C393.698 225.756 392.935 226.08 392.416 226.206C391.896 226.332 391.105 226.68 390.658 226.985C390.212 227.29 389.435 227.677 388.93 227.847C388.425 228.016 387.585 228.224 387.06 228.316C386.536 228.408 385.71 228.694 385.22 228.96C384.73 229.226 383.88 229.352 383.322 229.245C382.763 229.139 381.894 229.207 381.379 229.4C380.865 229.594 380.005 229.797 379.471 229.85C378.937 229.904 378.082 229.72 377.582 229.444C377.082 229.168 376.237 229.124 375.713 229.347C375.189 229.57 374.368 229.478 373.892 229.149C373.416 228.82 372.61 228.524 372.105 228.495C371.6 228.466 370.741 228.553 370.197 228.684C369.653 228.815 368.799 228.815 368.299 228.684C367.799 228.553 367.002 228.287 366.522 228.094C366.041 227.9 365.279 227.542 364.817 227.305C364.356 227.067 363.584 226.743 363.094 226.593C362.603 226.443 361.87 226.056 361.457 225.736C361.045 225.417 360.374 224.914 359.962 224.623C359.549 224.333 358.86 223.883 358.432 223.626C358.005 223.37 357.286 222.939 356.84 222.668C356.393 222.397 355.65 221.961 355.184 221.695C354.718 221.429 354.019 220.921 353.63 220.558C353.242 220.195 352.62 219.59 352.246 219.202C351.872 218.815 351.334 218.133 351.047 217.683C350.761 217.232 350.328 216.473 350.086 215.998C349.843 215.524 349.668 214.662 349.707 214.082C349.746 213.501 349.576 212.649 349.343 212.184C349.11 211.72 348.838 210.926 348.746 210.413C348.653 209.9 348.566 209.067 348.551 208.549C348.537 208.032 348.44 207.189 348.338 206.676C348.236 206.163 348.027 205.311 347.881 204.789C347.736 204.266 347.692 203.409 347.789 202.891C347.886 202.374 348.022 201.522 348.085 200.999C348.148 200.476 348.299 199.624 348.42 199.107C348.542 198.589 348.862 197.795 349.139 197.335C349.416 196.875 349.979 196.202 350.392 195.835C350.804 195.467 351.285 194.76 351.455 194.266C351.625 193.773 352.101 193.1 352.513 192.771C352.926 192.442 353.368 191.701 353.489 191.13C353.611 190.559 354.096 189.867 354.562 189.591C355.029 189.315 355.66 188.739 355.975 188.299C356.291 187.858 356.908 187.277 357.354 186.997C357.801 186.716 358.525 186.256 358.962 185.966C359.399 185.675 360.141 185.259 360.612 185.032L360.608 185.041ZM377.874 183.526C377.412 183.415 376.602 183.401 376.072 183.502C375.543 183.604 375.033 184.16 374.931 184.741C374.829 185.322 374.446 186.077 374.072 186.416C373.698 186.755 373.319 187.442 373.227 187.936C373.135 188.429 372.834 189.184 372.557 189.61C372.28 190.036 371.931 190.767 371.775 191.241C371.62 191.716 371.43 192.505 371.343 192.994C371.256 193.482 371.149 194.291 371.105 194.784C371.061 195.278 370.858 196.077 370.658 196.556C370.459 197.035 370.251 197.834 370.192 198.332C370.134 198.831 370.197 199.653 370.328 200.157C370.459 200.66 370.387 201.483 370.168 201.982C369.95 202.48 369.959 203.288 370.192 203.782C370.425 204.276 370.45 205.094 370.241 205.597C370.032 206.1 370.071 206.909 370.328 207.388C370.586 207.867 370.858 208.656 370.935 209.145C371.013 209.634 371.081 210.437 371.081 210.931C371.081 211.424 371.236 212.218 371.421 212.683C371.605 213.147 371.775 213.936 371.804 214.435C371.833 214.933 371.965 215.727 372.101 216.202C372.236 216.676 372.518 217.431 372.722 217.876C372.926 218.322 373.101 219.125 373.115 219.657C373.13 220.19 373.31 220.998 373.518 221.458C373.727 221.918 374.247 222.552 374.669 222.876C375.092 223.2 375.694 223.767 375.999 224.139C376.305 224.512 376.83 225.112 377.16 225.475C377.49 225.838 378.262 226.419 379.34 226.298C379.947 226.23 380.617 225.523 380.908 225.151C381.2 224.778 381.753 224.183 382.137 223.829C382.52 223.476 382.87 222.76 382.909 222.237C382.948 221.714 383.244 220.94 383.564 220.519C383.885 220.098 384.336 219.372 384.56 218.907C384.783 218.443 384.837 217.61 384.676 217.063C384.516 216.516 384.506 215.674 384.662 215.195C384.817 214.716 385.055 213.917 385.191 213.428C385.327 212.939 385.385 212.117 385.312 211.608C385.24 211.1 385.172 210.273 385.162 209.769C385.152 209.266 385.138 208.448 385.138 207.949C385.138 207.451 385.138 206.642 385.133 206.154C385.128 205.665 385.346 204.861 385.613 204.358C385.88 203.855 385.934 203.056 385.735 202.577C385.536 202.098 385.312 201.309 385.249 200.825C385.186 200.341 385.138 199.537 385.152 199.044C385.167 198.55 385.06 197.756 384.924 197.282C384.788 196.807 384.642 196.019 384.603 195.525C384.565 195.031 384.39 194.252 384.22 193.787C384.05 193.323 383.87 192.539 383.812 192.04C383.754 191.542 383.472 190.796 383.176 190.38C382.88 189.964 382.462 189.272 382.249 188.831C382.035 188.391 381.69 187.674 381.481 187.229C381.273 186.784 380.758 186.193 380.335 185.913C379.913 185.632 379.379 185.032 379.146 184.572C378.913 184.112 378.34 183.647 377.879 183.531L377.874 183.526Z" fill="white"/>
</svg>
