<svg width="548" height="318" viewBox="0 0 548 318" fill="none" xmlns="http://www.w3.org/2000/svg">
<rect y="0.137695" width="548" height="317.695" rx="14" fill="#1D1E20"/>
<g clip-path="url(#clip0_5541_2886)">
<path d="M242.931 205.663H239.87V190.471H242.931V205.663Z" fill="white"/>
<path d="M263.138 205.663H260.459L251.948 194.514V205.663H249.008V190.471H252.164L260.198 201.114V190.471H263.138V205.663Z" fill="white"/>
<path d="M269.806 200.986C271.002 202.635 272.794 203.588 274.754 203.588C276.714 203.588 278.148 202.806 278.148 201.345C278.148 199.8 276.353 199.59 273.795 199.039C271.212 198.488 268.437 197.813 268.437 194.849C268.437 191.886 271.164 190.237 274.63 190.237C277.57 190.237 279.868 191.463 281.016 193.051L278.767 194.764C277.811 193.453 276.542 192.543 274.534 192.543C272.694 192.543 271.425 193.367 271.425 194.575C271.425 195.908 272.739 196.182 275.06 196.648C277.835 197.198 281.157 197.77 281.157 201.069C281.157 204.05 278.193 205.891 274.654 205.891C271.714 205.891 268.794 204.644 267.457 202.696L269.799 200.983H269.806V200.986Z" fill="white"/>
<path d="M293.093 192.841V205.663H290.032V192.841H284.51V190.471H298.619V192.841H293.093Z" fill="white"/>
<path d="M306.484 205.663H303.424V190.471H310.288C314.115 190.471 316.505 192.059 316.505 195.126C316.505 197.518 315.023 199.039 312.512 199.568L316.935 205.663H313.444L309.259 199.781H306.484V205.663ZM310.116 197.454C312.316 197.454 313.486 196.608 313.486 195.126C313.486 193.644 312.313 192.798 310.116 192.798H306.481V197.454H310.116Z" fill="white"/>
<path d="M321.595 199.632V190.471H324.655V199.547C324.655 202.319 326.21 203.481 328.507 203.481C330.804 203.481 332.379 202.319 332.379 199.547V190.471H335.44V199.632C335.44 203.822 332.616 205.873 328.507 205.873C324.398 205.873 321.595 203.822 321.595 199.632Z" fill="white"/>
<path d="M348.586 205.663L344.092 193.921V205.663H341.248V190.471H345.457L349.879 202.106L354.302 190.471H358.415V205.663H355.571V193.921L351.076 205.663H348.586Z" fill="white"/>
<path d="M376.107 190.474V192.844H367.5V196.653H374.745V199.024H367.5V203.299H376.107V205.669H364.487V190.477H376.107V190.474Z" fill="white"/>
<path d="M395.643 205.663H392.964L384.453 194.514V205.663H381.513V190.471H384.67L392.703 201.114V190.471H395.643V205.663Z" fill="white"/>
<path d="M409.031 192.841V205.663H405.97V192.841H400.448V190.471H414.557V192.841H409.031Z" fill="white"/>
<path d="M419.358 200.986C420.555 202.635 422.346 203.588 424.306 203.588C426.267 203.588 427.701 202.806 427.701 201.345C427.701 199.8 425.905 199.59 423.347 199.039C420.764 198.488 417.989 197.813 417.989 194.849C417.989 191.886 420.716 190.237 424.183 190.237C427.123 190.237 429.42 191.463 430.569 193.051L428.32 194.764C427.364 193.453 426.095 192.543 424.086 192.543C422.247 192.543 420.978 193.367 420.978 194.575C420.978 195.908 422.291 196.182 424.612 196.648C427.388 197.198 430.71 197.77 430.71 201.069C430.71 204.05 427.745 205.891 424.207 205.891C421.266 205.891 418.347 204.644 417.009 202.696L419.351 200.983H419.358V200.986Z" fill="white"/>
<path d="M240.142 163.698V130.609C240.142 120.538 246.139 114.784 257.112 114.784C268.086 114.784 274.083 120.538 274.083 130.609V163.698C274.083 173.769 268.086 179.523 257.112 179.523C246.139 179.523 240.142 173.769 240.142 163.698ZM262.907 164.328V129.979C262.907 125.482 260.672 123.775 257.116 123.775C253.56 123.775 251.325 125.482 251.325 129.979V164.328C251.325 168.825 253.56 170.532 257.116 170.532C260.672 170.532 262.907 168.825 262.907 164.328Z" fill="white"/>
<path d="M293.595 115.682H310.057C321.237 115.682 326.722 121.168 326.722 131.236V137.44C326.722 147.511 321.233 152.994 310.057 152.994H304.771V178.62H293.592V115.682H293.595ZM310.06 144.006C313.616 144.006 315.549 142.567 315.549 138.073V130.609C315.549 126.112 313.62 124.676 310.06 124.676H304.775V144.009H310.06V144.006Z" fill="white"/>
<path d="M344.408 163.698V115.682H355.587V164.416C355.587 168.914 357.723 170.532 361.279 170.532C364.834 170.532 366.97 168.914 366.97 164.416V115.682H377.74V163.698C377.74 173.77 372.049 179.523 361.076 179.523C350.102 179.523 344.411 173.77 344.411 163.698H344.408Z" fill="white"/>
<path d="M412.682 179.557C409.474 179.557 406.265 178.842 403.466 177.415C398.366 174.813 395.44 170.201 395.44 164.766V160.793H405.756V164.766C405.756 166.945 406.719 168.539 408.621 169.507C410.983 170.712 414.412 170.709 416.778 169.495C418.711 168.503 419.691 166.866 419.687 164.629C419.687 163.698 419.701 162.798 419.715 161.924C419.773 158.501 419.832 154.963 418.532 153.801C417.111 152.513 414.199 151.582 411.382 150.682C407.5 149.44 403.098 148.035 399.983 145.047C395.443 140.696 395.443 136.679 395.443 131.123V130.192C395.433 124.697 398.366 120.039 403.497 117.41C409.109 114.535 416.362 114.529 421.977 117.392C427.077 119.993 430.004 124.606 430.004 130.04V134.014H419.687V130.04C419.687 127.862 418.724 126.267 416.823 125.3C414.46 124.095 411.032 124.101 408.666 125.312C406.733 126.304 405.753 127.941 405.756 130.177V131.123C405.756 136.296 405.88 137.242 407.562 138.855C408.972 140.206 411.977 141.167 414.887 142.095C418.614 143.285 422.844 144.636 425.894 147.405C430.21 151.275 430.117 156.758 430.028 162.061C430.014 162.895 430 163.759 430 164.614C430.011 170.109 427.074 174.768 421.943 177.397C419.13 178.839 415.904 179.557 412.682 179.557Z" fill="white"/>
<path d="M167.703 228.878C163.968 229.849 160.103 230.336 156.282 230.336C137.702 230.336 118.004 218.847 118.004 195.874V121.405C118.004 98.4357 137.702 86.9465 156.282 86.9465C160.103 86.9465 163.968 87.4334 167.703 88.404C153.435 92.113 141.12 102.911 140.845 120.799V120.869C140.838 121.046 140.835 121.225 140.835 121.405V195.874C140.835 196.054 140.838 196.233 140.845 196.41V196.48C141.12 214.368 153.435 225.169 167.703 228.878Z" fill="#3FA1D8"/>
<path d="M194.557 121.405V196.48C194.264 205.766 187.232 210.135 179.123 210.135C174.684 210.135 170.564 208.827 167.703 206.116C170.186 203.77 171.73 200.377 171.73 195.874V121.405C171.73 116.902 170.186 113.506 167.703 111.163C170.567 108.455 174.684 107.147 179.123 107.147C187.232 107.147 194.264 111.516 194.557 120.799V121.405Z" fill="#3FA1D8"/>
<path d="M217.394 121.405V195.874C217.394 218.847 197.696 230.336 179.12 230.336C175.303 230.336 171.437 229.849 167.703 228.878C181.964 225.169 194.278 214.368 194.553 196.48V196.41C194.56 196.233 194.564 196.054 194.564 195.874V121.405C194.564 121.225 194.564 121.046 194.553 120.869V120.799C194.278 102.915 181.964 92.113 167.703 88.404C171.437 87.4334 175.303 86.9465 179.12 86.9465C197.696 86.9465 217.394 98.4357 217.394 121.405Z" fill="#C5C9C9"/>
<path d="M163.672 195.874C163.672 200.377 165.216 203.77 167.699 206.116C164.838 208.827 160.722 210.135 156.282 210.135C148.173 210.135 141.138 205.766 140.845 196.48V196.41C140.842 196.233 140.842 196.054 140.842 195.874V121.405C140.842 121.225 140.842 121.046 140.845 120.869V120.799C141.138 111.516 148.173 107.147 156.282 107.147C160.718 107.147 164.835 108.455 167.699 111.163C165.216 113.506 163.672 116.902 163.672 121.405V195.874Z" fill="#C5C9C9"/>
<path d="M194.553 196.48C194.278 214.368 181.964 225.169 167.703 228.878C153.435 225.169 141.12 214.368 140.845 196.48C141.138 205.766 148.173 210.135 156.282 210.135C160.722 210.135 164.838 208.827 167.699 206.116C170.56 208.827 174.68 210.135 179.12 210.135C187.228 210.135 194.261 205.766 194.553 196.48Z" fill="#148CB6"/>
<path d="M194.553 120.8C194.261 111.516 187.228 107.147 179.12 107.147C174.68 107.147 170.564 108.456 167.699 111.164C164.835 108.456 160.718 107.147 156.282 107.147C148.173 107.147 141.138 111.516 140.845 120.8C141.12 102.912 153.435 92.1133 167.703 88.4043C181.964 92.1133 194.278 102.915 194.553 120.8Z" fill="#148CB6"/>
</g>
<defs>
<clipPath id="clip0_5541_2886">
<rect x="118" y="86.667" width="312" height="144.636" rx="14" fill="white"/>
</clipPath>
</defs>
</svg>
