<svg width="36" height="36" viewBox="0 0 36 36" fill="none" xmlns="http://www.w3.org/2000/svg">
<path d="M18.1055 7.14355C20.2305 7.14355 22.1289 7.58749 23.8008 8.47535C25.4727 9.36322 26.7696 10.5999 27.6915 12.1854C28.629 13.7708 29.0978 15.5624 29.0978 17.5601C29.0978 19.6212 28.6993 21.2384 27.9024 22.4116C27.1056 23.569 26.004 24.1477 24.5977 24.1477C23.8477 24.1477 23.2149 23.9733 22.6993 23.6245C22.1836 23.2599 21.8243 22.7446 21.6211 22.0787C20.6836 23.4581 19.2774 24.1477 17.4023 24.1477C16.3398 24.1477 15.3789 23.8941 14.5195 23.3867C13.6601 22.8635 12.9882 22.1421 12.5038 21.2225C12.0195 20.303 11.7773 19.2566 11.7773 18.0833C11.7773 16.9259 12.0195 15.8954 12.5038 14.9916C12.9882 14.0721 13.6601 13.3586 14.5195 12.8513C15.3789 12.328 16.3398 12.0664 17.4023 12.0664C18.2305 12.0664 18.9727 12.2091 19.6289 12.4945C20.3008 12.7799 20.8633 13.2001 21.3164 13.755V12.2091H23.918V20.295C23.918 20.8658 24.0274 21.278 24.2462 21.5317C24.4805 21.7854 24.7774 21.9122 25.1368 21.9122C25.7774 21.9122 26.2618 21.5476 26.5899 20.8182C26.9337 20.0731 27.1056 19.0029 27.1056 17.6077C27.1056 15.9271 26.7227 14.4447 25.9571 13.1604C25.2071 11.8762 24.1524 10.8773 22.793 10.1639C21.4336 9.45042 19.8711 9.09369 18.1055 9.09369C16.3242 9.09369 14.7461 9.4742 13.371 10.2352C11.996 10.9804 10.9335 12.0268 10.1835 13.3745C9.4335 14.7221 9.05849 16.2521 9.05849 17.9644C9.05849 19.7084 9.42569 21.2543 10.1601 22.6019C10.9101 23.9496 11.9648 24.996 13.3242 25.7411C14.6836 26.5022 16.2461 26.8827 18.0117 26.8827C18.7773 26.8827 19.5508 26.7955 20.3321 26.6211C21.1289 26.4467 21.8711 26.1851 22.5586 25.8363L23.1915 27.7388C22.504 28.1035 21.6914 28.3809 20.7539 28.5712C19.832 28.7615 18.918 28.8566 18.0117 28.8566C15.8242 28.8566 13.8867 28.3889 12.1992 27.4534C10.5273 26.518 9.22256 25.2259 8.28505 23.577C7.36316 21.9281 6.90222 20.0572 6.90222 17.9644C6.90222 15.9033 7.37098 14.0562 8.30849 12.4232C9.246 10.7743 10.5585 9.48213 12.246 8.5467C13.9492 7.61127 15.9023 7.14355 18.1055 7.14355ZM17.8945 21.8409C18.9102 21.8409 19.7383 21.5079 20.3789 20.842C21.0352 20.1603 21.3633 19.2407 21.3633 18.0833C21.3633 16.9418 21.0352 16.0381 20.3789 15.3722C19.7383 14.7063 18.9102 14.3733 17.8945 14.3733C16.8633 14.3733 16.0273 14.7142 15.3867 15.3959C14.7461 16.0618 14.4257 16.9576 14.4257 18.0833C14.4257 19.2248 14.7461 20.1365 15.3867 20.8182C16.0273 21.5 16.8633 21.8409 17.8945 21.8409Z" fill="#FF7F0B"/>
<path d="M6.375 1H29.625C32.5739 1 34.9998 3.45114 35 6.53809V29.4619C34.9998 32.5489 32.5739 35 29.625 35H6.375C3.42612 35 1.0002 32.5489 1 29.4619V6.53809L1.00684 6.25098C1.15191 3.30053 3.51815 1 6.375 1Z" stroke="#FF7F0B" stroke-width="2"/>
</svg>
