<svg width="36" height="36" viewBox="0 0 36 36" fill="none" xmlns="http://www.w3.org/2000/svg">
<path d="M26.8795 9.12052C21.9722 4.21315 14.0286 4.21236 9.12054 9.12052C4.21312 14.0279 4.21238 21.9714 9.12054 26.8795C14.0278 31.7869 21.9714 31.7876 26.8795 26.8795C31.7869 21.9721 31.7876 14.0286 26.8795 9.12052ZM26.3546 25.0894C25.7679 24.5648 25.1403 24.1005 24.4788 23.7004C24.916 22.19 25.1751 20.5279 25.2363 18.8002H28.9282C28.7613 21.129 27.8665 23.3136 26.3546 25.0894ZM7.07174 18.8002H10.7637C10.8249 20.5279 11.0839 22.19 11.5212 23.7004C10.8597 24.1005 10.2321 24.5648 9.64534 25.0894C8.13345 23.3136 7.23871 21.129 7.07174 18.8002ZM9.64539 10.9106C10.2321 11.4352 10.8597 11.8995 11.5212 12.2997C11.084 13.81 10.8249 15.4721 10.7637 17.1998H7.07174C7.23871 14.871 8.13345 12.6865 9.64539 10.9106ZM17.1998 12.4651C15.8947 12.3717 14.6363 12.0503 13.4697 11.52C14.1482 9.77283 15.399 7.67731 17.1998 7.158V12.4651ZM17.1998 14.0685V17.1998H12.3648C12.4202 15.7383 12.6273 14.3349 12.9717 13.0508C14.2974 13.6304 15.7232 13.9765 17.1998 14.0685ZM17.1998 18.8002V21.9315C15.7232 22.0236 14.2974 22.3697 12.9717 22.9492C12.6273 21.6651 12.4202 20.2617 12.3648 18.8002H17.1998ZM17.1998 23.535V28.842C15.3991 28.3227 14.1483 26.2274 13.4697 24.4801C14.6363 23.9498 15.8947 23.6283 17.1998 23.535ZM18.8002 23.535C20.1053 23.6283 21.3637 23.9498 22.5303 24.4801C21.8518 26.2273 20.6011 28.3227 18.8002 28.842V23.535ZM18.8002 21.9315V18.8002H23.6352C23.5798 20.2617 23.3727 21.6651 23.0283 22.9492C21.7026 22.3697 20.2768 22.0236 18.8002 21.9315ZM18.8002 17.1998V14.0685C20.2768 13.9765 21.7026 13.6304 23.0283 13.0508C23.3727 14.3349 23.5798 15.7383 23.6352 17.1998H18.8002ZM18.8002 12.4651V7.15805C20.6011 7.67736 21.8519 9.77288 22.5303 11.52C21.3637 12.0503 20.1053 12.3717 18.8002 12.4651ZM22.3946 7.95699C23.419 8.40556 24.3747 9.01379 25.2314 9.76847C24.8236 10.128 24.3933 10.454 23.944 10.7456C23.545 9.75763 23.0353 8.79755 22.3946 7.95699ZM12.056 10.7456C11.6067 10.454 11.1764 10.128 10.7686 9.76847C11.6253 9.01379 12.581 8.40556 13.6053 7.95699C12.9647 8.79765 12.455 9.75773 12.056 10.7456ZM12.056 25.2545C12.455 26.2424 12.9648 27.2025 13.6054 28.0431C12.581 27.5945 11.6254 26.9863 10.7687 26.2316C11.1764 25.8721 11.6067 25.5461 12.056 25.2545ZM23.944 25.2545C24.3933 25.5461 24.8236 25.8721 25.2314 26.2316C24.3747 26.9862 23.419 27.5945 22.3946 28.043C23.0352 27.2026 23.545 26.2424 23.944 25.2545ZM25.2363 17.1998C25.1751 15.4721 24.9161 13.81 24.4788 12.2997C25.1404 11.8996 25.7679 11.4353 26.3547 10.9106C27.8666 12.6865 28.7613 14.871 28.9283 17.1998H25.2363Z" fill="#FF7F0B"/>
<path d="M6.375 1H29.625C32.5739 1 34.9998 3.45114 35 6.53809V29.4619C34.9998 32.5489 32.5739 35 29.625 35H6.375C3.42612 35 1.0002 32.5489 1 29.4619V6.53809L1.00684 6.25098C1.15191 3.30053 3.51815 1 6.375 1Z" stroke="#FF7F0B" stroke-width="2"/>
</svg>
