<svg width="72" height="50" viewBox="0 0 72 50" fill="none" xmlns="http://www.w3.org/2000/svg">
<path d="M51.5648 39.4177C51.5163 36.4833 51.8258 33.16 52.0983 30.2279C52.2962 28.0998 52.4671 26.2624 52.4918 24.7711C52.5133 23.4692 52.5526 21.0465 50.7711 19.8835C49.7586 19.223 48.4714 19.2038 47.3265 19.8321C41.4276 23.0711 37.2887 22.7051 32.9649 21.7009C32.8287 13.9787 32.9126 6.71519 32.948 3.63734C32.9526 3.25836 32.9557 2.94153 32.9588 2.6853C32.9619 2.34391 32.6855 2.06543 32.3429 2.06543H28.1854C27.8475 2.06543 27.5734 2.33547 27.5695 2.67225C27.5672 2.92081 27.5634 3.22538 27.5595 3.57597C27.5256 6.5211 27.4494 13.131 27.5541 20.3791C24.4484 19.7094 20.98 19.2997 16.9257 20.0937C15.8017 20.3139 14.7138 20.6269 13.6668 21.0312C12.8954 17.4125 11.9492 13.783 10.9668 10.6814C10.5718 9.43324 9.44623 5.87975 8.21209 3.93807C8.01577 3.6289 7.5931 3.55756 7.30593 3.78617L4.0308 6.39682C3.79983 6.58094 3.73054 6.90238 3.86758 7.16321C4.25561 7.89892 4.94466 9.50536 5.8439 12.3531C6.89249 15.6741 7.89874 19.6357 8.67557 23.5091C8.69789 23.6203 8.72022 23.7316 8.74178 23.8421C6.90866 25.2851 5.32345 27.0603 4.02541 29.127C1.47783 33.1822 0.269097 38.0506 0.791085 42.1496C1.07441 44.372 1.87125 46.257 3.09615 47.601C4.46733 49.1054 6.28274 49.8918 8.36992 49.8918C8.53468 49.8918 8.70174 49.8872 8.87035 49.8772C10.2769 49.7951 12.8638 49.1461 14.3905 45.7269C15.4714 43.3057 15.8872 39.8542 15.6616 35.1753C15.5361 32.5808 15.2027 29.6103 14.6846 26.4328C15.6608 25.9709 16.7502 25.5996 17.9628 25.3618C21.5813 24.6537 24.6108 25.1723 27.6696 25.9149C27.6866 26.5026 27.7043 27.0894 27.7243 27.674C27.9121 33.2214 28.2193 37.7653 28.6374 41.1799C29.1732 45.5642 29.8546 48.0774 30.924 49.5074C31.1488 49.8081 31.593 49.8319 31.8555 49.5627L34.7927 46.5538C34.949 46.3935 35.0059 46.1618 34.9405 45.9486C34.7426 45.3049 34.3223 43.5957 33.8919 39.7123C33.5347 36.4948 33.2691 32.2962 33.102 27.226C34.7904 27.5651 36.555 27.7998 38.4574 27.7845C41.3152 27.7599 44.1484 27.1508 47.0486 25.9318C46.9732 27.1339 46.8423 28.5448 46.7322 29.7316C46.4466 32.8002 46.1232 36.2785 46.1763 39.5052C46.2387 43.3164 46.8169 46.0245 47.9863 47.9462C48.1742 48.2546 48.5846 48.3383 48.8771 48.1265L52.2654 45.6708C52.5079 45.4952 52.5865 45.1714 52.4548 44.9022C52.0699 44.1158 51.6164 42.5339 51.5648 39.4162V39.4177ZM9.45932 43.5619C9.04127 44.4879 8.71252 44.5071 8.55469 44.5163C7.72552 44.5654 7.3475 44.2777 7.08651 43.9908C6.6161 43.4745 6.27889 42.58 6.138 41.4729C5.7723 38.6076 6.71388 34.969 8.59396 31.9755C8.93271 31.4362 9.3346 30.8646 9.80577 30.2908C10.0467 32.1542 10.2069 33.9011 10.2823 35.4868C10.5033 40.1665 9.95744 42.461 9.46009 43.5619H9.45932Z" fill="#FF7F0B"/>
<path d="M64.5211 39.2996L67.8339 36.5386C68.0149 36.3875 68.0949 36.1466 68.0364 35.9187C67.7754 34.9022 67.198 31.4447 67.9725 21.9902C68.5507 14.9323 69.5885 7.41027 70.1459 3.36964C70.273 2.44981 70.3715 1.73558 70.437 1.22542C70.4808 0.883267 70.2337 0.5718 69.8896 0.536511L65.7522 0.111504C65.4203 0.0777485 65.1216 0.3125 65.0785 0.641612C65.0146 1.13106 64.9184 1.82918 64.8067 2.63776C64.2247 6.85945 63.1407 14.7175 62.5594 22.073C62.2314 26.2249 62.1106 29.6679 62.2014 32.3046C62.3146 35.6042 62.7519 37.7645 63.6026 39.1508C63.7982 39.4699 64.2339 39.5374 64.5219 39.2981L64.5211 39.2996Z" fill="#FF7F0B"/>
<path d="M51.9282 7.41028C49.8503 7.41028 48.1603 9.09496 48.1603 11.1648C48.1603 13.2346 49.851 14.9192 51.9282 14.9192C54.0054 14.9192 55.6961 13.2346 55.6961 11.1648C55.6961 9.09496 54.0054 7.41028 51.9282 7.41028Z" fill="#FF7F0B"/>
<path d="M67.8316 41.7952C65.7537 41.7952 64.0638 43.4799 64.0638 45.5497C64.0638 47.6195 65.7545 49.3041 67.8316 49.3041C69.9088 49.3041 71.5995 47.6195 71.5995 45.5497C71.5995 43.4799 69.9088 41.7952 67.8316 41.7952Z" fill="#FF7F0B"/>
</svg>
