<svg width="47" height="33" viewBox="0 0 47 33" fill="none" xmlns="http://www.w3.org/2000/svg">
<g style="mix-blend-mode:overlay">
<path d="M33.2394 25.6739C33.2077 23.7573 33.4099 21.5868 33.5879 19.6718C33.7171 18.2819 33.8287 17.0819 33.8448 16.1078C33.8589 15.2576 33.8845 13.6752 32.721 12.9156C32.0597 12.4842 31.219 12.4717 30.4713 12.8821C26.6186 14.9975 23.9154 14.7585 21.0914 14.1026C21.0024 9.05908 21.0572 4.31515 21.0804 2.30494C21.0834 2.05742 21.0854 1.85049 21.0874 1.68314C21.0894 1.46017 20.9089 1.27829 20.6851 1.27829H17.9698C17.7491 1.27829 17.5701 1.45466 17.5676 1.67462C17.5661 1.83696 17.5636 2.03588 17.561 2.26485C17.5389 4.18838 17.4891 8.50542 17.5575 13.2393C15.5291 12.8019 13.2638 12.5344 10.6159 13.0529C9.88177 13.1967 9.17126 13.4012 8.48741 13.6652C7.98357 11.3018 7.36559 8.93131 6.72397 6.90557C6.46602 6.09036 5.73087 3.7695 4.92483 2.50135C4.79661 2.29943 4.52055 2.25283 4.333 2.40214L2.19394 4.10721C2.04309 4.22746 1.99784 4.4374 2.08734 4.60776C2.34077 5.08826 2.79081 6.13746 3.37812 7.99735C4.06297 10.1664 4.72018 12.7538 5.22754 15.2836C5.24212 15.3563 5.2567 15.4289 5.27078 15.5011C4.07353 16.4435 3.0382 17.603 2.19042 18.9528C0.526545 21.6013 -0.262904 24.781 0.0780177 27.4581C0.263061 28.9096 0.783493 30.1407 1.5835 31.0185C2.47905 32.0011 3.66473 32.5147 5.02791 32.5147C5.13552 32.5147 5.24463 32.5117 5.35475 32.5051C6.27343 32.4515 7.96295 32.0277 8.96007 29.7945C9.66605 28.2132 9.93758 25.9589 9.79025 22.9031C9.70829 21.2085 9.49056 19.2684 9.15215 17.1931C9.78975 16.8915 10.5013 16.649 11.2932 16.4936C13.6565 16.0312 15.6352 16.3699 17.6329 16.8549C17.644 17.2387 17.6556 17.622 17.6686 18.0038C17.7913 21.6269 17.992 24.5946 18.265 26.8248C18.615 29.6883 19.06 31.3297 19.7584 32.2636C19.9053 32.4601 20.1954 32.4756 20.3669 32.2997L22.2852 30.3346C22.3872 30.2299 22.4244 30.0786 22.3817 29.9393C22.2525 29.5189 21.9779 28.4026 21.6968 25.8663C21.4635 23.7649 21.2901 21.0226 21.1809 17.7112C22.2837 17.9326 23.4362 18.086 24.6787 18.0759C26.5452 18.0599 28.3956 17.6621 30.2898 16.8659C30.2405 17.6511 30.155 18.5725 30.0831 19.3476C29.8966 21.3518 29.6854 23.6236 29.7201 25.731C29.7608 28.2202 30.1384 29.9889 30.9022 31.244C31.0249 31.4454 31.2929 31.5 31.484 31.3618L33.697 29.7579C33.8554 29.6432 33.9067 29.4317 33.8207 29.2558C33.5693 28.7423 33.2731 27.7091 33.2394 25.6728V25.6739ZM5.73942 28.3805C5.46638 28.9853 5.25167 28.9978 5.14859 29.0038C4.60704 29.0359 4.36015 28.848 4.18969 28.6606C3.88246 28.3234 3.66222 27.7392 3.5702 27.0162C3.33135 25.1447 3.94632 22.7683 5.17424 20.8132C5.39548 20.4609 5.65796 20.0877 5.9657 19.7129C6.12309 20.9299 6.22767 22.0708 6.27695 23.1065C6.42127 26.1629 6.06476 27.6615 5.73993 28.3805H5.73942Z" fill="#FAEFD0"/>
<path d="M41.7014 25.5967L43.8651 23.7934C43.9833 23.6947 44.0356 23.5374 43.9973 23.3886C43.8269 22.7247 43.4498 20.4665 43.9556 14.2915C44.3332 9.6819 45.0111 4.76912 45.3751 2.13009C45.4581 1.52933 45.5224 1.06286 45.5652 0.729661C45.5938 0.506193 45.4324 0.302768 45.2077 0.279719L42.5054 0.0021383C42.2887 -0.0199078 42.0936 0.133413 42.0655 0.348363C42.0237 0.668032 41.9609 1.12399 41.888 1.65209C41.5078 4.40936 40.7998 9.54161 40.4202 14.3457C40.206 17.0573 40.127 19.306 40.1864 21.0281C40.2603 23.1832 40.5459 24.5941 41.1015 25.4995C41.2292 25.7079 41.5138 25.752 41.7019 25.5957L41.7014 25.5967Z" fill="#FAEFD0"/>
<path d="M33.4767 4.76912C32.1196 4.76912 31.0159 5.86942 31.0159 7.22125C31.0159 8.57308 32.1201 9.67338 33.4767 9.67338C34.8334 9.67338 35.9376 8.57308 35.9376 7.22125C35.9376 5.86942 34.8334 4.76912 33.4767 4.76912Z" fill="#FAEFD0"/>
<path d="M43.8636 27.2266C42.5064 27.2266 41.4027 28.3269 41.4027 29.6787C41.4027 31.0306 42.5069 32.1309 43.8636 32.1309C45.2202 32.1309 46.3244 31.0306 46.3244 29.6787C46.3244 28.3269 45.2202 27.2266 43.8636 27.2266Z" fill="#FAEFD0"/>
</g>
</svg>
