<svg width="229" height="31" viewBox="0 0 229 31" fill="none" xmlns="http://www.w3.org/2000/svg">
<path d="M83.072 30.3001C82.8812 30.3001 82.6865 30.2881 82.4869 30.2636C81.0977 30.0942 80.0374 29.2397 79.5019 27.8573C78.2103 24.5238 80.1202 18.8544 81.001 16.5712C81.4945 15.2924 82.0529 14.0367 82.6627 12.826C81.8507 9.46058 80.9728 6.55648 80.6191 5.38595L80.241 4.12937C80.1816 3.93274 80.305 3.72824 80.5155 3.67273L82.6142 3.12262C82.8247 3.06757 83.0437 3.18231 83.1027 3.37894L83.4797 4.63182C83.7254 5.44563 84.2199 7.08067 84.7728 9.13117C85.9648 7.28563 87.2628 5.63486 88.6025 4.28344C92.0893 0.765842 95.7417 -0.625373 99.1641 0.258768C101.186 0.781572 102.653 1.8369 103.524 3.39606C105.807 7.4855 103.351 13.9831 101.183 19.7154C100.475 21.5896 99.8052 23.3598 99.4183 24.7769C98.9897 26.3472 99.0675 26.9222 99.1171 27.0916C99.2929 27.167 99.397 27.1443 99.4956 27.111C100.418 26.7992 101.528 24.9217 101.989 23.7512L102.364 22.7967C102.439 22.6052 102.666 22.5066 102.871 22.5765L104.917 23.2728C105.122 23.3427 105.228 23.555 105.153 23.747L104.781 24.7019C104.766 24.7422 104.388 25.7036 103.738 26.7575C102.771 28.3246 101.686 29.3211 100.512 29.7195C99.5164 30.0572 98.4889 29.9642 97.5391 29.4507C96.9837 29.1504 96.2901 28.5263 96.1385 27.2586C96.0598 26.5988 96.1321 25.7938 96.3595 24.7986C96.743 23.121 97.5381 21.0173 98.3799 18.7906C99.3529 16.2173 100.456 13.3007 101.038 10.6973C101.647 7.97314 101.597 5.94808 100.888 4.67855C100.407 3.81754 99.5838 3.24662 98.371 2.93293C96.7806 2.52163 94.1726 2.74926 90.7839 6.16784C88.98 7.98748 87.2505 10.4234 85.7869 13.1646C86.0233 14.1871 86.2502 15.241 86.4518 16.2945C87.7687 23.1636 87.568 27.2419 85.8211 29.1301C85.1082 29.9004 84.1659 30.2987 83.072 30.2987V30.3001ZM83.7046 17.7565C82.2154 21.7002 81.6629 25.2756 82.2971 26.913C82.5116 27.4673 82.7455 27.4959 82.8713 27.5112C83.3028 27.5635 83.449 27.4492 83.5718 27.3164C83.9395 26.919 84.9933 25.0786 83.7046 17.7565Z" fill="#D89C28"/>
<path d="M66.6309 29.3001V25.391L66.2586 24.5347V17.5354C66.2586 16.2944 65.8739 15.3264 65.1044 14.6315C64.3598 13.9365 63.2057 13.589 61.642 13.589C60.5748 13.589 59.5199 13.7628 58.4775 14.1102C57.4598 14.4329 56.5911 14.8797 55.8714 15.4505L53.7865 11.3924C54.8786 10.623 56.194 10.0273 57.7329 9.60538C59.2717 9.18344 60.8354 8.97247 62.4239 8.97247C65.4767 8.97247 67.8471 9.69226 69.5348 11.1318C71.2226 12.5714 72.0665 14.8176 72.0665 17.8705V29.3001H66.6309ZM60.5251 29.598C58.9615 29.598 57.6212 29.3374 56.5043 28.8161C55.3874 28.2701 54.5311 27.5379 53.9354 26.6196C53.3397 25.7012 53.0419 24.6712 53.0419 23.5295C53.0419 22.3381 53.3273 21.2956 53.8982 20.4021C54.4938 19.5086 55.4246 18.8136 56.6904 18.3172C57.9562 17.796 59.6068 17.5354 61.642 17.5354H66.9659V20.9233H62.2749C60.9098 20.9233 59.9667 21.1467 59.4455 21.5935C58.9491 22.0402 58.7009 22.5987 58.7009 23.2688C58.7009 24.0134 58.9863 24.6091 59.5571 25.0559C60.1528 25.4778 60.9595 25.6888 61.9771 25.6888C62.9451 25.6888 63.8138 25.4654 64.5832 25.0187C65.3526 24.5471 65.9111 23.8645 66.2586 22.971L67.1521 25.6516C66.7302 26.9422 65.9607 27.9226 64.8438 28.5928C63.7269 29.2629 62.2874 29.598 60.5251 29.598Z" fill="#1E4726"/>
<path d="M46.3564 29.5979C43.9985 29.5979 42.1618 29.0023 40.8464 27.8109C39.5309 26.5947 38.8732 24.7953 38.8732 22.4125V4.8399H44.6811V22.3381C44.6811 23.1819 44.9045 23.8397 45.3512 24.3113C45.798 24.758 46.4061 24.9814 47.1755 24.9814C48.0938 24.9814 48.8757 24.7332 49.521 24.2368L51.0847 28.3321C50.489 28.7541 49.7692 29.0767 48.9253 29.3001C48.1063 29.4987 47.25 29.5979 46.3564 29.5979ZM35.7831 14.1847V9.71705H49.6699V14.1847H35.7831Z" fill="#1E4726"/>
<path d="M26.9677 29.3001V9.2703H32.7756V29.3001H26.9677ZM29.8716 6.47804C28.8044 6.47804 27.9357 6.16779 27.2655 5.54729C26.5954 4.92679 26.2603 4.15737 26.2603 3.23902C26.2603 2.32068 26.5954 1.55126 27.2655 0.930755C27.9357 0.310252 28.8044 0 29.8716 0C30.9389 0 31.8076 0.297842 32.4777 0.893525C33.1479 1.46439 33.483 2.20899 33.483 3.12733C33.483 4.09532 33.1479 4.90197 32.4777 5.54729C31.8324 6.16779 30.9637 6.47804 29.8716 6.47804Z" fill="#1E4726"/>
<path d="M0 29.3001V3.23901H11.2807C13.6138 3.23901 15.6242 3.62373 17.312 4.39315C18.9998 5.13775 20.3028 6.21742 21.2212 7.63217C22.1395 9.04692 22.5987 10.7347 22.5987 12.6955C22.5987 14.6314 22.1395 16.3068 21.2212 17.7215C20.3028 19.1115 18.9998 20.1787 17.312 20.9233C15.6242 21.6679 13.6138 22.0402 11.2807 22.0402H3.35071L6.03128 19.3969V29.3001H0ZM16.5674 29.3001L10.0521 19.8437H16.493L23.0827 29.3001H16.5674ZM6.03128 20.067L3.35071 17.2375H10.9457C12.8072 17.2375 14.1971 16.8404 15.1154 16.0462C16.0338 15.2271 16.493 14.1102 16.493 12.6955C16.493 11.2559 16.0338 10.139 15.1154 9.34476C14.1971 8.55051 12.8072 8.15339 10.9457 8.15339H3.35071L6.03128 5.28667V20.067Z" fill="#1E4726"/>
<path d="M216.943 29.598C215.23 29.598 213.58 29.3994 211.991 29.0023C210.428 28.5803 209.187 28.0591 208.268 27.4386L210.204 23.2688C211.123 23.8397 212.202 24.3113 213.443 24.6836C214.709 25.0311 215.95 25.2048 217.166 25.2048C218.507 25.2048 219.45 25.0435 219.996 24.7208C220.567 24.3982 220.852 23.9514 220.852 23.3805C220.852 22.909 220.629 22.5615 220.182 22.3381C219.76 22.0899 219.189 21.9037 218.469 21.7796C217.75 21.6555 216.955 21.5314 216.087 21.4073C215.243 21.2832 214.387 21.1219 213.518 20.9233C212.649 20.7 211.855 20.3773 211.135 19.9554C210.415 19.5334 209.832 18.9626 209.385 18.2428C208.963 17.523 208.752 16.5922 208.752 15.4505C208.752 14.1847 209.112 13.0678 209.832 12.0998C210.577 11.1318 211.644 10.3748 213.034 9.82877C214.424 9.2579 216.087 8.97247 218.023 8.97247C219.388 8.97247 220.778 9.12139 222.193 9.41923C223.607 9.71708 224.786 10.1514 225.729 10.7223L223.793 14.8548C222.825 14.284 221.845 13.8993 220.852 13.7007C219.884 13.4773 218.941 13.3656 218.023 13.3656C216.732 13.3656 215.789 13.5394 215.193 13.8868C214.598 14.2343 214.3 14.6811 214.3 15.2271C214.3 15.7235 214.511 16.0958 214.933 16.344C215.379 16.5922 215.963 16.7908 216.682 16.9397C217.402 17.0886 218.184 17.2252 219.028 17.3493C219.897 17.4485 220.765 17.6099 221.634 17.8332C222.503 18.0566 223.285 18.3793 223.98 18.8012C224.699 19.1983 225.283 19.7568 225.729 20.4766C226.176 21.1715 226.4 22.0899 226.4 23.2316C226.4 24.4726 226.027 25.5771 225.283 26.5451C224.538 27.4883 223.458 28.2329 222.044 28.7789C220.654 29.3249 218.953 29.598 216.943 29.598Z" fill="#1E4726"/>
<path d="M195.339 29.598C193.205 29.598 191.306 29.1512 189.643 28.2577C188.005 27.3642 186.702 26.148 185.734 24.6091C184.791 23.0455 184.319 21.2708 184.319 19.2852C184.319 17.2748 184.791 15.5002 185.734 13.9613C186.702 12.3976 188.005 11.1815 189.643 10.3128C191.306 9.41923 193.205 8.97247 195.339 8.97247C197.449 8.97247 199.335 9.41923 200.998 10.3128C202.661 11.1815 203.964 12.3852 204.908 13.9241C205.851 15.4629 206.322 17.25 206.322 19.2852C206.322 21.2708 205.851 23.0455 204.908 24.6091C203.964 26.148 202.661 27.3642 200.998 28.2577C199.335 29.1512 197.449 29.598 195.339 29.598ZM195.339 24.8325C196.307 24.8325 197.176 24.6091 197.945 24.1624C198.715 23.7156 199.323 23.0827 199.77 22.2636C200.217 21.4197 200.44 20.4269 200.44 19.2852C200.44 18.1187 200.217 17.1259 199.77 16.3068C199.323 15.4877 198.715 14.8548 197.945 14.4081C197.176 13.9613 196.307 13.7379 195.339 13.7379C194.371 13.7379 193.503 13.9613 192.733 14.4081C191.964 14.8548 191.343 15.4877 190.872 16.3068C190.425 17.1259 190.202 18.1187 190.202 19.2852C190.202 20.4269 190.425 21.4197 190.872 22.2636C191.343 23.0827 191.964 23.7156 192.733 24.1624C193.503 24.6091 194.371 24.8325 195.339 24.8325Z" fill="#1E4726"/>
<path d="M178.438 29.5979C176.08 29.5979 174.243 29.0023 172.928 27.8109C171.613 26.5947 170.955 24.7953 170.955 22.4125V4.8399H176.763V22.3381C176.763 23.1819 176.986 23.8397 177.433 24.3113C177.88 24.758 178.488 24.9814 179.257 24.9814C180.175 24.9814 180.957 24.7332 181.603 24.2368L183.166 28.3321C182.571 28.7541 181.851 29.0767 181.007 29.3001C180.188 29.4987 179.332 29.5979 178.438 29.5979ZM167.865 14.1847V9.71705H181.752V14.1847H167.865Z" fill="#1E4726"/>
<path d="M159.555 29.3001V25.391L159.183 24.5347V17.5354C159.183 16.2944 158.798 15.3264 158.029 14.6315C157.284 13.9365 156.13 13.589 154.567 13.589C153.499 13.589 152.444 13.7628 151.402 14.1102C150.384 14.4329 149.516 14.8797 148.796 15.4505L146.711 11.3924C147.803 10.623 149.119 10.0273 150.657 9.60538C152.196 9.18344 153.76 8.97247 155.348 8.97247C158.401 8.97247 160.772 9.69226 162.459 11.1318C164.147 12.5714 164.991 14.8176 164.991 17.8705V29.3001H159.555ZM153.45 29.598C151.886 29.598 150.546 29.3374 149.429 28.8161C148.312 28.2701 147.456 27.5379 146.86 26.6196C146.264 25.7012 145.966 24.6712 145.966 23.5295C145.966 22.3381 146.252 21.2956 146.823 20.4021C147.418 19.5086 148.349 18.8136 149.615 18.3172C150.881 17.796 152.531 17.5354 154.567 17.5354H159.891V20.9233H155.2C153.834 20.9233 152.891 21.1467 152.37 21.5935C151.874 22.0402 151.625 22.5987 151.625 23.2688C151.625 24.0134 151.911 24.6091 152.482 25.0559C153.077 25.4778 153.884 25.6888 154.902 25.6888C155.87 25.6888 156.738 25.4654 157.508 25.0187C158.277 24.5471 158.836 23.8645 159.183 22.971L160.077 25.6516C159.655 26.9422 158.885 27.9226 157.768 28.5928C156.651 29.2629 155.212 29.598 153.45 29.598Z" fill="#1E4726"/>
<path d="M112.121 29.3001V3.23901H117.11L128.205 21.6307H125.561L136.47 3.23901H141.421L141.496 29.3001H135.837L135.8 11.9136H136.842L128.13 26.5451H125.412L116.514 11.9136H117.78V29.3001H112.121Z" fill="#1E4726"/>
</svg>
