<svg width="229" height="30" viewBox="0 0 229 30" fill="none" xmlns="http://www.w3.org/2000/svg">
<path d="M84.4272 29.3001C84.2487 29.3001 84.0664 29.2888 83.8795 29.2659C82.579 29.1074 81.5865 28.3074 81.0851 27.0132C79.876 23.8926 81.6639 18.5852 82.4886 16.4478C82.9505 15.2506 83.4732 14.0752 84.0441 12.9417C83.284 9.79121 82.4621 7.07253 82.131 5.97674L81.7771 4.8004C81.7214 4.61632 81.8369 4.42488 82.034 4.37291L83.9987 3.85793C84.1958 3.80639 84.4008 3.9138 84.456 4.09788L84.8089 5.27076C85.039 6.03261 85.5019 7.56325 86.0195 9.48283C87.1354 7.75512 88.3505 6.20976 89.6046 4.94462C92.8688 1.65163 96.288 0.34925 99.4919 1.17694C101.385 1.66636 102.758 2.6543 103.573 4.11391C105.711 7.94223 103.411 14.0249 101.382 19.3912C100.719 21.1458 100.092 22.8029 99.7298 24.1296C99.3287 25.5996 99.4015 26.1379 99.4478 26.2964C99.6125 26.367 99.7099 26.3458 99.8022 26.3146C100.666 26.0227 101.705 24.2651 102.136 23.1693L102.487 22.2758C102.558 22.0965 102.771 22.0042 102.963 22.0696L104.877 22.7215C105.07 22.7869 105.169 22.9857 105.099 23.1654L104.75 24.0594C104.736 24.0971 104.383 24.9971 103.774 25.9837C102.869 27.4507 101.853 28.3836 100.753 28.7565C99.8217 29.0727 98.8598 28.9857 97.9706 28.5049C97.4507 28.2238 96.8014 27.6395 96.6595 26.4528C96.5857 25.8352 96.6535 25.0815 96.8663 24.1499C97.2253 22.5794 97.9697 20.61 98.7577 18.5254C99.6686 16.1164 100.701 13.3861 101.246 10.9489C101.816 8.39873 101.769 6.50298 101.105 5.31451C100.656 4.50847 99.8848 3.97401 98.7494 3.68035C97.2606 3.29531 94.8191 3.50841 91.6467 6.70871C89.958 8.41216 88.3389 10.6925 86.9689 13.2587C87.1901 14.2159 87.4025 15.2026 87.5913 16.1888C88.8241 22.6193 88.6362 26.4372 87.0009 28.2047C86.3335 28.9259 85.4513 29.2988 84.4272 29.2988V29.3001ZM85.0195 17.5574C83.6253 21.2493 83.1082 24.5965 83.7019 26.1293C83.9027 26.6481 84.1216 26.675 84.2394 26.6893C84.6434 26.7382 84.7802 26.6312 84.8952 26.5069C85.2393 26.1349 86.2259 24.4119 85.0195 17.5574Z" fill="#FC7800"/>
<path d="M66.6309 29.3001V25.391L66.2586 24.5347V17.5354C66.2586 16.2944 65.8739 15.3264 65.1044 14.6315C64.3598 13.9365 63.2057 13.589 61.642 13.589C60.5748 13.589 59.5199 13.7628 58.4775 14.1102C57.4598 14.4329 56.5911 14.8797 55.8714 15.4505L53.7865 11.3924C54.8786 10.623 56.194 10.0273 57.7329 9.60538C59.2717 9.18344 60.8354 8.97247 62.4239 8.97247C65.4767 8.97247 67.8471 9.69226 69.5348 11.1318C71.2226 12.5714 72.0665 14.8176 72.0665 17.8705V29.3001H66.6309ZM60.5251 29.598C58.9615 29.598 57.6212 29.3374 56.5043 28.8161C55.3874 28.2701 54.5311 27.5379 53.9354 26.6196C53.3397 25.7012 53.0419 24.6712 53.0419 23.5295C53.0419 22.3381 53.3273 21.2956 53.8982 20.4021C54.4938 19.5086 55.4246 18.8136 56.6904 18.3172C57.9562 17.796 59.6068 17.5354 61.642 17.5354H66.9659V20.9233H62.2749C60.9098 20.9233 59.9667 21.1467 59.4455 21.5935C58.9491 22.0402 58.7009 22.5987 58.7009 23.2688C58.7009 24.0134 58.9863 24.6091 59.5571 25.0559C60.1528 25.4778 60.9595 25.6888 61.9771 25.6888C62.9451 25.6888 63.8138 25.4654 64.5832 25.0187C65.3526 24.5471 65.9111 23.8645 66.2586 22.971L67.1521 25.6516C66.7302 26.9422 65.9607 27.9226 64.8438 28.5928C63.7269 29.2629 62.2874 29.598 60.5251 29.598Z" fill="#1E4726"/>
<path d="M46.3564 29.5979C43.9985 29.5979 42.1618 29.0023 40.8464 27.8109C39.5309 26.5947 38.8732 24.7953 38.8732 22.4125V4.8399H44.6811V22.3381C44.6811 23.1819 44.9045 23.8397 45.3512 24.3113C45.798 24.758 46.4061 24.9814 47.1755 24.9814C48.0938 24.9814 48.8757 24.7332 49.521 24.2368L51.0847 28.3321C50.489 28.7541 49.7692 29.0767 48.9253 29.3001C48.1063 29.4987 47.25 29.5979 46.3564 29.5979ZM35.7831 14.1847V9.71705H49.6699V14.1847H35.7831Z" fill="#1E4726"/>
<path d="M26.9677 29.3001V9.2703H32.7756V29.3001H26.9677ZM29.8716 6.47804C28.8044 6.47804 27.9357 6.16779 27.2655 5.54729C26.5954 4.92679 26.2603 4.15737 26.2603 3.23902C26.2603 2.32068 26.5954 1.55126 27.2655 0.930755C27.9357 0.310252 28.8044 0 29.8716 0C30.9389 0 31.8076 0.297842 32.4777 0.893525C33.1479 1.46439 33.483 2.20899 33.483 3.12733C33.483 4.09532 33.1479 4.90197 32.4777 5.54729C31.8324 6.16779 30.9637 6.47804 29.8716 6.47804Z" fill="#1E4726"/>
<path d="M0 29.3001V3.23901H11.2807C13.6138 3.23901 15.6242 3.62373 17.312 4.39315C18.9998 5.13775 20.3028 6.21742 21.2212 7.63217C22.1395 9.04692 22.5987 10.7347 22.5987 12.6955C22.5987 14.6314 22.1395 16.3068 21.2212 17.7215C20.3028 19.1115 18.9998 20.1787 17.312 20.9233C15.6242 21.6679 13.6138 22.0402 11.2807 22.0402H3.35071L6.03128 19.3969V29.3001H0ZM16.5674 29.3001L10.0521 19.8437H16.493L23.0827 29.3001H16.5674ZM6.03128 20.067L3.35071 17.2375H10.9457C12.8072 17.2375 14.1971 16.8404 15.1154 16.0462C16.0338 15.2271 16.493 14.1102 16.493 12.6955C16.493 11.2559 16.0338 10.139 15.1154 9.34476C14.1971 8.55051 12.8072 8.15339 10.9457 8.15339H3.35071L6.03128 5.28667V20.067Z" fill="#1E4726"/>
<path d="M218.85 29.598C217.138 29.598 215.487 29.3994 213.899 29.0023C212.335 28.5803 211.094 28.0591 210.176 27.4386L212.112 23.2688C213.03 23.8397 214.11 24.3113 215.351 24.6836C216.616 25.0311 217.857 25.2048 219.074 25.2048C220.414 25.2048 221.357 25.0435 221.903 24.7208C222.474 24.3982 222.759 23.9514 222.759 23.3805C222.759 22.909 222.536 22.5615 222.089 22.3381C221.667 22.0899 221.096 21.9037 220.377 21.7796C219.657 21.6555 218.863 21.5314 217.994 21.4073C217.15 21.2832 216.294 21.1219 215.425 20.9233C214.556 20.7 213.762 20.3773 213.042 19.9554C212.323 19.5334 211.739 18.9626 211.293 18.2428C210.871 17.523 210.66 16.5922 210.66 15.4505C210.66 14.1847 211.02 13.0678 211.739 12.0998C212.484 11.1318 213.551 10.3748 214.941 9.82877C216.331 9.2579 217.994 8.97247 219.93 8.97247C221.295 8.97247 222.685 9.12139 224.1 9.41923C225.514 9.71708 226.693 10.1514 227.637 10.7223L225.701 14.8548C224.733 14.284 223.752 13.8993 222.759 13.7007C221.791 13.4773 220.848 13.3656 219.93 13.3656C218.639 13.3656 217.696 13.5394 217.1 13.8868C216.505 14.2343 216.207 14.6811 216.207 15.2271C216.207 15.7235 216.418 16.0958 216.84 16.344C217.287 16.5922 217.87 16.7908 218.59 16.9397C219.309 17.0886 220.091 17.2252 220.935 17.3493C221.804 17.4485 222.673 17.6099 223.541 17.8332C224.41 18.0566 225.192 18.3793 225.887 18.8012C226.607 19.1983 227.19 19.7568 227.637 20.4766C228.083 21.1715 228.307 22.0899 228.307 23.2316C228.307 24.4726 227.934 25.5771 227.19 26.5451C226.445 27.4883 225.366 28.2329 223.951 28.7789C222.561 29.3249 220.861 29.598 218.85 29.598Z" fill="#1E4726"/>
<path d="M197.247 29.598C195.112 29.598 193.213 29.1512 191.55 28.2577C189.912 27.3642 188.609 26.148 187.641 24.6091C186.698 23.0455 186.227 21.2708 186.227 19.2852C186.227 17.2748 186.698 15.5002 187.641 13.9613C188.609 12.3976 189.912 11.1815 191.55 10.3128C193.213 9.41923 195.112 8.97247 197.247 8.97247C199.356 8.97247 201.243 9.41923 202.906 10.3128C204.569 11.1815 205.872 12.3852 206.815 13.9241C207.758 15.4629 208.23 17.25 208.23 19.2852C208.23 21.2708 207.758 23.0455 206.815 24.6091C205.872 26.148 204.569 27.3642 202.906 28.2577C201.243 29.1512 199.356 29.598 197.247 29.598ZM197.247 24.8325C198.215 24.8325 199.083 24.6091 199.853 24.1624C200.622 23.7156 201.23 23.0827 201.677 22.2636C202.124 21.4197 202.347 20.4269 202.347 19.2852C202.347 18.1187 202.124 17.1259 201.677 16.3068C201.23 15.4877 200.622 14.8548 199.853 14.4081C199.083 13.9613 198.215 13.7379 197.247 13.7379C196.279 13.7379 195.41 13.9613 194.641 14.4081C193.871 14.8548 193.251 15.4877 192.779 16.3068C192.332 17.1259 192.109 18.1187 192.109 19.2852C192.109 20.4269 192.332 21.4197 192.779 22.2636C193.251 23.0827 193.871 23.7156 194.641 24.1624C195.41 24.6091 196.279 24.8325 197.247 24.8325Z" fill="#1E4726"/>
<path d="M180.345 29.5979C177.987 29.5979 176.151 29.0023 174.835 27.8109C173.52 26.5947 172.862 24.7953 172.862 22.4125V4.8399H178.67V22.3381C178.67 23.1819 178.893 23.8397 179.34 24.3113C179.787 24.758 180.395 24.9814 181.164 24.9814C182.083 24.9814 182.865 24.7332 183.51 24.2368L185.073 28.3321C184.478 28.7541 183.758 29.0767 182.914 29.3001C182.095 29.4987 181.239 29.5979 180.345 29.5979ZM169.772 14.1847V9.71705H183.659V14.1847H169.772Z" fill="#1E4726"/>
<path d="M161.463 29.3001V25.391L161.09 24.5347V17.5354C161.09 16.2944 160.706 15.3264 159.936 14.6315C159.192 13.9365 158.037 13.589 156.474 13.589C155.407 13.589 154.352 13.7628 153.309 14.1102C152.292 14.4329 151.423 14.8797 150.703 15.4505L148.618 11.3924C149.71 10.623 151.026 10.0273 152.565 9.60538C154.103 9.18344 155.667 8.97247 157.256 8.97247C160.309 8.97247 162.679 9.69226 164.367 11.1318C166.054 12.5714 166.898 14.8176 166.898 17.8705V29.3001H161.463ZM155.357 29.598C153.793 29.598 152.453 29.3374 151.336 28.8161C150.219 28.2701 149.363 27.5379 148.767 26.6196C148.171 25.7012 147.874 24.6712 147.874 23.5295C147.874 22.3381 148.159 21.2956 148.73 20.4021C149.326 19.5086 150.256 18.8136 151.522 18.3172C152.788 17.796 154.439 17.5354 156.474 17.5354H161.798V20.9233H157.107C155.742 20.9233 154.798 21.1467 154.277 21.5935C153.781 22.0402 153.533 22.5987 153.533 23.2688C153.533 24.0134 153.818 24.6091 154.389 25.0559C154.985 25.4778 155.791 25.6888 156.809 25.6888C157.777 25.6888 158.646 25.4654 159.415 25.0187C160.184 24.5471 160.743 23.8645 161.09 22.971L161.984 25.6516C161.562 26.9422 160.793 27.9226 159.676 28.5928C158.559 29.2629 157.119 29.598 155.357 29.598Z" fill="#1E4726"/>
<path d="M114.029 29.3001V3.23901H119.017L130.112 21.6307H127.469L138.377 3.23901H143.329L143.403 29.3001H137.744L137.707 11.9136H138.749L130.038 26.5451H127.32L118.422 11.9136H119.688V29.3001H114.029Z" fill="#1E4726"/>
</svg>
