<svg width="255" height="27" viewBox="0 0 255 27" fill="none" xmlns="http://www.w3.org/2000/svg">
<g clip-path="url(#clip0_5105_1888)">
<path d="M93.3311 27C93.1611 27 92.9876 26.9893 92.8097 26.9674C91.5718 26.8165 90.627 26.0551 90.1498 24.8232C88.9989 21.8528 90.7007 16.8008 91.4857 14.7663C91.9254 13.6268 92.4229 12.5079 92.9664 11.429C92.2428 8.43011 91.4605 5.84229 91.1453 4.79924L90.8085 3.67952C90.7555 3.5043 90.8654 3.32208 91.053 3.27261L92.9231 2.78242C93.1108 2.73336 93.3059 2.8356 93.3584 3.01081L93.6944 4.12724C93.9134 4.85243 94.3539 6.30939 94.8466 8.13657C95.9088 6.49203 97.0655 5.02105 98.2592 3.8168C101.366 0.682312 104.621 -0.557386 107.671 0.230463C109.473 0.696329 110.78 1.63672 111.556 3.02607C113.59 6.67013 111.402 12.4601 109.47 17.5681C108.838 19.2382 108.242 20.8155 107.897 22.0783C107.515 23.4776 107.585 23.99 107.629 24.1409C107.785 24.2081 107.878 24.1879 107.966 24.1582C108.788 23.8804 109.777 22.2074 110.187 21.1643L110.522 20.3138C110.589 20.1431 110.791 20.0553 110.974 20.1176L112.797 20.738C112.98 20.8003 113.074 20.9895 113.008 21.1606L112.676 22.0115C112.662 22.0474 112.326 22.9041 111.746 23.8433C110.885 25.2396 109.918 26.1276 108.871 26.4826C107.985 26.7836 107.069 26.7007 106.223 26.2431C105.728 25.9755 105.11 25.4194 104.975 24.2897C104.904 23.7018 104.969 22.9845 105.171 22.0977C105.513 20.6028 106.222 18.7282 106.972 16.744C107.839 14.4509 108.822 11.852 109.34 9.53211C109.883 7.10466 109.838 5.30015 109.207 4.16888C108.778 3.40165 108.045 2.89291 106.964 2.61339C105.547 2.24688 103.223 2.44971 100.203 5.49598C98.5957 7.11744 97.0545 9.28804 95.7503 11.7307C95.9609 12.6419 96.1631 13.581 96.3428 14.5198C97.5162 20.6407 97.3374 24.2749 95.7808 25.9574C95.1455 26.6438 94.3058 26.9988 93.3311 26.9988V27ZM93.8948 15.8225C92.5677 19.3367 92.0755 22.5227 92.6406 23.9818C92.8317 24.4757 93.0401 24.5012 93.1523 24.5148C93.5368 24.5614 93.667 24.4596 93.7765 24.3413C94.1041 23.9871 95.0431 22.3471 93.8948 15.8225Z" fill="#FC7800"/>
<path d="M5.20014 24.4517H0V6.46686H13.0359C14.4376 6.46686 15.6265 6.60208 16.603 6.87253C17.5796 7.14298 18.3738 7.52722 18.9861 8.02442C19.598 8.52161 20.0421 9.12188 20.3176 9.82439C20.5931 10.5269 20.7308 11.3102 20.7308 12.1739C20.7308 12.9333 20.6165 13.5963 20.3874 14.1635C20.1582 14.7308 19.8501 15.2173 19.4625 15.623C19.0744 16.0286 18.6237 16.3712 18.1098 16.6503C17.5959 16.9299 17.0538 17.1607 16.4838 17.3442L22.7916 24.4517H16.7085L10.8775 17.8282H5.20014V24.4517ZM15.4746 12.1475C15.4746 11.7988 15.4256 11.5019 15.3272 11.2574C15.2292 11.0134 15.0583 10.8147 14.8155 10.6617C14.5722 10.5092 14.2478 10.3979 13.8412 10.3278C13.4346 10.2581 12.9277 10.2231 12.3203 10.2231H5.20014V14.0712H12.3207C12.9282 14.0712 13.435 14.0366 13.8416 13.9665C14.2482 13.8968 14.5727 13.7855 14.8159 13.6325C15.0587 13.48 15.2296 13.2813 15.3276 13.0368C15.4256 12.7927 15.4751 12.4959 15.4751 12.1467L15.4746 12.1475Z" fill="#1E4726"/>
<path d="M26.5199 24.4517V6.46686H31.72V24.4517H26.5199Z" fill="#1E4726"/>
<path d="M48.5403 10.3805V24.4517H43.3401V10.3805H35.1684V6.46686H56.7261V10.3805H48.5403Z" fill="#1E4726"/>
<path d="M76.4901 24.4517V22.6847C75.8266 23.0253 75.114 23.3262 74.3525 23.588C73.5909 23.8498 72.7989 24.0725 71.9765 24.2555C71.154 24.439 70.3059 24.5762 69.4322 24.6678C68.5585 24.7593 67.6778 24.8051 66.79 24.8051C65.7525 24.8051 64.7504 24.7135 63.7835 24.5301C62.8163 24.347 61.9589 24.0502 61.2115 23.64C60.4636 23.2298 59.8632 22.6934 59.4103 22.0301C58.9569 21.3671 58.7304 20.5554 58.7304 19.5952C58.7304 18.3823 59.0854 17.3722 59.7957 16.565C60.5056 15.7578 61.5898 15.0969 63.0476 14.582C64.5054 14.0671 66.3485 13.67 68.5771 13.3909C70.8057 13.1118 73.443 12.8933 76.4897 12.7362V12.3565C76.4897 12.0601 76.4053 11.7654 76.2376 11.4731C76.0694 11.1808 75.763 10.9231 75.3193 10.7009C74.8752 10.4782 74.2682 10.2973 73.4969 10.1575C72.7261 10.0182 71.7425 9.94807 70.5465 9.94807C69.6026 9.94807 68.6702 9.99383 67.7502 10.0854C66.8297 10.1769 65.9419 10.3014 65.0872 10.4585C64.2325 10.6155 63.4215 10.799 62.6551 11.0084C61.8887 11.2179 61.1925 11.4359 60.5665 11.6627V7.34334C61.2203 7.18627 61.9541 7.03373 62.7673 6.88531C63.5805 6.73689 64.4259 6.60826 65.3044 6.49901C66.1825 6.39017 67.0708 6.30277 67.9674 6.23722C68.8645 6.17167 69.724 6.1391 70.5465 6.1391C72.1632 6.1391 73.6536 6.2636 75.0178 6.5122C76.3819 6.7608 77.5571 7.1471 78.543 7.67068C79.5288 8.19427 80.2996 8.85761 80.8559 9.6603C81.4117 10.4634 81.6898 11.4186 81.6898 12.5268V24.4513H76.4897L76.4901 24.4517ZM76.4901 16.2447C74.4902 16.3148 72.7919 16.4149 71.395 16.5456C69.9978 16.6763 68.8371 16.8293 67.9118 17.0037C66.9865 17.1785 66.2598 17.366 65.7322 17.5664C65.2042 17.7672 64.8091 17.9721 64.5477 18.1815C64.2859 18.391 64.1248 18.6004 64.0643 18.8098C64.0034 19.0193 63.9734 19.2114 63.9734 19.3858C63.9734 19.5952 64.0339 19.798 64.1557 19.9943C64.2771 20.1905 64.4899 20.3628 64.7936 20.5113C65.0974 20.6597 65.5013 20.7776 66.0059 20.8646C66.5105 20.952 67.1458 20.9953 67.9122 20.9953C68.7625 20.9953 69.5943 20.9342 70.407 20.8118C71.2202 20.6898 71.991 20.522 72.7199 20.308C73.4488 20.0945 74.1331 19.8413 74.7732 19.5486C75.4133 19.2563 75.9855 18.9446 76.4901 18.6128V16.2434V16.2447Z" fill="#1E4726"/>
<path d="M145.052 24.1223V13.1502C145.052 12.8063 144.559 12.6921 144.386 12.996L138.003 24.2761C137.941 24.3841 137.821 24.4517 137.691 24.4517H133.126C132.995 24.4517 132.875 24.3841 132.814 24.2761L126.43 12.996C126.258 12.6917 125.765 12.8059 125.765 13.1502V24.1223C125.765 24.3046 125.607 24.4522 125.412 24.4522H120.918C120.722 24.4522 120.564 24.3046 120.564 24.1223V6.79667C120.564 6.61445 120.722 6.46686 120.918 6.46686H127.417C127.547 6.46686 127.667 6.53406 127.729 6.64125L135.097 19.5346C135.23 19.7671 135.587 19.7671 135.72 19.5346L143.088 6.64125C143.149 6.53365 143.269 6.46686 143.4 6.46686H149.871C150.066 6.46686 150.225 6.61445 150.225 6.79667V24.1223C150.225 24.3046 150.066 24.4522 149.871 24.4522H145.405C145.21 24.4522 145.052 24.3046 145.052 24.1223H145.052Z" fill="#1E4726"/>
<path d="M172.581 24.1224V23.2298C172.581 22.9857 172.306 22.8249 172.072 22.9338C171.557 23.1741 171.014 23.3922 170.444 23.5881C169.682 23.8499 168.89 24.0725 168.068 24.2555C167.245 24.439 166.397 24.5763 165.523 24.6678C164.65 24.7593 163.769 24.8051 162.881 24.8051C161.844 24.8051 160.842 24.7136 159.875 24.5301C158.907 24.3471 158.05 24.0502 157.303 23.64C156.555 23.2298 155.954 22.6934 155.501 22.0301C155.048 21.3672 154.822 20.5554 154.822 19.5952C154.822 18.3823 155.177 17.3723 155.887 16.565C156.597 15.7578 157.681 15.0969 159.139 14.582C160.597 14.0671 162.44 13.6701 164.668 13.391C166.816 13.1222 169.342 12.9094 172.248 12.754C172.435 12.7441 172.581 12.5994 172.581 12.425V12.357C172.581 12.0606 172.497 11.7658 172.329 11.4735C172.161 11.1812 171.854 10.9235 171.41 10.7013C170.966 10.4787 170.359 10.2977 169.588 10.1579C168.817 10.0186 167.834 9.94851 166.638 9.94851C165.694 9.94851 164.761 9.99427 163.841 10.0858C162.921 10.1773 162.033 10.3018 161.178 10.4589C160.324 10.616 159.513 10.7994 158.746 11.0089C158.168 11.1668 157.63 11.3296 157.132 11.4978C156.901 11.5757 156.658 11.417 156.658 11.1882V7.60104C156.658 7.44932 156.768 7.3174 156.926 7.28112C157.51 7.14631 158.155 7.01438 158.858 6.88616C159.672 6.73775 160.517 6.60912 161.396 6.49987C162.274 6.39103 163.162 6.30363 164.059 6.23807C164.956 6.17252 165.815 6.13995 166.638 6.13995C168.254 6.13995 169.745 6.26446 171.109 6.51306C172.473 6.76166 173.648 7.14796 174.634 7.67154C175.62 8.19512 176.391 8.85846 176.947 9.66116C177.503 10.4643 177.781 11.4195 177.781 12.5277V24.1224C177.781 24.3046 177.623 24.4522 177.428 24.4522H172.934C172.738 24.4522 172.58 24.3046 172.58 24.1224H172.581ZM172.581 16.5877C172.581 16.4005 172.414 16.2505 172.213 16.2583C170.372 16.3276 168.796 16.4232 167.486 16.5461C166.089 16.6768 164.928 16.8297 164.003 17.0041C163.077 17.1789 162.351 17.3665 161.823 17.5669C161.295 17.7676 160.9 17.9725 160.638 18.182C160.377 18.3914 160.216 18.6008 160.155 18.8103C160.094 19.0197 160.064 19.2118 160.064 19.3862C160.064 19.5956 160.125 19.7985 160.246 19.9947C160.368 20.191 160.581 20.3633 160.884 20.5117C161.188 20.6601 161.592 20.778 162.097 20.865C162.601 20.9524 163.237 20.9957 164.003 20.9957C164.853 20.9957 165.685 20.9347 166.498 20.8122C167.311 20.6902 168.082 20.5224 168.811 20.3085C169.54 20.0949 170.224 19.8418 170.864 19.549C171.439 19.2864 171.959 19.0082 172.425 18.7138C172.523 18.6524 172.581 18.5497 172.581 18.44V16.5869L172.581 16.5877Z" fill="#1E4726"/>
<path d="M194.377 10.7104V24.1224C194.377 24.3046 194.219 24.4522 194.024 24.4522H189.53C189.334 24.4522 189.176 24.3046 189.176 24.1224V10.7104C189.176 10.5282 189.018 10.3806 188.823 10.3806H181.357C181.162 10.3806 181.004 10.233 181.004 10.0508V6.79631C181.004 6.61408 181.162 6.46649 181.357 6.46649H202.209C202.404 6.46649 202.562 6.61408 202.562 6.79631V10.0508C202.562 10.233 202.404 10.3806 202.209 10.3806H194.73C194.535 10.3806 194.377 10.5282 194.377 10.7104H194.377Z" fill="#1E4726"/>
<path d="M230.919 15.4725C230.919 17.0173 230.615 18.3807 230.008 19.5631C229.4 20.7455 228.531 21.7337 227.4 22.5277C226.27 23.3217 224.898 23.9216 223.286 24.3277C221.674 24.7333 219.864 24.9362 217.855 24.9362C215.845 24.9362 214.03 24.7333 212.409 24.3277C210.787 23.922 209.407 23.3221 208.267 22.5277C207.127 21.7337 206.249 20.7455 205.632 19.5631C205.015 18.3807 204.707 17.0173 204.707 15.4725C204.707 13.9277 205.015 12.5648 205.632 11.382C206.249 10.1996 207.127 9.21137 208.267 8.41733C209.407 7.6233 210.788 7.02345 212.409 6.61736C214.03 6.21169 215.845 6.00885 217.855 6.00885C219.864 6.00885 221.674 6.21169 223.286 6.61736C224.898 7.02304 226.269 7.6233 227.4 8.41733C228.531 9.21137 229.4 10.1996 230.008 11.382C230.615 12.5644 230.919 13.9277 230.919 15.4725ZM225.663 15.4725C225.663 14.8005 225.548 14.131 225.319 13.4631C225.09 12.7956 224.683 12.1958 224.1 11.6631C223.516 11.1309 222.719 10.6988 221.71 10.3674C220.701 10.0359 219.416 9.87017 217.856 9.87017C216.809 9.87017 215.888 9.94686 215.094 10.0994C214.3 10.2523 213.613 10.4638 213.034 10.7343C212.454 11.0047 211.968 11.3214 211.576 11.6833C211.183 12.0457 210.87 12.4341 210.637 12.8484C210.403 13.2632 210.237 13.6948 210.139 14.1442C210.041 14.5936 209.992 15.0363 209.992 15.4729C209.992 15.9095 210.041 16.3676 210.139 16.8211C210.237 17.275 210.403 17.7091 210.637 18.1234C210.87 18.5382 211.183 18.924 211.576 19.2819C211.968 19.6397 212.454 19.9518 213.034 20.2177C213.613 20.4841 214.3 20.6935 215.094 20.846C215.888 20.999 216.809 21.0753 217.856 21.0753C219.416 21.0753 220.701 20.9095 221.71 20.5777C222.719 20.2462 223.516 19.8141 224.1 19.2819C224.684 18.7497 225.09 18.1498 225.319 17.4819C225.548 16.8145 225.663 16.1445 225.663 15.4725Z" fill="#1E4726"/>
<path d="M253.402 11.0208C253.402 11.2575 253.143 11.4174 252.91 11.3239C252.635 11.2138 252.318 11.0955 251.958 10.9697C251.36 10.7603 250.682 10.562 249.925 10.374C249.169 10.1864 248.346 10.0293 247.458 9.90276C246.57 9.77619 245.659 9.71311 244.725 9.71311C243.977 9.71311 243.34 9.73497 242.812 9.77867C242.284 9.82237 241.84 9.87926 241.48 9.94893C241.12 10.019 240.835 10.0994 240.625 10.1909C240.415 10.2825 240.254 10.3765 240.142 10.4725C240.03 10.5686 239.957 10.6646 239.924 10.7603C239.892 10.8563 239.875 10.9433 239.875 11.0221C239.875 11.2839 240.015 11.5131 240.296 11.7093C240.576 11.9056 240.959 12.0804 241.445 12.2329C241.931 12.3855 242.497 12.5297 243.142 12.665C243.787 12.8002 244.471 12.94 245.195 13.0838C245.919 13.2277 246.667 13.3848 247.437 13.5551C248.208 13.7253 248.956 13.9236 249.68 14.1508C250.404 14.378 251.089 14.6418 251.734 14.9428C252.378 15.2437 252.944 15.5954 253.43 15.9965C253.915 16.3981 254.299 16.8602 254.579 17.3838C254.86 17.9074 255 18.5052 255 19.1772C255 20.0409 254.836 20.783 254.51 21.4022C254.182 22.0219 253.746 22.5454 253.199 22.973C252.652 23.4005 252.019 23.7431 251.3 24.0003C250.58 24.258 249.825 24.4563 249.036 24.5961C248.246 24.7354 247.447 24.8274 246.639 24.8711C245.831 24.9148 245.062 24.9366 244.333 24.9366C242.427 24.9366 240.663 24.7903 239.042 24.498C237.521 24.2238 236.167 23.8866 234.979 23.4854C234.839 23.438 234.746 23.3143 234.746 23.175V19.6591C234.746 19.4143 235.022 19.2539 235.256 19.3644C236.41 19.9081 237.7 20.3435 239.126 20.6696C240.766 21.0448 242.52 21.2324 244.389 21.2324C245.491 21.2324 246.391 21.1779 247.087 21.0687C247.784 20.9599 248.328 20.8201 248.72 20.6498C249.113 20.4796 249.379 20.2944 249.52 20.0937C249.66 19.8929 249.73 19.7008 249.73 19.5177C249.73 19.2296 249.589 18.9789 249.309 18.7649C249.029 18.5514 248.645 18.3638 248.159 18.2022C247.673 18.041 247.108 17.8926 246.463 17.7573C245.818 17.6221 245.134 17.4869 244.41 17.3517C243.685 17.2164 242.94 17.0701 242.174 16.913C241.408 16.7559 240.663 16.5704 239.939 16.3569C239.214 16.1433 238.53 15.8943 237.885 15.6106C237.24 15.327 236.675 14.991 236.189 14.6026C235.703 14.2143 235.32 13.7649 235.04 13.2545C234.76 12.7441 234.619 12.1529 234.619 11.4809C234.619 10.6869 234.768 10.0017 235.068 9.42576C235.367 8.84982 235.771 8.35881 236.28 7.95313C236.789 7.54746 237.378 7.21805 238.046 6.96492C238.714 6.71179 239.418 6.51555 240.156 6.37579C240.894 6.23644 241.642 6.13997 242.399 6.08802C243.155 6.03566 243.875 6.00928 244.557 6.00928C245.304 6.00928 246.073 6.04432 246.863 6.11399C247.652 6.18408 248.43 6.2822 249.196 6.40836C249.962 6.53492 250.703 6.68128 251.418 6.84701C252.036 6.99048 252.615 7.14055 253.153 7.29721C253.301 7.34009 253.401 7.46789 253.401 7.61218V11.0212L253.402 11.0208Z" fill="#1E4726"/>
</g>
<defs>
<clipPath id="clip0_5105_1888">
<rect width="255" height="27" fill="white"/>
</clipPath>
</defs>
</svg>
