<svg width="548" height="319" viewBox="0 0 548 319" fill="none" xmlns="http://www.w3.org/2000/svg">
<g clip-path="url(#clip0_5542_2942)">
<rect y="0.442993" width="548" height="317.695" rx="14" fill="#1A1E42"/>
<g opacity="0.7" filter="url(#filter0_f_5542_2942)">
<path d="M52.2935 441.183C-51.9498 441.183 -136.456 377.005 -136.456 297.838C-136.456 227.305 -18.9468 83.1865 49.9393 128.437C67.784 140.159 85.9084 153.989 107.256 153.639C205.756 152.024 325.908 151.664 250.106 282.974C244.425 292.817 241.458 303.954 239.676 315.178C228.404 386.168 148.809 441.183 52.2935 441.183Z" fill="#43EDC4"/>
</g>
<g opacity="0.7" filter="url(#filter1_f_5542_2942)">
<path d="M588.725 85.2609C588.725 166.688 533.893 232.698 466.254 232.698C408.383 232.698 292.532 148.048 317.669 93.6758C326.966 73.5678 343.223 55.4035 342.903 33.2528C341.826 -41.3632 345.709 -125.386 452.087 -70.025C461.453 -65.1507 471.89 -62.5637 482.32 -60.9186C542.367 -51.4472 588.725 10.3894 588.725 85.2609Z" fill="#4D35D3"/>
</g>
<path d="M401.347 144.915C403.14 144.915 404.708 146.193 405.166 148.027L411.872 173.365C411.922 173.564 412.092 173.703 412.286 173.703C412.477 173.703 412.643 173.571 412.697 173.378L420.251 147.908C420.748 146.133 422.29 144.915 424.04 144.915H429.163C429.729 144.915 430.132 145.495 429.96 146.063L415.073 195.02C414.961 195.384 414.639 195.63 414.276 195.63H406.931C406.369 195.63 405.966 195.057 406.133 194.492L409.942 181.552V181.551C410.109 180.986 409.708 180.413 409.145 180.413H407.698C406.176 180.413 404.833 179.355 404.392 177.814L395.409 146.045C395.249 145.482 395.651 144.915 396.21 144.915H401.347ZM196.652 148.551C200.019 148.551 202.747 151.412 202.747 154.943C202.747 172.433 189.18 186.662 172.503 186.662C155.827 186.662 142.259 172.434 142.259 154.943C142.259 151.412 144.987 148.551 148.354 148.551C151.72 148.551 154.448 151.412 154.448 154.943C154.448 165.384 162.548 173.879 172.503 173.879C182.458 173.879 190.558 165.384 190.558 154.943C190.558 151.412 193.286 148.551 196.652 148.551ZM359.894 129.257C360.371 129.257 360.758 129.665 360.758 130.167V136.612C360.758 137.115 360.371 137.523 359.894 137.523H353.124L353.122 137.524C351.445 137.524 350.086 139.103 350.086 140.869V143.963C350.086 144.445 350.457 144.836 350.914 144.836H358.534C358.991 144.836 359.362 145.226 359.362 145.708V152.914C359.362 153.396 358.991 153.786 358.534 153.786H352.133C351.676 153.786 351.305 154.177 351.305 154.658V179.201C351.304 179.795 350.834 180.276 350.253 180.276H345.302C343.164 180.276 341.431 178.449 341.431 176.196V154.657C341.431 154.176 341.059 153.785 340.603 153.785H337.354C336.897 153.785 336.525 153.394 336.525 152.912V145.732C336.525 145.25 336.897 144.859 337.354 144.859H340.603C341.059 144.858 341.431 144.468 341.431 143.986V140.164C341.431 133.752 346.065 129.257 351.782 129.257H359.894ZM389.321 129.257C389.799 129.257 390.185 129.665 390.185 130.167V136.612C390.185 137.114 389.799 137.522 389.321 137.523H382.551L382.55 137.524C380.873 137.524 379.513 139.103 379.513 140.869V143.963C379.513 144.445 379.884 144.836 380.341 144.836H387.961C388.418 144.836 388.789 145.226 388.789 145.708V152.914C388.789 153.396 388.418 153.786 387.961 153.786H381.422C380.965 153.786 380.594 154.177 380.594 154.658V179.201C380.594 179.795 380.123 180.276 379.542 180.276H374.729C372.592 180.276 370.857 178.449 370.857 176.196V154.657C370.857 154.175 370.486 153.785 370.029 153.785H366.78C366.324 153.785 365.952 153.394 365.952 152.912V145.732C365.952 145.25 366.324 144.859 366.78 144.859H370.029C370.486 144.859 370.857 144.468 370.857 143.986V140.164C370.857 133.752 375.492 129.257 381.209 129.257H389.321ZM274.31 144.772C276.634 144.772 278.303 146.688 278.303 149.051V179.188C278.303 179.778 277.832 180.258 277.251 180.258H272.776L272.775 180.259H272.455C270.307 180.259 268.566 178.433 268.566 176.182V145.842C268.566 145.251 269.037 144.772 269.618 144.772H274.31ZM326.085 144.772C328.409 144.772 330.078 146.688 330.078 149.051V179.188C330.078 179.778 329.607 180.258 329.026 180.258H324.552L324.551 180.259H324.23C322.083 180.259 320.343 178.433 320.343 176.182V145.842C320.343 145.251 320.813 144.772 321.394 144.772H326.085ZM312.917 129.23C313.439 129.23 313.862 129.679 313.862 130.234V163.01C313.862 174.924 307.342 180.201 297.624 180.201C293.067 180.201 288.4 178.99 285.068 175.868C284.728 175.549 284.641 175.026 284.864 174.609L288.298 168.193L288.297 168.191C288.596 167.632 289.303 167.507 289.77 167.922C291.489 169.452 294.073 170.7 296.842 170.7C301.311 170.7 304.004 167.76 304.004 162.859V133.246C304.004 131.027 305.696 129.23 307.784 129.23H312.917ZM228.162 129.257C230.259 129.257 231.958 131.055 231.958 133.273V148.158C231.958 148.713 232.383 149.162 232.906 149.162H251.429C251.953 149.162 252.377 148.713 252.377 148.158V130.261C252.377 129.707 252.802 129.257 253.325 129.257H258.001C260.281 129.257 262.128 131.201 262.128 133.597V179.167H262.129C262.129 179.721 261.705 180.172 261.182 180.172H256.173C254.076 180.172 252.377 178.374 252.377 176.156V160.496C252.377 159.942 251.952 159.491 251.429 159.491H232.906C232.382 159.491 231.958 159.942 231.958 160.496V179.167C231.958 179.722 231.533 180.172 231.01 180.172H226.071C223.975 180.172 222.277 178.374 222.276 176.156V130.261C222.277 129.707 222.702 129.257 223.225 129.257H228.162ZM124.05 167.447C127.391 167.448 130.098 170.296 130.099 173.809C130.099 177.322 127.391 180.17 124.05 180.17C120.709 180.17 118 177.322 118 173.809C118 170.296 120.709 167.447 124.05 167.447ZM148.246 123C164.922 123 178.49 137.228 178.49 154.72C178.49 158.251 175.762 161.111 172.396 161.111C169.029 161.111 166.3 158.251 166.3 154.72C166.3 144.279 158.201 135.784 148.246 135.783C138.291 135.783 130.191 144.279 130.191 154.72C130.191 158.251 127.463 161.111 124.097 161.111C120.73 161.111 118.001 158.251 118.001 154.72C118.001 137.23 131.569 123 148.246 123ZM196.699 129.492C200.04 129.492 202.749 132.34 202.749 135.854C202.749 139.367 200.04 142.215 196.699 142.215C193.358 142.215 190.65 139.367 190.649 135.854C190.649 132.34 193.358 129.492 196.699 129.492ZM273.435 129.273C276.123 129.273 278.303 131.569 278.303 134.401C278.303 137.232 276.123 139.528 273.435 139.528C270.746 139.528 268.566 137.232 268.566 134.401C268.566 131.569 270.746 129.273 273.435 129.273ZM325.212 129.273C327.9 129.273 330.08 131.569 330.08 134.401C330.08 137.232 327.9 139.528 325.212 139.528C322.523 139.528 320.344 137.232 320.344 134.401C320.344 131.569 322.523 129.273 325.212 129.273Z" fill="white"/>
</g>
<defs>
<filter id="filter0_f_5542_2942" x="-318.056" y="-61.7884" width="773.656" height="684.571" filterUnits="userSpaceOnUse" color-interpolation-filters="sRGB">
<feFlood flood-opacity="0" result="BackgroundImageFix"/>
<feBlend mode="normal" in="SourceGraphic" in2="BackgroundImageFix" result="shape"/>
<feGaussianBlur stdDeviation="90.8" result="effect1_foregroundBlur_5542_2942"/>
</filter>
<filter id="filter1_f_5542_2942" x="114.152" y="-287.92" width="674.573" height="720.617" filterUnits="userSpaceOnUse" color-interpolation-filters="sRGB">
<feFlood flood-opacity="0" result="BackgroundImageFix"/>
<feBlend mode="normal" in="SourceGraphic" in2="BackgroundImageFix" result="shape"/>
<feGaussianBlur stdDeviation="100" result="effect1_foregroundBlur_5542_2942"/>
</filter>
<clipPath id="clip0_5542_2942">
<rect y="0.442993" width="548" height="317.695" rx="14" fill="white"/>
</clipPath>
</defs>
</svg>
