<svg width="548" height="319" viewBox="0 0 548 319" fill="none" xmlns="http://www.w3.org/2000/svg">
<rect y="0.442993" width="548" height="317.695" rx="14" fill="url(#paint0_linear_5541_2888)"/>
<g clip-path="url(#clip0_5541_2888)">
<path d="M120.764 216.368V176.545H135.699C140.529 176.545 144.335 177.48 147.126 179.349C149.912 181.219 151.308 183.986 151.308 187.652C151.308 189.449 150.895 191.093 150.074 192.587C149.248 194.086 148.109 195.261 146.65 196.122C148.26 196.869 149.567 197.981 150.581 199.459C151.59 200.937 152.097 202.686 152.097 204.702C152.097 207.021 151.48 209.057 150.247 210.817C149.013 212.577 147.251 213.94 144.967 214.911C142.683 215.882 139.97 216.368 136.828 216.368H120.764ZM135.866 184.007H129.745V192.587H135.301C137.659 192.587 139.389 192.232 140.498 191.522C141.601 190.812 142.155 189.689 142.155 188.154C142.155 186.77 141.648 185.736 140.639 185.041C139.63 184.352 138.035 184.002 135.866 184.002V184.007ZM129.745 208.911H136.708C138.652 208.911 140.179 208.545 141.282 207.82C142.385 207.088 142.939 205.94 142.939 204.368C142.939 202.796 142.453 201.788 141.48 201.114C140.508 200.441 138.914 200.107 136.708 200.107H129.745V208.911Z" fill="white"/>
<path d="M184.712 187.934V216.372H176.065L176.348 212.111C174.288 215.328 171.24 216.936 167.194 216.936C164.649 216.936 162.479 216.357 160.681 215.198C158.883 214.038 157.518 212.43 156.583 210.372C155.647 208.315 155.177 205.96 155.177 203.307C155.177 200.132 155.83 197.344 157.142 194.952C158.454 192.56 160.211 190.701 162.422 189.37C164.628 188.043 167.1 187.38 169.834 187.38C171.633 187.38 173.222 187.746 174.607 188.471C175.992 189.202 177.059 190.163 177.806 191.359L178.538 187.939H184.712V187.934ZM170.676 194.832C168.616 194.832 166.996 195.599 165.82 197.129C164.638 198.665 164.053 200.628 164.053 203.02C164.053 205.077 164.513 206.665 165.428 207.788C166.342 208.91 167.592 209.469 169.16 209.469C171.068 209.469 172.704 208.686 174.074 207.114C175.438 205.542 176.123 203.49 176.123 200.947C176.123 199.041 175.637 197.542 174.664 196.461C173.692 195.375 172.364 194.832 170.676 194.832Z" fill="white"/>
<path d="M210.932 196.122C210.185 195.825 209.171 195.673 207.9 195.673C205.956 195.673 204.398 196.357 203.238 197.72C202.077 199.088 201.235 201.292 200.713 204.336C200.19 207.386 199.929 211.397 199.929 216.368H191.392V197.856L191.282 187.814H199.871L199.479 194.937C200.488 192.206 201.847 190.263 203.551 189.104C205.255 187.945 207.08 187.365 209.024 187.365C209.662 187.365 210.248 187.402 210.791 187.475C211.335 187.548 211.884 187.678 212.448 187.866L210.932 196.112V196.122Z" fill="white"/>
<path d="M228.397 216.931C225.214 216.931 222.464 216.341 220.143 215.166C217.822 213.991 216.024 212.325 214.753 210.174C213.478 208.023 212.845 205.474 212.845 202.519C212.845 199.563 213.494 196.889 214.785 194.612C216.076 192.33 217.817 190.555 220.007 189.286C222.197 188.017 224.675 187.38 227.446 187.38C230.587 187.38 233.154 188.09 235.135 189.511C237.117 190.931 238.497 192.941 239.26 195.542C240.028 198.143 240.185 201.161 239.736 204.602H221.601C221.826 206.023 222.574 207.208 223.849 208.164C225.12 209.119 226.86 209.594 229.071 209.594C230.08 209.594 231.147 209.38 232.271 208.947C233.395 208.519 234.346 207.871 235.135 207.009L239.908 212.059C238.674 213.558 237.148 214.743 235.334 215.621C233.52 216.498 231.21 216.936 228.397 216.936V216.931ZM227.608 193.594C226.113 193.594 224.848 194.043 223.818 194.941C222.788 195.84 222.103 197.093 221.769 198.701H232.495C232.532 196.941 232.114 195.657 231.23 194.832C230.352 194.012 229.145 193.599 227.608 193.599V193.594Z" fill="white"/>
<path d="M304.535 176.545H313.181L301.671 216.368H291.284L284.713 188.101L276.851 216.368H266.406L256.469 176.545H265.732L272.188 204.195L279.825 176.545H290.719L296.95 204.086L304.53 176.545H304.535Z" fill="white"/>
<path d="M341.985 187.934V216.372H333.339L333.621 212.111C331.561 215.328 328.514 216.936 324.468 216.936C321.922 216.936 319.753 216.357 317.954 215.198C316.156 214.038 314.792 212.43 313.856 210.372C312.92 208.315 312.45 205.96 312.45 203.307C312.45 200.132 313.103 197.344 314.415 194.952C315.727 192.56 317.484 190.701 319.695 189.37C321.901 188.043 324.374 187.38 327.108 187.38C328.906 187.38 330.495 187.746 331.88 188.471C333.266 189.202 334.332 190.163 335.079 191.359L335.811 187.939H341.985V187.934ZM327.949 194.832C325.89 194.832 324.269 195.599 323.093 197.129C321.912 198.665 321.326 200.628 321.326 203.02C321.326 205.077 321.786 206.665 322.701 207.788C323.616 208.91 324.865 209.469 326.433 209.469C328.341 209.469 329.978 208.686 331.347 207.114C332.711 205.542 333.396 203.49 333.396 200.947C333.396 199.041 332.91 197.542 331.938 196.461C330.965 195.375 329.638 194.832 327.949 194.832Z" fill="white"/>
<path d="M368.483 187.819H377.019L366.517 216.368H354.274L345.288 187.819H354.609L360.898 209.302L368.477 187.819H368.483Z" fill="white"/>
<path d="M392.461 216.931C389.277 216.931 386.528 216.341 384.207 215.166C381.886 213.991 380.087 212.325 378.817 210.174C377.542 208.023 376.909 205.474 376.909 202.519C376.909 199.563 377.557 196.889 378.849 194.612C380.14 192.33 381.88 190.555 384.071 189.286C386.261 188.017 388.739 187.38 391.509 187.38C394.651 187.38 397.218 188.09 399.199 189.511C401.18 190.931 402.56 192.941 403.324 195.542C404.092 198.143 404.249 201.161 403.799 204.602H385.665C385.89 206.023 386.637 207.208 387.913 208.164C389.183 209.119 390.924 209.594 393.135 209.594C394.144 209.594 395.211 209.38 396.334 208.947C397.458 208.519 398.41 207.871 399.199 207.009L403.972 212.059C402.738 213.558 401.212 214.743 399.398 215.621C397.584 216.498 395.273 216.936 392.461 216.936V216.931ZM391.672 193.594C390.176 193.594 388.911 194.043 387.882 194.941C386.852 195.84 386.167 197.093 385.832 198.701H396.559C396.596 196.941 396.178 195.657 395.294 194.832C394.416 194.012 393.208 193.599 391.672 193.599V193.594Z" fill="white"/>
<path d="M419.581 216.932C415.425 216.932 412.284 216.154 410.151 214.603C408.018 213.052 406.764 211.005 406.387 208.462L413.517 206.666C413.742 207.752 414.359 208.619 415.368 209.276C416.377 209.929 417.762 210.258 419.524 210.258C422.331 210.258 423.737 209.605 423.737 208.295C423.737 207.621 423.335 207.109 422.53 206.754C421.725 206.399 420.423 206.055 418.63 205.715C415.263 205.12 412.65 204.164 410.799 202.853C408.949 201.543 408.018 199.543 408.018 196.853C408.018 195.02 408.541 193.396 409.592 191.976C410.637 190.556 412.08 189.433 413.915 188.608C415.75 187.788 417.861 187.375 420.261 187.375C423.366 187.375 425.943 188.107 427.982 189.564C430.021 191.02 431.228 192.817 431.604 194.947L424.584 196.853C424.323 196.034 423.805 195.36 423.042 194.832C422.273 194.31 421.233 194.049 419.926 194.049C418.693 194.049 417.783 194.253 417.203 194.665C416.623 195.078 416.33 195.564 416.33 196.122C416.33 196.796 416.722 197.329 417.511 197.72C418.295 198.112 419.681 198.514 421.667 198.927C423.69 199.303 425.478 199.814 427.03 200.467C428.583 201.12 429.801 202.018 430.679 203.162C431.557 204.305 431.997 205.846 431.997 207.788C431.997 209.621 431.463 211.23 430.397 212.613C429.331 213.997 427.862 215.062 425.99 215.809C424.119 216.556 421.986 216.932 419.592 216.932H419.581Z" fill="white"/>
<path d="M198.721 271.402C193.818 271.402 190.017 270.357 187.325 268.263C184.628 266.169 183.096 263.083 182.72 259.01L191.309 257.777C191.533 259.72 192.302 261.208 193.609 262.237C194.921 263.266 196.735 263.778 199.056 263.778C201.037 263.778 202.563 263.433 203.63 262.738C204.696 262.049 205.229 261.067 205.229 259.793C205.229 258.634 204.67 257.72 203.546 257.046C202.422 256.373 200.572 255.736 197.989 255.14C195.219 254.467 192.882 253.652 190.969 252.702C189.056 251.751 187.618 250.503 186.646 248.973C185.673 247.438 185.187 245.495 185.187 243.14C185.187 240.785 185.825 238.482 187.095 236.576C188.366 234.67 190.143 233.182 192.427 232.117C194.712 231.051 197.352 230.519 200.347 230.519C204.241 230.519 207.42 231.511 209.892 233.49C212.365 235.474 213.787 238.185 214.158 241.621L206.128 242.968C205.83 241.438 205.135 240.247 204.053 239.406C202.966 238.566 201.601 238.143 199.955 238.143C198.308 238.143 196.98 238.529 195.966 239.292C194.957 240.059 194.45 241.098 194.45 242.404C194.45 243.6 194.936 244.566 195.909 245.292C196.881 246.023 198.658 246.702 201.241 247.339C203.975 248.012 206.332 248.77 208.313 249.61C210.295 250.451 211.821 251.6 212.888 253.062C213.954 254.519 214.487 256.503 214.487 259.01C214.487 261.516 213.834 263.59 212.522 265.459C211.21 267.328 209.369 268.785 206.991 269.835C204.612 270.885 201.852 271.407 198.711 271.407L198.721 271.402Z" fill="white"/>
<path d="M247.064 242.461V270.9H238.418L238.701 266.639C236.641 269.856 233.593 271.464 229.547 271.464C227.001 271.464 224.832 270.885 223.034 269.725C221.236 268.566 219.871 266.958 218.935 264.9C218 262.843 217.529 260.488 217.529 257.835C217.529 254.66 218.183 251.872 219.495 249.48C220.807 247.088 222.563 245.229 224.775 243.898C226.981 242.571 229.453 241.908 232.187 241.908C233.985 241.908 235.574 242.273 236.96 242.999C238.345 243.73 239.411 244.691 240.159 245.887L240.891 242.467H247.064V242.461ZM233.029 249.36C230.969 249.36 229.349 250.127 228.172 251.657C226.991 253.193 226.406 255.156 226.406 257.548C226.406 259.605 226.866 261.193 227.78 262.315C228.695 263.438 229.945 263.997 231.513 263.997C233.421 263.997 235.057 263.214 236.427 261.642C237.791 260.07 238.476 258.018 238.476 255.475C238.476 253.569 237.99 252.07 237.017 250.989C236.045 249.903 234.717 249.36 233.029 249.36Z" fill="white"/>
<path d="M257.959 238.984C256.312 238.984 255 238.478 254.028 237.47C253.055 236.462 252.569 235.266 252.569 233.877C252.569 232.488 253.045 231.298 254.001 230.29C254.958 229.282 256.275 228.775 257.959 228.775C259.642 228.775 260.917 229.282 261.89 230.29C262.862 231.298 263.348 232.499 263.348 233.877C263.348 235.256 262.862 236.457 261.89 237.47C260.917 238.478 259.605 238.984 257.959 238.984ZM262.282 242.347V270.896H253.693V242.347H262.282Z" fill="white"/>
<path d="M277.833 271.46C274.953 271.46 272.731 270.666 271.179 269.073C269.626 267.486 268.847 265.178 268.847 262.149V229.392H277.436V261.533C277.436 263.251 278.241 264.113 279.851 264.113C280.714 264.113 281.44 263.909 282.042 263.496L284.117 269.611C283.479 270.134 282.601 270.572 281.477 270.927C280.353 271.282 279.135 271.46 277.828 271.46H277.833Z" fill="white"/>
<path d="M290.468 238.984C288.821 238.984 287.509 238.478 286.537 237.47C285.565 236.462 285.079 235.266 285.079 233.877C285.079 232.488 285.554 231.298 286.511 230.29C287.468 229.282 288.785 228.775 290.468 228.775C292.151 228.775 293.427 229.282 294.399 230.29C295.371 231.298 295.858 232.499 295.858 233.877C295.858 235.256 295.371 236.457 294.399 237.47C293.427 238.478 292.115 238.984 290.468 238.984ZM294.791 242.347V270.896H286.203V242.347H294.791Z" fill="white"/>
<path d="M301.362 270.901V242.353H309.899L309.507 248.467C310.667 246.373 312.152 244.755 313.971 243.616C315.785 242.478 317.818 241.903 320.061 241.903C323.469 241.903 326.015 243.052 327.698 245.355C329.381 247.653 330.207 250.953 330.171 255.256L330.061 270.906H321.472L321.582 255.872C321.619 253.93 321.331 252.441 320.714 251.413C320.097 250.384 319.115 249.872 317.766 249.872C316.642 249.872 315.612 250.201 314.677 250.854C313.741 251.507 312.925 252.619 312.235 254.191C311.54 255.763 310.991 257.914 310.578 260.64C310.165 263.371 309.94 266.791 309.904 270.906H301.367L301.362 270.901Z" fill="white"/>
<path d="M346.726 282.676C345.602 282.676 344.379 282.592 343.046 282.425C341.718 282.258 340.453 282.002 339.256 281.668C338.059 281.334 337.029 280.885 336.167 280.321L338.242 273.031C339.476 273.668 340.835 274.18 342.314 274.571C343.794 274.963 345.43 275.161 347.228 275.161C350.37 275.161 352.597 274.451 353.909 273.031C355.221 271.61 355.968 269.386 356.156 266.357L356.214 265.851C354.191 268.843 351.196 270.336 347.228 270.336C344.609 270.336 342.382 269.793 340.547 268.707C338.712 267.621 337.311 266.106 336.334 264.164C335.362 262.221 334.875 259.976 334.875 257.433C334.875 254.367 335.524 251.673 336.815 249.354C338.106 247.036 339.857 245.213 342.063 243.887C344.269 242.561 346.778 241.897 349.586 241.897C351.457 241.897 353.093 242.263 354.499 242.989C355.906 243.72 356.977 244.681 357.73 245.876L358.462 242.456H364.641V265.339C364.641 269.229 363.898 272.451 362.424 275.015C360.945 277.574 358.87 279.49 356.193 280.765C353.517 282.034 350.364 282.671 346.731 282.671L346.726 282.676ZM350.49 249.36C348.394 249.36 346.747 250.07 345.55 251.49C344.353 252.911 343.752 254.707 343.752 256.874C343.752 258.78 344.227 260.258 345.184 261.307C346.141 262.357 347.437 262.879 349.089 262.879C350.401 262.879 351.577 262.545 352.628 261.871C353.673 261.198 354.51 260.263 355.127 259.067C355.744 257.871 356.052 256.508 356.052 254.973C356.052 253.255 355.545 251.887 354.536 250.879C353.527 249.871 352.178 249.365 350.495 249.365L350.49 249.36Z" fill="white"/>
<path d="M291.226 49.6031C291.921 50.5535 310.484 72.0158 298.654 93.285C293.542 102.476 283.792 108.8 274.231 109.39C273.641 109.421 273.045 109.442 272.459 109.426C270.065 111.834 267.305 113.86 264.247 115.369C261.503 116.68 258.607 117.599 255.663 117.964C266.406 111.661 274.488 101.212 276.15 88.8202C277.551 79.123 274.989 69.5041 269.898 61.1802C277.974 66.7625 282.517 77.3266 282.046 87.1701C281.926 92.7262 280.274 98.1884 277.462 102.956C283.845 101.348 290.06 96.648 293.51 90.439C299.036 80.4964 297.337 68.2717 288.711 56.0105C284.984 50.7049 276.761 41.2531 275.146 34.005C272.072 38.1565 271.921 47.1801 271.921 47.1801C242.506 49.0495 221.533 74.2143 223.264 102.131C224.262 118.204 232.626 128.852 233.128 129.531C281.079 130.184 304.932 93.7341 326.825 93.238C324.556 72.491 310.123 55.7494 291.221 49.6083L291.226 49.6031ZM268.068 88.3815C264.994 85.6296 260.237 84.486 255.841 87.5983C256.578 88.345 256.808 90.2406 256.202 91.1127C252.276 86.4181 245.621 86.6687 241.821 90.8724C242.804 87.0708 248 82.9664 253.959 86.1361C255.956 83.2379 264.027 80.3919 268.068 88.3868V88.3815ZM249.762 67.3161C251.759 64.4179 259.83 61.5719 263.871 69.5667C260.797 66.8147 256.04 65.6711 251.644 68.7834C252.381 69.5302 252.611 71.4258 252.004 72.2978C248.078 67.6033 241.424 67.8539 237.623 72.0576C238.606 68.256 243.802 64.1515 249.762 67.3213V67.3161ZM245.266 111.113C241.089 106.115 234.011 106.387 229.97 110.857C231.016 106.815 236.547 102.444 242.882 105.818C245.005 102.737 253.593 99.708 257.89 108.209C254.618 105.285 249.563 104.063 244.879 107.379C245.663 108.173 245.909 110.189 245.261 111.118L245.266 111.113Z" fill="white"/>
<path d="M319.768 107.034C321.806 103.478 317.483 100.35 314.776 105.014C313.003 108.058 312.266 115.766 314.3 118.873C314.927 111.619 318.367 109.478 319.773 107.04L319.768 107.034Z" fill="white"/>
<path d="M303.019 118.136C304.315 118.669 307.671 116.778 311.811 118.872C311.644 115.159 305.319 110.251 302.13 113.906C300.902 115.316 301.278 117.415 303.024 118.131L303.019 118.136Z" fill="white"/>
<path d="M320.536 112.565C318.335 113.165 316.25 116.204 316.767 118.283C318.027 116.606 318.879 116.168 321.759 115.567C323.976 115.108 323.579 111.734 320.536 112.565Z" fill="white"/>
<path d="M310.97 113.123C310.588 111.415 311.132 110.073 311.335 109.065C312.428 103.686 307.671 103.942 307.948 108.151C308.115 110.7 309.558 112.689 310.97 113.123Z" fill="white"/>
<path d="M318.706 126.089C318.706 126.82 318.523 127.519 318.168 128.099C318.121 128.172 318.074 128.24 318.027 128.303C308.659 141.932 292.94 150.851 275.146 150.851C260.833 150.851 247.864 145.091 238.47 135.728C246.986 139.932 256.588 142.272 266.73 142.272C284.482 142.272 300.551 135.044 312.135 123.363C312.831 122.668 313.793 122.24 314.859 122.24C316.987 122.24 318.706 123.958 318.706 126.083V126.089Z" fill="white"/>
</g>
<defs>
<linearGradient id="paint0_linear_5541_2888" x1="0" y1="0.442993" x2="548" y2="318.138" gradientUnits="userSpaceOnUse">
<stop stop-color="#741BF5"/>
<stop offset="1" stop-color="#70EFFC"/>
</linearGradient>
<clipPath id="clip0_5541_2888">
<rect x="117" y="34.0001" width="316" height="251" rx="14" fill="white"/>
</clipPath>
</defs>
</svg>
