<svg width="548" height="319" viewBox="0 0 548 319" fill="none" xmlns="http://www.w3.org/2000/svg">
<rect y="0.748047" width="548" height="317.695" rx="14" fill="#1D1D1D"/>
<rect x="0.5" y="1.24805" width="547" height="316.695" rx="11.5" fill="#1D1D1D" stroke="#333333"/>
<g clip-path="url(#clip0_5542_2969)">
<path d="M107.29 161.54C108.06 169.06 114.79 174.53 122.31 173.76C128.77 173.1 133.87 167.99 134.53 161.54C134.58 161.07 134.6 160.61 134.6 160.14C134.66 152.58 128.59 146.4 121.03 146.34C113.47 146.28 107.29 152.35 107.23 159.91C107.23 159.99 107.23 160.07 107.23 160.14C107.23 160.61 107.25 161.07 107.29 161.54ZM84 159.91C84 139.53 100.53 123 120.91 123C141.3 123 157.82 139.53 157.82 159.91C157.82 180.3 141.29 196.82 120.91 196.82C100.53 196.82 84 180.3 84 159.91Z" fill="#FF2400"/>
<path d="M203.24 159.66C203.24 170.88 195.47 175.78 188.13 175.78C179.91 175.78 173.58 169.77 173.58 160.17C173.58 150.01 180.22 144.05 188.63 144.05C197.04 144.05 203.24 150.38 203.24 159.66ZM179.16 159.98C179.16 166.63 182.99 171.65 188.37 171.65C193.75 171.65 197.59 166.69 197.59 159.85C197.59 154.71 195.02 148.18 188.49 148.18C181.96 148.18 179.16 154.21 179.16 159.98Z" fill="white"/>
<path d="M235.61 166.82C235.61 169.95 235.68 172.72 235.86 175.1H230.97L230.66 170.14H230.53C228.45 173.7 224.61 175.86 220.49 175.79C215.72 175.79 210.02 173.16 210.02 162.5V144.72H215.54V161.54C215.54 167.31 217.3 171.2 222.32 171.2C226.6 171.21 230.08 167.75 230.09 163.46C230.09 163.43 230.09 163.39 230.09 163.36V144.72H235.61V166.81H235.62L235.61 166.82Z" fill="white"/>
<path d="M263.91 169.46C266.1 170.83 268.61 171.58 271.19 171.65C275.2 171.65 277.09 169.64 277.09 167.14C277.09 164.51 275.52 163.06 271.44 161.56C265.99 159.62 263.42 156.6 263.42 152.97C263.42 148.08 267.36 144.07 273.89 144.07C276.5 144.04 279.07 144.69 281.35 145.96L279.97 149.97C278.1 148.82 275.95 148.22 273.76 148.22C270.5 148.22 268.67 150.11 268.67 152.36C268.67 154.86 270.49 156 274.44 157.5C279.71 159.5 282.41 162.14 282.41 166.66C282.41 171.99 278.27 175.82 271.06 175.82C268.08 175.86 265.14 175.12 262.53 173.69L263.92 169.46H263.91Z" fill="white"/>
<path d="M317.85 169.46C320.04 170.82 322.55 171.58 325.12 171.65C329.13 171.65 331.02 169.64 331.02 167.14C331.02 164.51 329.45 163.06 325.37 161.56C319.92 159.62 317.35 156.6 317.35 152.97C317.35 148.08 321.3 144.07 327.82 144.07C330.43 144.04 333 144.69 335.28 145.96L333.9 149.97C332.03 148.82 329.88 148.21 327.69 148.21C324.43 148.21 322.61 150.1 322.61 152.35C322.61 154.85 324.43 155.99 328.38 157.49C333.65 159.49 336.35 162.13 336.35 166.65C336.35 171.98 332.21 175.81 325 175.81C322.02 175.85 319.08 175.11 316.47 173.68L317.86 169.46H317.85Z" fill="white"/>
<path d="M394.03 152.95C394.03 149.82 393.96 147.25 393.78 144.73H398.6L398.85 149.62H399.03C400.88 146.1 404.58 143.93 408.56 144.04C412.44 143.99 415.9 146.45 417.15 150.12H417.28C418.12 148.58 419.27 147.24 420.66 146.17C422.58 144.7 424.95 143.94 427.37 144.03C431.38 144.03 437.35 146.67 437.35 157.2V175.08H431.96V157.89C431.96 152.06 429.82 148.54 425.38 148.54C422.36 148.67 419.75 150.68 418.85 153.56C418.56 154.45 418.42 155.39 418.42 156.33V175.09H413.03V156.9C413.03 152.08 410.89 148.56 406.7 148.56C403.25 148.56 400.74 151.33 399.86 154.08C399.55 154.95 399.41 155.86 399.43 156.78V175.09H394.04V152.94L394.03 152.95Z" fill="white"/>
<path d="M445.5 169.46C447.69 170.82 450.2 171.58 452.78 171.65C456.79 171.65 458.68 169.64 458.68 167.14C458.68 164.51 457.11 163.06 453.03 161.56C447.58 159.62 445.01 156.6 445.01 152.97C445.01 148.08 448.96 144.07 455.49 144.07C458.1 144.04 460.67 144.69 462.95 145.96L461.57 149.97C459.7 148.82 457.55 148.21 455.36 148.21C452.1 148.21 450.28 150.1 450.28 152.35C450.28 154.85 452.1 155.99 456.05 157.49C461.32 159.49 464.02 162.13 464.02 166.65C464.02 171.98 459.88 175.81 452.67 175.81C449.69 175.85 446.75 175.11 444.14 173.68L445.53 169.46H445.5Z" fill="white"/>
<path d="M308.04 144.66L302.02 162.46C301.27 164.65 300.64 167.2 300.08 168.78H299.95C299.45 167.21 298.69 164.59 298.01 162.58L291.36 144.66H285.34L296.56 172.67C296.76 173.14 296.89 173.63 296.94 174.14C296.87 174.6 296.73 175.05 296.51 175.46C295.46 177.84 293.87 179.94 291.87 181.61C290.45 182.81 288.81 183.72 287.05 184.31L288.54 188.92C291.02 188.32 293.31 187.1 295.19 185.37C298.95 182.11 301.65 176.73 305.6 166.32L313.88 144.64H308.03L308.04 144.66Z" fill="white"/>
<path d="M387 160.91C387.12 160.05 387.18 159.19 387.18 158.33C387.18 152.73 384.54 143.99 374.61 143.99C365.75 143.99 360.34 151.23 360.34 160.4C360.34 169.57 365.94 175.8 375.3 175.8C378.76 175.83 382.18 175.08 385.31 173.61L383.93 169.4C379.3 171.29 375.84 171.65 373.26 171.17C372.21 170.95 371.2 170.57 370.26 170.04C366.17 167.54 365.67 162.24 365.62 161.11C365.62 161.03 365.61 160.9 365.61 160.9H387V160.91ZM374.18 147.99C380.41 147.99 381.91 153.44 381.85 156.98H365.69C366.14 153.44 368.59 147.99 374.18 147.99Z" fill="white"/>
<path d="M257.1 169.51C256.1 170.25 254.92 170.72 253.68 170.87C251.77 170.84 250.47 169.52 250.47 165.81V148.71H258.33V144.78H250.47V133.97L244.7 138.08V165.49C244.7 169.07 245.43 171.76 247.01 173.39C247.87 174.32 248.97 175.01 250.19 175.36C253.05 176.24 256.16 175.62 258.46 173.71L257.1 169.51Z" fill="white"/>
<path d="M355.68 169.51C354.68 170.25 353.5 170.72 352.26 170.87C350.35 170.84 349.05 169.52 349.05 165.81V148.71H356.91V144.78H349.05V133.97L343.28 138.08V165.49C343.28 169.07 344.01 171.76 345.59 173.39C346.45 174.33 347.55 175.01 348.77 175.36C351.63 176.24 354.74 175.62 357.04 173.71L355.68 169.51Z" fill="white"/>
</g>
<defs>
<clipPath id="clip0_5542_2969">
<rect width="380" height="73.83" fill="white" transform="translate(84 123)"/>
</clipPath>
</defs>
</svg>
