<svg width="73" height="73" viewBox="0 0 73 73" fill="none" xmlns="http://www.w3.org/2000/svg">
<path d="M3.95374 9.61047C3.71651 8.53168 2.64965 7.84946 1.57086 8.0867C0.492069 8.32394 -0.190146 9.39079 0.0470905 10.4696L2.00042 10.04L3.95374 9.61047ZM53.1089 21.7466L54.7082 22.9475L53.1089 21.7466ZM30.5888 14.2597L28.7308 13.5195L30.5888 14.2597ZM71.4813 63.0593C72.4194 62.4762 72.7071 61.2429 72.1239 60.3049L62.6204 45.0182C62.0372 44.0801 60.804 43.7924 59.866 44.3756C58.9279 44.9588 58.6402 46.192 59.2234 47.13L67.6709 60.7182L54.0827 69.1658C53.1447 69.749 52.857 70.9822 53.4402 71.9203C54.0233 72.8583 55.2566 73.146 56.1946 72.5628L71.4813 63.0593ZM2.00042 10.04L0.0470905 10.4696C5.66989 36.0382 37.9 45.3301 54.7082 22.9475L53.1089 21.7466L51.5096 20.5456C36.9822 39.8911 8.92415 32.2125 3.95374 9.61047L2.00042 10.04ZM53.1089 21.7466L54.7082 22.9475C58.084 18.4521 59.0112 13.8653 58.0427 9.88746C57.0829 5.94582 54.3178 2.8537 50.8042 1.24217C47.2775 -0.375375 42.9782 -0.514206 38.918 1.42663C34.8556 3.36855 31.2083 7.30097 28.7308 13.5195L30.5888 14.2597L32.4467 14.9999C34.6402 9.49433 37.6829 6.45056 40.6431 5.0355C43.6056 3.61937 46.6616 3.74278 49.1366 4.87798C51.6248 6.0192 53.5077 8.17034 54.1562 10.8338C54.7959 13.461 54.2915 16.841 51.5096 20.5456L53.1089 21.7466ZM30.5888 14.2597L28.7308 13.5195C26.005 20.3612 26.0722 30.4775 32.0019 40.0605C37.9529 49.678 49.6797 58.5748 69.971 63.3085L70.4254 61.3608L70.8798 59.4131C51.3345 54.8535 40.6553 46.4436 35.4033 37.9558C30.1301 29.4336 30.1973 20.646 32.4467 14.9999L30.5888 14.2597Z" fill="#FFBD42"/>
</svg>
