<svg width="59" height="30" viewBox="0 0 59 30" fill="none" xmlns="http://www.w3.org/2000/svg">
<path d="M35.9166 29.9992C35.8017 29.9992 35.7128 29.9912 35.66 29.9852C34.7623 29.8771 33.7724 29.1922 33.5839 27.9063C33.5572 27.7248 33.5452 27.5247 33.5452 27.2753C33.5452 26.2735 33.8259 24.5994 34.3212 21.7255C34.7991 18.9556 35.3939 15.5081 35.6693 12.5187C35.9253 9.73884 35.8164 8.29954 35.6827 7.58455C34.4702 8.15814 32.9162 9.03986 31.2833 9.96694C29.5595 10.9454 27.684 12.0099 25.8051 12.9476C25.8593 13.3111 25.9027 13.6786 25.9355 14.0481C26.2075 17.1034 25.749 20.0361 24.608 22.5305C23.7298 24.4507 22.4805 26.0354 20.8951 27.2406C19.1532 28.5652 17.0538 29.3902 14.6549 29.693C9.39999 30.3573 5.06009 28.5705 2.43462 24.6628C0.968827 22.4812 0.107932 19.6699 0.00967741 16.748C-0.0838982 13.9587 0.503623 11.2975 1.66463 9.25329C3.0716 6.77552 5.26395 5.38491 7.71028 5.40492C7.86201 5.40625 7.98165 5.53431 7.97363 5.68571L7.76175 9.82888C7.75506 9.96294 7.64879 10.0683 7.51511 10.081C6.85206 10.1457 6.25451 10.6412 5.73517 11.5556C5.00394 12.8429 4.62162 14.6784 4.68578 16.5919C4.7553 18.6535 5.33613 20.597 6.32202 22.0643C7.95625 24.4967 10.5623 25.5052 14.0681 25.0623C17.0545 24.6848 19.1686 23.1815 20.3523 20.593C21.1604 18.8255 21.4285 16.7993 21.3075 14.8665C18.424 15.8255 16.1949 15.9096 14.3789 15.1439C13.1557 14.6283 11.5516 13.4518 10.8551 10.7773C10.4059 9.0512 10.4574 7.48784 11.0088 6.13057C11.5516 4.79531 12.5829 3.73217 13.913 3.13724C15.4436 2.45294 17.2563 2.40358 19.0176 2.99985C20.7761 3.59478 22.3361 4.80732 23.4109 6.41403C23.8133 7.01563 24.1749 7.67459 24.4917 8.3769C26.0137 7.58855 27.5463 6.71883 28.9707 5.91047C30.9772 4.7713 32.8728 3.69549 34.3853 3.04853C36.4514 2.16548 37.8664 2.90447 38.5261 3.42403C39.3448 4.06899 39.8969 5.02275 40.2057 6.39002C40.8207 5.19882 41.4724 4.17837 42.1648 3.38735C43.4775 1.88735 45.1793 0.826213 47.0856 0.317987C48.9851 -0.188238 50.9823 -0.0875264 52.7088 0.602113C54.4453 1.29576 55.8629 2.54564 56.8087 4.21705C57.7966 5.96316 58.2438 8.09478 58.1362 10.5532C57.9156 15.6215 55.2219 18.2693 52.9394 19.6099C53.4079 20.1515 53.833 20.7171 54.2441 21.2646C55.3603 22.7506 56.514 24.2853 58.4911 25.4918C58.6147 25.5672 58.6548 25.728 58.5826 25.8527L56.5006 29.4296C56.4251 29.559 56.258 29.6003 56.1296 29.523C53.3391 27.8429 51.769 25.7533 50.5004 24.0652C49.302 22.4698 48.6329 21.6455 47.6544 21.3227C47.0147 21.3974 46.4225 21.422 45.9105 21.4067C45.5743 21.3967 45.2769 21.3693 45.0276 21.3247C43.5424 21.0599 42.892 19.9234 42.9067 18.9149C42.9221 17.8758 43.5912 16.9967 44.6125 16.6759C44.8043 16.6159 45.0075 16.5739 45.2521 16.5445C45.567 16.5065 45.9613 16.4878 46.4586 16.4878C46.9559 16.4878 47.3863 16.5212 47.8081 16.5826C48.9136 16.3778 50.2785 15.9323 51.392 15.0079C52.6947 13.926 53.3718 12.402 53.4614 10.3484C53.5837 7.54787 52.6981 5.62501 50.9696 4.93471C49.2746 4.25774 47.0528 4.89802 45.6879 6.45672C44.9019 7.35512 43.6199 9.49273 41.9803 14.577C40.8153 18.1899 39.8816 21.981 39.2005 24.7488C38.9318 25.8413 38.7192 26.7037 38.5454 27.3393C38.4405 27.7242 38.3549 28.0036 38.2774 28.2184C37.7059 29.7998 36.4901 29.9978 35.9173 29.9978L35.9166 29.9992ZM16.5625 7.25774C16.2798 7.25774 16.0271 7.30643 15.826 7.39647C15.586 7.50385 15.4376 7.65392 15.344 7.88402C15.1836 8.27953 15.197 8.8898 15.3828 9.60278C15.6448 10.6092 16.0472 10.7786 16.1989 10.8427C16.6508 11.0328 17.7509 11.1855 20.226 10.2991C20.0141 9.82488 19.7769 9.39069 19.5189 9.00452C18.684 7.75663 17.4675 7.25774 16.5625 7.25774Z" fill="#FF7F0B"/>
</svg>
